{"glyphs":{"0":{"ha":899,"x_min":58,"x_max":841,"o":"m 450 -15 q 240 47 328 -15 q 105 226 153 110 q 58 505 58 342 q 105 783 58 667 q 240 963 153 900 q 450 1025 328 1025 q 660 963 572 1025 q 794 783 747 900 q 841 505 841 667 q 794 226 841 342 q 660 47 747 110 q 450 -15 572 -15 m 450 134 q 566 179 518 134 q 640 306 614 223 q 666 505 666 389 q 640 704 666 621 q 566 832 614 787 q 450 876 517 876 q 333 832 382 876 q 259 704 285 787 q 233 505 233 621 q 259 306 233 389 q 333 179 285 223 q 450 134 382 134 z "},"1":{"ha":555,"x_min":44,"x_max":463,"o":"m 463 1010 l 463 0 l 287 0 l 287 844 l 283 844 l 44 682 l 44 850 l 282 1010 l 463 1010 z "},"2":{"ha":837,"x_min":68,"x_max":770,"o":"m 71 0 l 71 134 l 431 465 q 516 552 481 513 q 571 629 552 591 q 589 713 589 667 q 568 801 589 764 q 507 858 546 838 q 416 878 468 878 q 321 854 361 878 q 259 789 281 831 q 237 687 237 746 l 68 687 q 112 865 68 789 q 234 983 155 941 q 417 1025 313 1025 q 595 987 518 1025 q 716 880 673 949 q 760 722 760 812 q 736 603 760 659 q 661 486 713 547 q 526 348 610 425 l 318 153 l 318 149 l 770 149 l 770 0 l 71 0 z "},"3":{"ha":865,"x_min":62,"x_max":807,"o":"m 435 -15 q 238 26 321 -15 q 109 140 155 68 q 62 304 63 212 l 240 304 q 266 212 241 251 q 333 153 290 174 q 433 133 376 133 q 534 153 490 133 q 602 208 577 172 q 626 291 626 243 q 600 373 626 338 q 527 427 574 408 q 416 447 480 447 l 328 447 l 328 585 l 416 585 q 513 603 471 585 q 578 654 555 621 q 602 730 602 686 q 581 810 602 777 q 522 862 559 844 q 433 881 484 881 q 342 862 382 881 q 279 807 302 843 q 255 723 256 772 l 83 723 q 129 880 84 812 q 253 987 174 948 q 434 1025 332 1025 q 611 988 534 1025 q 731 888 688 951 q 774 745 774 825 q 723 603 774 661 q 588 525 671 545 l 588 521 q 706 478 657 511 q 781 394 755 445 q 807 283 807 344 q 759 129 807 197 q 627 23 711 62 q 435 -15 543 -15 z "},"4":{"ha":908,"x_min":54,"x_max":857,"o":"m 54 210 l 54 352 l 498 1010 l 614 1010 l 614 820 l 547 820 l 236 360 l 236 356 l 857 356 l 857 210 l 54 210 m 549 0 l 549 252 l 551 317 l 551 1010 l 721 1010 l 721 0 l 549 0 z "},"5":{"ha":835,"x_min":56,"x_max":777,"o":"m 415 -14 q 234 25 313 -14 q 107 133 154 64 q 56 291 60 201 l 230 291 q 258 209 233 245 q 324 152 283 173 q 415 132 365 132 q 513 157 471 132 q 579 228 555 182 q 604 331 604 273 q 580 435 604 390 q 514 507 556 481 q 416 533 471 533 q 308 509 355 533 q 237 441 260 484 l 73 454 l 113 1010 l 721 1010 l 721 861 l 269 861 l 245 592 l 248 592 q 337 653 284 631 q 454 674 390 674 q 581 649 522 674 q 684 578 640 624 q 752 470 728 532 q 777 335 777 408 q 731 154 777 233 q 604 31 686 75 q 415 -14 523 -14 z "},"6":{"ha":863,"x_min":58,"x_max":804,"o":"m 442 -15 q 289 14 359 -15 q 167 103 219 43 q 87 256 115 163 q 58 475 58 349 q 84 704 58 602 q 160 878 110 806 q 284 987 211 949 q 452 1025 358 1025 q 622 989 549 1025 q 740 888 695 952 q 795 741 785 824 l 621 741 q 565 839 608 802 q 453 876 522 876 q 329 834 379 876 q 254 715 279 791 q 229 534 229 638 l 233 534 q 295 605 258 576 q 380 649 333 633 q 481 664 428 664 q 647 621 574 664 q 762 503 720 578 q 804 331 804 427 q 759 152 804 230 q 631 30 713 74 q 442 -15 549 -15 m 441 132 q 538 158 495 132 q 606 229 581 184 q 631 329 631 274 q 607 429 631 385 q 539 498 582 473 q 444 524 497 524 q 368 509 403 524 q 308 467 334 494 q 267 405 281 440 q 252 328 252 369 q 277 229 252 274 q 345 158 302 184 q 441 132 388 132 z "},"7":{"ha":771,"x_min":43,"x_max":729,"o":"m 112 0 l 544 855 l 544 859 l 43 859 l 43 1010 l 729 1010 l 729 857 l 298 0 l 112 0 z "},"8":{"ha":861,"x_min":58,"x_max":803,"o":"m 430 -15 q 237 22 321 -15 q 105 123 153 58 q 58 271 58 187 q 87 391 58 336 q 167 480 116 445 q 283 525 218 515 l 283 527 q 145 605 197 543 q 94 753 94 667 q 137 894 94 833 q 256 990 180 956 q 430 1025 332 1025 q 604 990 528 1025 q 723 894 680 956 q 766 753 766 833 q 714 605 766 667 q 578 527 662 543 l 578 525 q 693 480 643 515 q 773 391 744 445 q 803 271 803 336 q 755 123 803 187 q 624 22 707 58 q 430 -15 540 -15 m 430 123 q 530 143 488 123 q 596 199 572 163 q 620 283 620 235 q 595 369 620 332 q 528 429 571 407 q 430 450 485 450 q 332 429 375 450 q 265 369 290 407 q 240 283 240 332 q 264 199 240 235 q 330 143 288 163 q 430 123 373 123 m 430 588 q 514 607 478 588 q 571 659 551 625 q 592 737 592 693 q 572 815 592 782 q 515 866 551 848 q 430 885 479 885 q 345 866 382 885 q 288 815 309 848 q 268 737 268 782 q 288 659 268 693 q 346 607 309 625 q 430 588 382 588 z "},"9":{"ha":863,"x_min":58,"x_max":804,"o":"m 410 -16 q 240 21 314 -16 q 121 123 166 58 q 66 270 76 188 l 240 270 q 296 171 253 208 q 408 134 340 134 q 532 177 483 134 q 607 296 582 219 q 633 476 633 373 l 629 476 q 567 407 604 436 q 483 363 530 378 q 382 349 435 349 q 216 392 290 349 q 100 510 142 435 q 58 681 58 585 q 104 860 58 782 q 232 982 151 938 q 421 1026 314 1027 q 574 997 504 1026 q 695 907 644 967 q 776 755 747 847 q 804 536 804 663 q 778 307 804 408 q 702 133 752 205 q 577 22 651 60 q 410 -16 504 -16 m 419 488 q 495 504 460 488 q 556 546 530 519 q 596 608 582 572 q 611 684 611 643 q 586 782 611 738 q 518 853 562 827 q 422 879 475 879 q 325 853 368 879 q 257 783 282 827 q 232 683 232 739 q 256 584 232 627 q 323 514 281 540 q 419 488 366 488 z "},"\u0000":{"ha":524,"x_min":0,"x_max":0,"o":""},"A":{"ha":984,"x_min":20,"x_max":964,"o":"m 20 0 l 377 1010 l 604 1010 l 964 0 l 766 0 l 589 528 q 533 709 562 611 q 468 938 504 808 l 513 938 q 448 709 477 807 q 393 528 419 610 l 215 0 l 20 0 m 230 245 l 230 392 l 754 392 l 754 245 l 230 245 z "},"Ä":{"ha":984,"x_min":20,"x_max":964,"o":"m 20 0 l 377 1010 l 604 1010 l 964 0 l 766 0 l 589 528 q 533 709 562 611 q 468 938 504 808 l 513 938 q 448 709 477 807 q 393 528 419 610 l 215 0 l 20 0 m 230 245 l 230 392 l 754 392 l 754 245 l 230 245 m 640 1120 q 571 1147 600 1120 q 543 1215 543 1175 q 571 1281 543 1254 q 640 1309 600 1309 q 709 1282 682 1309 q 737 1215 737 1255 q 709 1147 737 1175 q 640 1120 682 1120 m 345 1120 q 276 1147 304 1120 q 248 1215 248 1175 q 276 1281 248 1254 q 345 1309 304 1309 q 414 1282 386 1309 q 442 1215 442 1255 q 414 1147 442 1175 q 345 1120 386 1120 z "},"Ã":{"ha":984,"x_min":20,"x_max":964,"o":"m 20 0 l 377 1010 l 604 1010 l 964 0 l 766 0 l 589 528 q 533 709 562 611 q 468 938 504 808 l 513 938 q 448 709 477 807 q 393 528 419 610 l 215 0 l 20 0 m 230 245 l 230 392 l 754 392 l 754 245 l 230 245 m 585 1129 q 531 1139 555 1129 q 485 1161 506 1148 q 447 1184 465 1175 q 414 1194 429 1194 q 385 1176 395 1194 q 373 1133 374 1158 l 271 1133 q 307 1254 273 1210 q 401 1298 341 1298 q 455 1288 431 1298 q 499 1265 479 1278 q 536 1243 519 1253 q 571 1233 554 1233 q 602 1248 592 1233 q 614 1295 612 1263 l 714 1295 q 677 1173 713 1217 q 585 1129 642 1129 z "},"À":{"ha":984,"x_min":20,"x_max":964,"o":"m 20 0 l 377 1010 l 604 1010 l 964 0 l 766 0 l 589 528 q 533 709 562 611 q 468 938 504 808 l 513 938 q 448 709 477 807 q 393 528 419 610 l 215 0 l 20 0 m 230 245 l 230 392 l 754 392 l 754 245 l 230 245 m 433 1103 l 285 1311 l 457 1311 l 560 1103 l 433 1103 z "},"Á":{"ha":984,"x_min":20,"x_max":964,"o":"m 20 0 l 377 1010 l 604 1010 l 964 0 l 766 0 l 589 528 q 533 709 562 611 q 468 938 504 808 l 513 938 q 448 709 477 807 q 393 528 419 610 l 215 0 l 20 0 m 230 245 l 230 392 l 754 392 l 754 245 l 230 245 m 423 1103 l 527 1311 l 699 1311 l 551 1103 l 423 1103 z "},"Â":{"ha":984,"x_min":20,"x_max":964,"o":"m 20 0 l 377 1010 l 604 1010 l 964 0 l 766 0 l 589 528 q 533 709 562 611 q 468 938 504 808 l 513 938 q 448 709 477 807 q 393 528 419 610 l 215 0 l 20 0 m 230 245 l 230 392 l 754 392 l 754 245 l 230 245 m 398 1112 l 248 1112 l 248 1115 l 420 1311 l 563 1311 l 736 1115 l 736 1112 l 586 1112 l 492 1228 l 398 1112 z "},"Å":{"ha":984,"x_min":20,"x_max":964,"o":"m 20 0 l 377 1010 l 604 1010 l 964 0 l 766 0 l 589 528 q 533 709 562 611 q 468 938 504 808 l 513 938 q 448 709 477 807 q 393 528 419 610 l 215 0 l 20 0 m 230 245 l 230 392 l 754 392 l 754 245 l 230 245 m 492 1059 q 402 1081 442 1059 q 340 1140 363 1103 q 317 1222 317 1177 q 340 1305 317 1268 q 402 1364 363 1342 q 492 1385 442 1385 q 582 1364 543 1385 q 645 1305 622 1342 q 668 1222 668 1268 q 645 1140 668 1177 q 582 1081 622 1103 q 492 1059 543 1059 m 492 1147 q 547 1169 525 1147 q 568 1223 568 1190 q 547 1276 568 1255 q 492 1297 525 1297 q 438 1276 460 1297 q 416 1223 416 1255 q 438 1169 416 1191 q 492 1147 460 1147 z "},"Ǻ":{"ha":984,"x_min":20,"x_max":964,"o":"m 20 0 l 377 1010 l 604 1010 l 964 0 l 766 0 l 589 528 q 533 709 562 611 q 468 938 504 808 l 513 938 q 448 709 477 807 q 393 528 419 610 l 215 0 l 20 0 m 230 245 l 230 392 l 754 392 l 754 245 l 230 245 m 433 1415 l 532 1550 l 686 1550 l 551 1415 l 433 1415 m 492 1058 q 402 1079 442 1058 q 340 1137 363 1101 q 317 1219 317 1173 q 340 1300 317 1263 q 402 1357 363 1336 q 492 1378 442 1378 q 582 1357 543 1378 q 645 1300 622 1336 q 668 1218 668 1263 q 645 1137 668 1173 q 582 1079 622 1101 q 492 1058 543 1058 m 492 1145 q 547 1166 525 1145 q 568 1219 568 1187 q 547 1271 568 1250 q 492 1292 525 1292 q 438 1271 460 1292 q 416 1219 416 1250 q 438 1166 416 1187 q 492 1145 460 1145 z "},"":{"ha":984,"x_min":20,"x_max":981,"o":"m 20 0 l 377 1010 l 604 1010 l 964 0 l 766 0 l 589 528 q 533 709 562 611 q 468 938 504 808 l 513 938 q 448 709 477 807 q 393 528 419 610 l 215 0 l 20 0 m 230 245 l 230 392 l 754 392 l 754 245 l 230 245 m 492 1059 q 402 1081 442 1059 q 340 1140 363 1103 q 317 1222 317 1177 q 340 1305 317 1268 q 402 1364 363 1342 q 492 1385 442 1385 q 582 1364 543 1385 q 645 1305 622 1342 q 668 1222 668 1268 q 645 1140 668 1177 q 582 1081 622 1103 q 492 1059 543 1059 m 492 1147 q 547 1169 525 1147 q 568 1223 568 1190 q 547 1276 568 1255 q 492 1297 525 1297 q 438 1276 460 1297 q 416 1223 416 1255 q 438 1169 416 1191 q 492 1147 460 1147 m 864 -288 q 738 -252 787 -288 q 689 -151 689 -217 q 716 -61 689 -100 q 787 15 743 -21 l 964 0 q 886 -64 911 -37 q 861 -122 861 -92 q 874 -157 861 -145 q 915 -170 888 -170 q 940 -168 928 -170 q 962 -162 952 -165 l 981 -273 q 927 -283 959 -279 q 864 -288 895 -288 z "},"Ā":{"ha":984,"x_min":20,"x_max":964,"o":"m 20 0 l 377 1010 l 604 1010 l 964 0 l 766 0 l 589 528 q 533 709 562 611 q 468 938 504 808 l 513 938 q 448 709 477 807 q 393 528 419 610 l 215 0 l 20 0 m 230 245 l 230 392 l 754 392 l 754 245 l 230 245 m 686 1265 l 686 1147 l 299 1147 l 299 1265 l 686 1265 z "},"Ă":{"ha":984,"x_min":20,"x_max":964,"o":"m 20 0 l 377 1010 l 604 1010 l 964 0 l 766 0 l 589 528 q 533 709 562 611 q 468 938 504 808 l 513 938 q 448 709 477 807 q 393 528 419 610 l 215 0 l 20 0 m 230 245 l 230 392 l 754 392 l 754 245 l 230 245 m 492 1105 q 380 1133 430 1105 q 301 1206 330 1160 q 272 1310 272 1253 l 381 1310 q 412 1236 381 1265 q 492 1207 444 1207 q 572 1236 541 1207 q 603 1310 603 1265 l 713 1310 q 684 1206 713 1253 q 605 1133 654 1160 q 492 1105 555 1105 z "},"Ą":{"ha":984,"x_min":20,"x_max":981,"o":"m 20 0 l 377 1010 l 604 1010 l 964 0 l 766 0 l 589 528 q 533 709 562 611 q 468 938 504 808 l 513 938 q 448 709 477 807 q 393 528 419 610 l 215 0 l 20 0 m 230 245 l 230 392 l 754 392 l 754 245 l 230 245 m 864 -288 q 738 -252 787 -288 q 689 -151 689 -217 q 716 -61 689 -100 q 787 15 743 -21 l 964 0 q 886 -64 911 -37 q 861 -122 861 -92 q 874 -157 861 -145 q 915 -170 888 -170 q 940 -168 928 -170 q 962 -162 952 -165 l 981 -273 q 927 -283 959 -279 q 864 -288 895 -288 z "},"Ǎ":{"ha":984,"x_min":20,"x_max":964,"o":"m 20 0 l 377 1010 l 604 1010 l 964 0 l 766 0 l 589 528 q 533 709 562 611 q 468 938 504 808 l 513 938 q 448 709 477 807 q 393 528 419 610 l 215 0 l 20 0 m 230 245 l 230 392 l 754 392 l 754 245 l 230 245 m 398 1311 l 492 1196 l 586 1311 l 736 1311 l 736 1308 l 563 1112 l 420 1112 l 248 1308 l 248 1311 l 398 1311 z "},"Ǟ":{"ha":984,"x_min":20,"x_max":964,"o":"m 20 0 l 377 1010 l 604 1010 l 964 0 l 766 0 l 589 528 q 533 709 562 611 q 468 938 504 808 l 513 938 q 448 709 477 807 q 393 528 419 610 l 215 0 l 20 0 m 230 245 l 230 392 l 754 392 l 754 245 l 230 245 m 637 1099 q 568 1127 596 1099 q 540 1194 540 1155 q 568 1262 540 1234 q 637 1289 596 1289 q 706 1262 678 1289 q 734 1194 734 1234 q 706 1127 734 1154 q 637 1099 678 1099 m 341 1099 q 272 1127 300 1099 q 244 1194 244 1155 q 272 1262 244 1234 q 341 1289 300 1289 q 411 1262 382 1289 q 439 1194 439 1234 q 411 1127 439 1154 q 341 1099 382 1099 m 686 1472 l 686 1369 l 299 1369 l 299 1472 l 686 1472 z "},"Ǡ":{"ha":984,"x_min":20,"x_max":964,"o":"m 20 0 l 377 1010 l 604 1010 l 964 0 l 766 0 l 589 528 q 533 709 562 611 q 468 938 504 808 l 513 938 q 448 709 477 807 q 393 528 419 610 l 215 0 l 20 0 m 230 245 l 230 392 l 754 392 l 754 245 l 230 245 m 493 1097 q 420 1125 450 1097 q 391 1194 391 1154 q 420 1263 391 1235 q 493 1291 450 1291 q 566 1263 536 1291 q 595 1194 595 1235 q 566 1125 595 1153 q 493 1097 536 1097 m 686 1472 l 686 1369 l 300 1369 l 300 1472 l 686 1472 z "},"Ȁ":{"ha":984,"x_min":20,"x_max":964,"o":"m 20 0 l 377 1010 l 604 1010 l 964 0 l 766 0 l 589 528 q 533 709 562 611 q 468 938 504 808 l 513 938 q 448 709 477 807 q 393 528 419 610 l 215 0 l 20 0 m 230 245 l 230 392 l 754 392 l 754 245 l 230 245 m 547 1103 l 427 1311 l 593 1311 l 674 1103 l 547 1103 m 321 1103 l 157 1311 l 330 1311 l 451 1103 l 321 1103 z "},"Ȃ":{"ha":984,"x_min":20,"x_max":964,"o":"m 20 0 l 377 1010 l 604 1010 l 964 0 l 766 0 l 589 528 q 533 709 562 611 q 468 938 504 808 l 513 938 q 448 709 477 807 q 393 528 419 610 l 215 0 l 20 0 m 230 245 l 230 392 l 754 392 l 754 245 l 230 245 m 492 1318 q 608 1290 557 1318 q 687 1216 658 1263 q 715 1112 715 1170 l 606 1112 q 573 1186 606 1157 q 492 1215 541 1215 q 411 1186 444 1215 q 378 1112 378 1157 l 269 1112 q 298 1216 269 1170 q 377 1290 327 1263 q 492 1318 428 1318 z "},"Ȧ":{"ha":984,"x_min":20,"x_max":964,"o":"m 20 0 l 377 1010 l 604 1010 l 964 0 l 766 0 l 589 528 q 533 709 562 611 q 468 938 504 808 l 513 938 q 448 709 477 807 q 393 528 419 610 l 215 0 l 20 0 m 230 245 l 230 392 l 754 392 l 754 245 l 230 245 m 492 1117 q 419 1145 449 1117 q 390 1214 390 1173 q 419 1283 390 1255 q 492 1311 449 1311 q 565 1283 536 1311 q 595 1214 595 1255 q 565 1145 595 1173 q 492 1117 535 1117 z "},"Ḁ":{"ha":984,"x_min":20,"x_max":964,"o":"m 20 0 l 377 1010 l 604 1010 l 964 0 l 766 0 l 589 528 q 533 709 562 611 q 468 938 504 808 l 513 938 q 448 709 477 807 q 393 528 419 610 l 215 0 l 20 0 m 230 245 l 230 392 l 754 392 l 754 245 l 230 245 m 492 -362 q 406 -341 445 -362 q 345 -285 368 -321 q 322 -206 322 -250 q 345 -127 322 -163 q 406 -71 368 -92 q 492 -50 445 -50 q 579 -71 541 -50 q 640 -127 617 -92 q 663 -205 663 -163 q 640 -285 663 -250 q 579 -341 617 -321 q 492 -362 541 -362 m 492 -278 q 546 -257 524 -278 q 567 -206 567 -236 q 546 -155 567 -176 q 492 -134 524 -134 q 440 -155 462 -134 q 418 -206 418 -176 q 440 -257 418 -236 q 492 -278 462 -278 z "},"Ạ":{"ha":984,"x_min":20,"x_max":964,"o":"m 20 0 l 377 1010 l 604 1010 l 964 0 l 766 0 l 589 528 q 533 709 562 611 q 468 938 504 808 l 513 938 q 448 709 477 807 q 393 528 419 610 l 215 0 l 20 0 m 230 245 l 230 392 l 754 392 l 754 245 l 230 245 m 493 -307 q 420 -278 450 -307 q 391 -210 391 -250 q 420 -140 391 -168 q 493 -113 450 -113 q 566 -140 536 -113 q 595 -210 595 -168 q 566 -278 595 -250 q 493 -307 536 -307 z "},"Ả":{"ha":984,"x_min":20,"x_max":964,"o":"m 20 0 l 377 1010 l 604 1010 l 964 0 l 766 0 l 589 528 q 533 709 562 611 q 468 938 504 808 l 513 938 q 448 709 477 807 q 393 528 419 610 l 215 0 l 20 0 m 230 245 l 230 392 l 754 392 l 754 245 l 230 245 m 544 1103 l 431 1103 l 481 1195 q 484 1209 487 1204 q 471 1214 481 1214 l 369 1214 l 369 1311 l 473 1311 q 555 1298 524 1311 q 597 1262 585 1284 q 605 1212 610 1240 q 581 1156 600 1184 l 544 1103 z "},"Ấ":{"ha":984,"x_min":20,"x_max":964,"o":"m 20 0 l 377 1010 l 604 1010 l 964 0 l 766 0 l 589 528 q 533 709 562 611 q 468 938 504 808 l 513 938 q 448 709 477 807 q 393 528 419 610 l 215 0 l 20 0 m 230 245 l 230 392 l 754 392 l 754 245 l 230 245 m 399 1098 l 250 1098 l 250 1101 l 421 1297 l 564 1297 l 738 1101 l 738 1098 l 587 1098 l 493 1214 l 399 1098 m 586 1331 l 680 1519 l 836 1519 l 700 1331 l 586 1331 z "},"Ầ":{"ha":984,"x_min":20,"x_max":964,"o":"m 20 0 l 377 1010 l 604 1010 l 964 0 l 766 0 l 589 528 q 533 709 562 611 q 468 938 504 808 l 513 938 q 448 709 477 807 q 393 528 419 610 l 215 0 l 20 0 m 230 245 l 230 392 l 754 392 l 754 245 l 230 245 m 399 1098 l 250 1098 l 250 1101 l 421 1297 l 564 1297 l 738 1101 l 738 1098 l 587 1098 l 493 1214 l 399 1098 m 635 1331 l 500 1519 l 655 1519 l 750 1331 l 635 1331 z "},"Ẩ":{"ha":984,"x_min":20,"x_max":964,"o":"m 20 0 l 377 1010 l 604 1010 l 964 0 l 766 0 l 589 528 q 533 709 562 611 q 468 938 504 808 l 513 938 q 448 709 477 807 q 393 528 419 610 l 215 0 l 20 0 m 230 245 l 230 392 l 754 392 l 754 245 l 230 245 m 399 1098 l 250 1098 l 250 1101 l 421 1297 l 564 1297 l 738 1101 l 738 1098 l 587 1098 l 493 1214 l 399 1098 m 688 1331 l 586 1331 l 629 1409 q 631 1423 633 1419 q 618 1428 628 1428 l 524 1428 l 524 1519 l 619 1519 q 711 1497 682 1519 q 742 1442 741 1476 q 718 1373 743 1409 l 688 1331 z "},"Ẫ":{"ha":984,"x_min":20,"x_max":964,"o":"m 20 0 l 377 1010 l 604 1010 l 964 0 l 766 0 l 589 528 q 533 709 562 611 q 468 938 504 808 l 513 938 q 448 709 477 807 q 393 528 419 610 l 215 0 l 20 0 m 230 245 l 230 392 l 754 392 l 754 245 l 230 245 m 399 1098 l 250 1098 l 250 1101 l 421 1297 l 564 1297 l 738 1101 l 738 1098 l 587 1098 l 493 1214 l 399 1098 m 586 1349 q 531 1358 556 1349 q 486 1379 507 1367 q 447 1401 465 1392 q 415 1410 430 1410 q 385 1393 395 1410 q 374 1352 375 1376 l 271 1352 q 308 1466 273 1424 q 401 1508 342 1508 q 456 1498 432 1508 q 500 1477 480 1489 q 537 1456 519 1465 q 572 1447 555 1447 q 603 1461 593 1447 q 614 1505 612 1475 l 715 1505 q 678 1390 713 1432 q 586 1349 643 1349 z "},"Ậ":{"ha":984,"x_min":20,"x_max":964,"o":"m 20 0 l 377 1010 l 604 1010 l 964 0 l 766 0 l 589 528 q 533 709 562 611 q 468 938 504 808 l 513 938 q 448 709 477 807 q 393 528 419 610 l 215 0 l 20 0 m 230 245 l 230 392 l 754 392 l 754 245 l 230 245 m 398 1112 l 248 1112 l 248 1115 l 420 1311 l 563 1311 l 736 1115 l 736 1112 l 586 1112 l 492 1228 l 398 1112 m 493 -307 q 420 -278 450 -307 q 391 -210 391 -250 q 420 -140 391 -168 q 493 -113 450 -113 q 566 -140 536 -113 q 595 -210 595 -168 q 566 -278 595 -250 q 493 -307 536 -307 z "},"Ắ":{"ha":984,"x_min":20,"x_max":964,"o":"m 20 0 l 377 1010 l 604 1010 l 964 0 l 766 0 l 589 528 q 533 709 562 611 q 468 938 504 808 l 513 938 q 448 709 477 807 q 393 528 419 610 l 215 0 l 20 0 m 230 245 l 230 392 l 754 392 l 754 245 l 230 245 m 494 1091 q 381 1118 431 1091 q 302 1192 332 1145 q 273 1295 273 1238 l 382 1295 q 414 1221 382 1250 q 494 1193 445 1193 q 573 1221 542 1193 q 604 1295 604 1250 l 714 1295 q 685 1192 714 1238 q 606 1118 656 1145 q 494 1091 556 1091 m 434 1331 l 528 1518 l 684 1518 l 548 1331 l 434 1331 z "},"Ằ":{"ha":984,"x_min":20,"x_max":964,"o":"m 20 0 l 377 1010 l 604 1010 l 964 0 l 766 0 l 589 528 q 533 709 562 611 q 468 938 504 808 l 513 938 q 448 709 477 807 q 393 528 419 610 l 215 0 l 20 0 m 230 245 l 230 392 l 754 392 l 754 245 l 230 245 m 492 1091 q 379 1118 429 1091 q 300 1192 330 1145 q 271 1295 271 1238 l 381 1295 q 412 1221 381 1250 q 492 1193 444 1193 q 571 1221 540 1193 q 603 1295 603 1250 l 712 1295 q 683 1192 712 1238 q 604 1118 654 1145 q 492 1091 554 1091 m 551 1331 l 437 1331 l 301 1518 l 456 1518 l 551 1331 z "},"Ẳ":{"ha":984,"x_min":20,"x_max":964,"o":"m 20 0 l 377 1010 l 604 1010 l 964 0 l 766 0 l 589 528 q 533 709 562 611 q 468 938 504 808 l 513 938 q 448 709 477 807 q 393 528 419 610 l 215 0 l 20 0 m 230 245 l 230 392 l 754 392 l 754 245 l 230 245 m 493 1091 q 381 1118 431 1091 q 302 1192 332 1145 q 273 1295 273 1238 l 382 1295 q 414 1221 382 1250 q 494 1193 445 1193 q 573 1221 542 1193 q 604 1295 604 1250 l 714 1295 q 685 1192 714 1238 q 606 1118 656 1145 q 493 1091 556 1091 m 543 1331 l 441 1331 l 484 1409 q 486 1423 489 1419 q 473 1428 484 1428 l 380 1428 l 380 1519 l 475 1519 q 567 1497 537 1519 q 597 1442 596 1476 q 573 1373 598 1409 l 543 1331 z "},"Ẵ":{"ha":984,"x_min":20,"x_max":964,"o":"m 20 0 l 377 1010 l 604 1010 l 964 0 l 766 0 l 589 528 q 533 709 562 611 q 468 938 504 808 l 513 938 q 448 709 477 807 q 393 528 419 610 l 215 0 l 20 0 m 230 245 l 230 392 l 754 392 l 754 245 l 230 245 m 491 1094 q 380 1121 429 1094 q 302 1194 331 1148 q 274 1297 274 1240 l 379 1297 q 411 1223 379 1252 q 491 1194 443 1194 q 571 1223 539 1194 q 602 1297 602 1252 l 711 1297 q 682 1194 711 1240 q 603 1121 652 1148 q 491 1094 553 1094 m 590 1349 q 535 1358 560 1349 q 490 1379 511 1367 q 452 1401 469 1392 q 419 1410 434 1410 q 389 1393 399 1410 q 378 1352 379 1376 l 275 1352 q 312 1466 277 1424 q 406 1508 346 1508 q 460 1498 436 1508 q 504 1477 484 1489 q 541 1456 524 1465 q 576 1447 559 1447 q 607 1461 597 1447 q 619 1505 616 1475 l 719 1505 q 682 1390 718 1432 q 590 1349 647 1349 z "},"Ặ":{"ha":984,"x_min":20,"x_max":964,"o":"m 20 0 l 377 1010 l 604 1010 l 964 0 l 766 0 l 589 528 q 533 709 562 611 q 468 938 504 808 l 513 938 q 448 709 477 807 q 393 528 419 610 l 215 0 l 20 0 m 230 245 l 230 392 l 754 392 l 754 245 l 230 245 m 492 1105 q 380 1133 430 1105 q 301 1206 330 1160 q 272 1310 272 1253 l 381 1310 q 412 1236 381 1265 q 492 1207 444 1207 q 572 1236 541 1207 q 603 1310 603 1265 l 713 1310 q 684 1206 713 1253 q 605 1133 654 1160 q 492 1105 555 1105 m 493 -307 q 420 -278 450 -307 q 391 -210 391 -250 q 420 -140 391 -168 q 493 -113 450 -113 q 566 -140 536 -113 q 595 -210 595 -168 q 566 -278 595 -250 q 493 -307 536 -307 z "},"Α":{"ha":984,"x_min":20,"x_max":964,"o":"m 20 0 l 377 1010 l 604 1010 l 964 0 l 766 0 l 589 528 q 533 709 562 611 q 468 938 504 808 l 513 938 q 448 709 477 807 q 393 528 419 610 l 215 0 l 20 0 m 230 245 l 230 392 l 754 392 l 754 245 l 230 245 z "},"Ά":{"ha":984,"x_min":20,"x_max":964,"o":"m 20 0 l 377 1010 l 604 1010 l 964 0 l 766 0 l 589 528 q 533 709 562 611 q 468 938 504 808 l 513 938 q 448 709 477 807 q 393 528 419 610 l 215 0 l 20 0 m 230 245 l 230 392 l 754 392 l 754 245 l 230 245 m 64 803 l 88 1010 l 248 1010 l 172 803 l 64 803 z "},"Ἀ":{"ha":1010,"x_min":45,"x_max":990,"o":"m 45 0 l 403 1010 l 630 1010 l 990 0 l 792 0 l 614 528 q 559 709 588 611 q 494 938 530 808 l 538 938 q 474 709 503 807 q 419 528 445 610 l 241 0 l 45 0 m 256 245 l 256 392 l 780 392 l 780 245 l 256 245 m 96 800 l 87 800 l 87 857 l 98 857 q 149 867 132 857 q 167 899 167 878 q 150 926 167 917 q 101 936 134 936 l 71 936 l 71 1025 l 96 1025 q 223 995 178 1025 q 269 913 269 965 q 223 830 269 860 q 96 800 178 800 z "},"Ἁ":{"ha":1016,"x_min":52,"x_max":996,"o":"m 52 0 l 409 1010 l 636 1010 l 996 0 l 798 0 l 621 528 q 565 709 594 611 q 500 938 536 808 l 545 938 q 480 709 509 807 q 425 528 451 610 l 247 0 l 52 0 m 262 245 l 262 392 l 786 392 l 786 245 l 262 245 m 237 789 q 109 819 155 789 q 64 902 64 849 q 109 984 64 954 q 237 1014 155 1014 l 261 1014 l 261 925 l 231 925 q 182 916 199 925 q 165 888 165 906 q 183 856 165 867 q 235 846 201 846 l 245 846 l 245 789 l 237 789 z "},"Ἂ":{"ha":1198,"x_min":43,"x_max":1179,"o":"m 234 0 l 591 1010 l 819 1010 l 1179 0 l 981 0 l 803 528 q 747 709 777 611 q 682 938 718 808 l 727 938 q 662 709 691 807 q 608 528 633 610 l 429 0 l 234 0 m 444 245 l 444 392 l 968 392 l 968 245 l 444 245 m 67 789 l 59 789 l 59 846 l 69 846 q 121 856 103 846 q 138 888 138 867 q 122 916 138 906 q 73 925 105 925 l 43 925 l 43 1014 l 67 1014 q 195 984 150 1014 q 240 902 240 954 q 195 819 240 849 q 67 789 149 789 m 429 793 l 329 793 l 258 1010 l 406 1010 l 429 793 z "},"Ἃ":{"ha":1219,"x_min":43,"x_max":1200,"o":"m 255 0 l 612 1010 l 840 1010 l 1200 0 l 1002 0 l 824 528 q 768 709 798 611 q 703 938 739 808 l 748 938 q 683 709 712 807 q 629 528 654 610 l 450 0 l 255 0 m 465 245 l 465 392 l 989 392 l 989 245 l 465 245 m 216 789 q 88 819 134 789 q 43 902 43 849 q 88 984 43 954 q 216 1014 134 1014 l 240 1014 l 240 925 l 210 925 q 161 916 178 925 q 144 888 144 906 q 162 856 144 867 q 214 846 180 846 l 224 846 l 224 789 l 216 789 m 452 793 l 353 793 l 282 1010 l 429 1010 l 452 793 z "},"Ἄ":{"ha":1206,"x_min":43,"x_max":1187,"o":"m 242 0 l 600 1010 l 827 1010 l 1187 0 l 989 0 l 811 528 q 755 709 785 611 q 690 938 726 808 l 735 938 q 670 709 699 807 q 616 528 642 610 l 437 0 l 242 0 m 452 245 l 452 392 l 977 392 l 977 245 l 452 245 m 67 789 l 59 789 l 59 846 l 69 846 q 121 856 103 846 q 138 888 138 867 q 122 916 138 906 q 73 925 105 925 l 43 925 l 43 1014 l 67 1014 q 195 984 150 1014 q 240 902 240 954 q 195 819 240 849 q 67 789 149 789 m 307 793 l 330 1010 l 477 1010 l 406 793 l 307 793 z "},"Ἅ":{"ha":1221,"x_min":43,"x_max":1201,"o":"m 256 0 l 614 1010 l 841 1010 l 1201 0 l 1003 0 l 825 528 q 770 709 799 611 q 705 938 741 808 l 749 938 q 685 709 713 807 q 630 528 656 610 l 452 0 l 256 0 m 467 245 l 467 392 l 991 392 l 991 245 l 467 245 m 216 789 q 88 819 134 789 q 43 902 43 849 q 88 984 43 954 q 216 1014 134 1014 l 240 1014 l 240 925 l 210 925 q 161 916 178 925 q 144 888 144 906 q 162 856 144 867 q 214 846 180 846 l 224 846 l 224 789 l 216 789 m 316 793 l 338 1010 l 486 1010 l 415 793 l 316 793 z "},"Ἆ":{"ha":1104,"x_min":43,"x_max":1084,"o":"m 140 0 l 497 1010 l 724 1010 l 1084 0 l 886 0 l 709 528 q 653 709 682 611 q 588 938 624 808 l 633 938 q 568 709 597 807 q 513 528 539 610 l 335 0 l 140 0 m 350 245 l 350 392 l 874 392 l 874 245 l 350 245 m 185 797 l 177 797 l 177 853 l 187 853 q 239 864 221 853 q 256 895 256 874 q 240 923 256 913 q 191 932 223 932 l 161 932 l 161 1021 l 185 1021 q 313 991 267 1021 q 358 909 358 962 q 313 827 358 857 q 185 797 267 797 m 350 1077 q 296 1086 321 1077 q 252 1108 272 1095 q 214 1129 231 1120 q 182 1139 197 1139 q 154 1122 163 1139 q 142 1080 144 1105 l 43 1080 q 78 1196 45 1154 q 170 1238 111 1238 q 222 1229 199 1238 q 266 1207 246 1219 q 302 1185 285 1194 q 336 1176 319 1176 q 366 1191 357 1176 q 378 1235 376 1205 l 475 1235 q 439 1119 474 1161 q 350 1077 405 1077 z "},"Ἇ":{"ha":1116,"x_min":43,"x_max":1096,"o":"m 152 0 l 509 1010 l 736 1010 l 1097 0 l 899 0 l 721 528 q 665 709 694 611 q 600 938 636 808 l 645 938 q 580 709 609 807 q 526 528 551 610 l 347 0 l 152 0 m 362 245 l 362 392 l 886 392 l 886 245 l 362 245 m 334 787 q 206 817 252 787 q 161 900 161 847 q 206 982 161 952 q 334 1012 252 1012 l 358 1012 l 358 923 l 328 923 q 279 913 296 923 q 262 886 262 904 q 280 854 262 865 q 332 844 297 844 l 342 844 l 342 787 l 334 787 m 350 1067 q 296 1077 321 1067 q 252 1098 272 1086 q 214 1120 231 1111 q 182 1129 197 1129 q 154 1112 163 1129 q 142 1071 144 1095 l 43 1071 q 78 1186 45 1144 q 170 1228 111 1228 q 222 1219 199 1228 q 266 1197 246 1210 q 302 1176 285 1185 q 336 1166 319 1166 q 366 1181 357 1166 q 378 1225 376 1196 l 475 1225 q 439 1109 474 1152 q 350 1067 405 1067 z "},"Ᾰ":{"ha":984,"x_min":20,"x_max":964,"o":"m 20 0 l 377 1010 l 604 1010 l 964 0 l 766 0 l 589 528 q 533 709 562 611 q 468 938 504 808 l 513 938 q 448 709 477 807 q 393 528 419 610 l 215 0 l 20 0 m 230 245 l 230 392 l 754 392 l 754 245 l 230 245 m 492 1105 q 380 1133 430 1105 q 301 1206 330 1160 q 272 1310 272 1253 l 381 1310 q 412 1236 381 1265 q 492 1207 444 1207 q 572 1236 541 1207 q 603 1310 603 1265 l 713 1310 q 684 1206 713 1253 q 605 1133 654 1160 q 492 1105 555 1105 z "},"Ᾱ":{"ha":984,"x_min":20,"x_max":964,"o":"m 20 0 l 377 1010 l 604 1010 l 964 0 l 766 0 l 589 528 q 533 709 562 611 q 468 938 504 808 l 513 938 q 448 709 477 807 q 393 528 419 610 l 215 0 l 20 0 m 230 245 l 230 392 l 754 392 l 754 245 l 230 245 m 686 1265 l 686 1147 l 299 1147 l 299 1265 l 686 1265 z "},"Ὰ":{"ha":984,"x_min":-28,"x_max":964,"o":"m 20 0 l 377 1010 l 604 1010 l 964 0 l 766 0 l 589 528 q 533 709 562 611 q 468 938 504 808 l 513 938 q 448 709 477 807 q 393 528 419 610 l 215 0 l 20 0 m 230 245 l 230 392 l 754 392 l 754 245 l 230 245 m 155 828 l 47 828 l -28 1036 l 132 1036 l 155 828 z "},"Ⱥ":{"ha":984,"x_min":20,"x_max":964,"o":"m 766 1138 l 340 -129 l 248 -129 l 674 1138 l 766 1138 m 20 0 l 377 1010 l 604 1010 l 964 0 l 766 0 l 589 528 q 533 709 562 611 q 468 938 504 808 l 513 938 q 448 709 477 807 q 393 528 419 610 l 215 0 l 20 0 m 230 245 l 230 392 l 754 392 l 754 245 l 230 245 z "},"Ά":{"ha":1017,"x_min":53,"x_max":997,"o":"m 52 0 l 410 1010 l 637 1010 l 997 0 l 799 0 l 621 528 q 566 709 595 611 q 500 938 536 808 l 545 938 q 480 709 509 807 q 426 528 452 610 l 248 0 l 52 0 m 262 245 l 262 392 l 787 392 l 787 245 l 262 245 m 96 803 l 121 1010 l 281 1010 l 204 803 l 96 803 z "},"А":{"ha":984,"x_min":20,"x_max":964,"o":"m 20 0 l 377 1010 l 604 1010 l 964 0 l 766 0 l 589 528 q 533 709 562 611 q 468 938 504 808 l 513 938 q 448 709 477 807 q 393 528 419 610 l 215 0 l 20 0 m 230 245 l 230 392 l 754 392 l 754 245 l 230 245 z "},"Ӑ":{"ha":984,"x_min":20,"x_max":964,"o":"m 20 0 l 377 1010 l 604 1010 l 964 0 l 766 0 l 589 528 q 533 709 562 611 q 468 938 504 808 l 513 938 q 448 709 477 807 q 393 528 419 610 l 215 0 l 20 0 m 230 245 l 230 392 l 754 392 l 754 245 l 230 245 m 492 1105 q 380 1133 430 1105 q 301 1206 330 1160 q 272 1310 272 1253 l 381 1310 q 412 1236 381 1265 q 492 1207 444 1207 q 572 1236 541 1207 q 603 1310 603 1265 l 713 1310 q 684 1206 713 1253 q 605 1133 654 1160 q 492 1105 555 1105 z "},"Ӓ":{"ha":984,"x_min":20,"x_max":964,"o":"m 20 0 l 377 1010 l 604 1010 l 964 0 l 766 0 l 589 528 q 533 709 562 611 q 468 938 504 808 l 513 938 q 448 709 477 807 q 393 528 419 610 l 215 0 l 20 0 m 230 245 l 230 392 l 754 392 l 754 245 l 230 245 m 640 1120 q 571 1147 600 1120 q 543 1215 543 1175 q 571 1281 543 1254 q 640 1309 600 1309 q 709 1282 682 1309 q 737 1215 737 1255 q 709 1147 737 1175 q 640 1120 682 1120 m 345 1120 q 276 1147 304 1120 q 248 1215 248 1175 q 276 1281 248 1254 q 345 1309 304 1309 q 414 1282 386 1309 q 442 1215 442 1255 q 414 1147 442 1175 q 345 1120 386 1120 z "},"ᾈ":{"ha":1010,"x_min":45,"x_max":990,"o":"m 45 0 l 403 1010 l 630 1010 l 990 0 l 792 0 l 614 528 q 559 709 588 611 q 494 938 530 808 l 538 938 q 474 709 503 807 q 419 528 445 610 l 241 0 l 45 0 m 256 245 l 256 392 l 780 392 l 780 245 l 256 245 m 578 -329 q 484 -294 518 -329 q 450 -199 450 -259 l 450 -80 l 587 -80 l 587 -189 q 595 -222 587 -212 q 625 -233 603 -233 q 641 -232 632 -233 q 659 -231 649 -232 l 659 -326 q 620 -328 641 -327 q 578 -329 598 -329 m 96 800 l 87 800 l 87 857 l 98 857 q 149 867 132 857 q 167 899 167 878 q 150 926 167 917 q 101 936 134 936 l 71 936 l 71 1025 l 96 1025 q 223 995 178 1025 q 269 913 269 965 q 223 830 269 860 q 96 800 178 800 z "},"ᾉ":{"ha":1016,"x_min":52,"x_max":996,"o":"m 52 0 l 409 1010 l 636 1010 l 996 0 l 798 0 l 621 528 q 565 709 594 611 q 500 938 536 808 l 545 938 q 480 709 509 807 q 425 528 451 610 l 247 0 l 52 0 m 262 245 l 262 392 l 786 392 l 786 245 l 262 245 m 584 -329 q 489 -294 524 -329 q 455 -199 455 -259 l 455 -80 l 592 -80 l 592 -189 q 600 -222 592 -212 q 630 -233 608 -233 q 646 -232 637 -233 q 664 -231 654 -232 l 664 -326 q 625 -328 646 -327 q 584 -329 604 -329 m 237 789 q 109 819 155 789 q 64 902 64 849 q 109 984 64 954 q 237 1014 155 1014 l 261 1014 l 261 925 l 231 925 q 182 916 199 925 q 165 888 165 906 q 183 856 165 867 q 235 846 201 846 l 245 846 l 245 789 l 237 789 z "},"ᾊ":{"ha":1198,"x_min":43,"x_max":1179,"o":"m 234 0 l 591 1010 l 819 1010 l 1179 0 l 981 0 l 803 528 q 747 709 777 611 q 682 938 718 808 l 727 938 q 662 709 691 807 q 608 528 633 610 l 429 0 l 234 0 m 444 245 l 444 392 l 968 392 l 968 245 l 444 245 m 767 -329 q 672 -294 707 -329 q 638 -199 638 -259 l 638 -80 l 775 -80 l 775 -189 q 783 -222 775 -212 q 813 -233 791 -233 q 829 -232 821 -233 q 847 -231 838 -232 l 847 -326 q 808 -328 829 -327 q 767 -329 787 -329 m 67 789 l 59 789 l 59 846 l 69 846 q 121 856 103 846 q 138 888 138 867 q 122 916 138 906 q 73 925 105 925 l 43 925 l 43 1014 l 67 1014 q 195 984 150 1014 q 240 902 240 954 q 195 819 240 849 q 67 789 149 789 m 429 793 l 329 793 l 258 1010 l 406 1010 l 429 793 z "},"ᾋ":{"ha":1219,"x_min":43,"x_max":1200,"o":"m 255 0 l 612 1010 l 840 1010 l 1200 0 l 1002 0 l 824 528 q 768 709 798 611 q 703 938 739 808 l 748 938 q 683 709 712 807 q 629 528 654 610 l 450 0 l 255 0 m 465 245 l 465 392 l 989 392 l 989 245 l 465 245 m 788 -329 q 693 -294 728 -329 q 659 -199 659 -259 l 659 -80 l 796 -80 l 796 -189 q 804 -222 796 -212 q 834 -233 812 -233 q 850 -232 842 -233 q 868 -231 859 -232 l 868 -326 q 829 -328 850 -327 q 788 -329 808 -329 m 216 789 q 88 819 134 789 q 43 902 43 849 q 88 984 43 954 q 216 1014 134 1014 l 240 1014 l 240 925 l 210 925 q 161 916 178 925 q 144 888 144 906 q 162 856 144 867 q 214 846 180 846 l 224 846 l 224 789 l 216 789 m 452 793 l 353 793 l 282 1010 l 429 1010 l 452 793 z "},"ᾌ":{"ha":1206,"x_min":43,"x_max":1187,"o":"m 242 0 l 600 1010 l 827 1010 l 1187 0 l 989 0 l 811 528 q 755 709 785 611 q 690 938 726 808 l 735 938 q 670 709 699 807 q 616 528 642 610 l 437 0 l 242 0 m 452 245 l 452 392 l 977 392 l 977 245 l 452 245 m 67 789 l 59 789 l 59 846 l 69 846 q 121 856 103 846 q 138 888 138 867 q 122 916 138 906 q 73 925 105 925 l 43 925 l 43 1014 l 67 1014 q 195 984 150 1014 q 240 902 240 954 q 195 819 240 849 q 67 789 149 789 m 307 793 l 330 1010 l 477 1010 l 406 793 l 307 793 m 775 -329 q 681 -294 715 -329 q 646 -199 646 -259 l 646 -80 l 783 -80 l 783 -189 q 791 -222 783 -212 q 821 -233 800 -233 q 837 -232 829 -233 q 855 -231 846 -232 l 855 -326 q 816 -328 838 -327 q 775 -329 795 -329 z "},"ᾍ":{"ha":1221,"x_min":43,"x_max":1201,"o":"m 256 0 l 614 1010 l 841 1010 l 1201 0 l 1003 0 l 825 528 q 770 709 799 611 q 705 938 741 808 l 749 938 q 685 709 713 807 q 630 528 656 610 l 452 0 l 256 0 m 467 245 l 467 392 l 991 392 l 991 245 l 467 245 m 789 -329 q 695 -294 729 -329 q 661 -199 661 -259 l 661 -80 l 798 -80 l 798 -189 q 806 -222 798 -212 q 836 -233 814 -233 q 851 -232 843 -233 q 869 -231 860 -232 l 869 -326 q 830 -328 852 -327 q 789 -329 809 -329 m 216 789 q 88 819 134 789 q 43 902 43 849 q 88 984 43 954 q 216 1014 134 1014 l 240 1014 l 240 925 l 210 925 q 161 916 178 925 q 144 888 144 906 q 162 856 144 867 q 214 846 180 846 l 224 846 l 224 789 l 216 789 m 316 793 l 338 1010 l 486 1010 l 415 793 l 316 793 z "},"ᾎ":{"ha":1104,"x_min":43,"x_max":1084,"o":"m 140 0 l 497 1010 l 724 1010 l 1084 0 l 886 0 l 709 528 q 653 709 682 611 q 588 938 624 808 l 633 938 q 568 709 597 807 q 513 528 539 610 l 335 0 l 140 0 m 350 245 l 350 392 l 874 392 l 874 245 l 350 245 m 185 797 l 177 797 l 177 853 l 187 853 q 239 864 221 853 q 256 895 256 874 q 240 923 256 913 q 191 932 223 932 l 161 932 l 161 1021 l 185 1021 q 313 991 267 1021 q 358 909 358 962 q 313 827 358 857 q 185 797 267 797 m 350 1077 q 296 1086 321 1077 q 252 1108 272 1095 q 214 1129 231 1120 q 182 1139 197 1139 q 154 1122 163 1139 q 142 1080 144 1105 l 43 1080 q 78 1196 45 1154 q 170 1238 111 1238 q 222 1229 199 1238 q 266 1207 246 1219 q 302 1185 285 1194 q 336 1176 319 1176 q 366 1191 357 1176 q 378 1235 376 1205 l 475 1235 q 439 1119 474 1161 q 350 1077 405 1077 m 672 -329 q 577 -294 612 -329 q 543 -199 543 -259 l 543 -80 l 680 -80 l 680 -189 q 688 -222 680 -212 q 718 -233 696 -233 q 734 -232 726 -233 q 752 -231 743 -232 l 752 -326 q 713 -328 734 -327 q 672 -329 692 -329 z "},"ᾏ":{"ha":1116,"x_min":43,"x_max":1096,"o":"m 152 0 l 509 1010 l 736 1010 l 1097 0 l 899 0 l 721 528 q 665 709 694 611 q 600 938 636 808 l 645 938 q 580 709 609 807 q 526 528 551 610 l 347 0 l 152 0 m 362 245 l 362 392 l 886 392 l 886 245 l 362 245 m 684 -329 q 590 -294 624 -329 q 555 -199 555 -259 l 555 -80 l 692 -80 l 692 -189 q 701 -222 692 -212 q 730 -233 709 -233 q 746 -232 738 -233 q 764 -231 755 -232 l 764 -326 q 725 -328 747 -327 q 684 -329 704 -329 m 334 787 q 206 817 252 787 q 161 900 161 847 q 206 982 161 952 q 334 1012 252 1012 l 358 1012 l 358 923 l 328 923 q 279 913 296 923 q 262 886 262 904 q 280 854 262 865 q 332 844 297 844 l 342 844 l 342 787 l 334 787 m 350 1067 q 296 1077 321 1067 q 252 1098 272 1086 q 214 1120 231 1111 q 182 1129 197 1129 q 154 1112 163 1129 q 142 1071 144 1095 l 43 1071 q 78 1186 45 1144 q 170 1228 111 1228 q 222 1219 199 1228 q 266 1197 246 1210 q 302 1176 285 1185 q 336 1166 319 1166 q 366 1181 357 1166 q 378 1225 376 1196 l 475 1225 q 439 1109 474 1152 q 350 1067 405 1067 z "},"ᾼ":{"ha":984,"x_min":20,"x_max":964,"o":"m 20 0 l 377 1010 l 604 1010 l 964 0 l 766 0 l 589 528 q 533 709 562 611 q 468 938 504 808 l 513 938 q 448 709 477 807 q 393 528 419 610 l 215 0 l 20 0 m 230 245 l 230 392 l 754 392 l 754 245 l 230 245 m 553 -329 q 458 -294 492 -329 q 424 -199 424 -259 l 424 -80 l 561 -80 l 561 -189 q 569 -222 561 -212 q 599 -233 577 -233 q 615 -232 606 -233 q 633 -231 623 -232 l 633 -326 q 594 -328 615 -327 q 553 -329 572 -329 z "},"Λ":{"ha":984,"x_min":20,"x_max":964,"o":"m 20 0 l 377 1010 l 604 1010 l 964 0 l 766 0 l 589 528 q 533 709 562 611 q 468 938 504 808 l 513 938 q 448 709 477 807 q 393 528 419 610 l 215 0 l 20 0 z "},"Æ":{"ha":1397,"x_min":20,"x_max":1337,"o":"m 20 0 l 463 1010 l 1335 1010 l 1335 857 l 833 857 l 833 584 l 1298 584 l 1298 432 l 833 432 l 833 154 l 1337 154 l 1337 0 l 659 0 l 659 873 l 584 873 l 212 0 l 20 0 m 253 259 l 253 398 l 738 398 l 738 259 l 253 259 z "},"Ǣ":{"ha":1397,"x_min":20,"x_max":1337,"o":"m 20 0 l 463 1010 l 1335 1010 l 1335 857 l 833 857 l 833 584 l 1298 584 l 1298 432 l 833 432 l 833 154 l 1337 154 l 1337 0 l 659 0 l 659 873 l 584 873 l 212 0 l 20 0 m 253 259 l 253 398 l 738 398 l 738 259 l 253 259 m 1097 1265 l 1097 1147 l 710 1147 l 710 1265 l 1097 1265 z "},"Ǽ":{"ha":1397,"x_min":20,"x_max":1337,"o":"m 20 0 l 463 1010 l 1335 1010 l 1335 857 l 833 857 l 833 584 l 1298 584 l 1298 432 l 833 432 l 833 154 l 1337 154 l 1337 0 l 659 0 l 659 873 l 584 873 l 212 0 l 20 0 m 253 259 l 253 398 l 738 398 l 738 259 l 253 259 m 835 1103 l 939 1311 l 1111 1311 l 962 1103 l 835 1103 z "},"Ӕ":{"ha":1397,"x_min":20,"x_max":1337,"o":"m 20 0 l 463 1010 l 1335 1010 l 1335 857 l 833 857 l 833 584 l 1298 584 l 1298 432 l 833 432 l 833 154 l 1337 154 l 1337 0 l 659 0 l 659 873 l 584 873 l 212 0 l 20 0 m 253 259 l 253 398 l 738 398 l 738 259 l 253 259 z "},"B":{"ha":903,"x_min":92,"x_max":851,"o":"m 92 0 l 92 1010 l 481 1010 q 663 977 589 1010 q 774 884 736 943 q 812 748 812 825 q 789 644 812 688 q 728 572 767 600 q 636 530 688 543 l 636 524 q 743 490 694 519 q 821 407 791 460 q 851 280 851 355 q 812 135 851 199 q 694 36 772 72 q 500 0 616 0 l 92 0 m 271 149 l 477 149 q 620 186 572 149 q 667 290 667 224 q 645 371 667 336 q 582 426 623 406 q 481 446 540 446 l 271 446 l 271 149 m 271 581 l 466 581 q 553 598 516 581 q 612 648 591 616 q 633 724 633 680 q 590 825 633 787 q 468 863 547 863 l 271 863 l 271 581 z "},"Ḃ":{"ha":903,"x_min":92,"x_max":851,"o":"m 92 0 l 92 1010 l 481 1010 q 663 977 589 1010 q 774 884 736 943 q 812 748 812 825 q 789 644 812 688 q 728 572 767 600 q 636 530 688 543 l 636 524 q 743 490 694 519 q 821 407 791 460 q 851 280 851 355 q 812 135 851 199 q 694 36 772 72 q 500 0 616 0 l 92 0 m 271 149 l 477 149 q 620 186 572 149 q 667 290 667 224 q 645 371 667 336 q 582 426 623 406 q 481 446 540 446 l 271 446 l 271 149 m 271 581 l 466 581 q 553 598 516 581 q 612 648 591 616 q 633 724 633 680 q 590 825 633 787 q 468 863 547 863 l 271 863 l 271 581 m 436 1117 q 363 1145 393 1117 q 334 1214 334 1173 q 363 1283 334 1255 q 436 1311 393 1311 q 509 1283 479 1311 q 538 1214 538 1255 q 509 1145 538 1173 q 436 1117 479 1117 z "},"Ḅ":{"ha":903,"x_min":92,"x_max":851,"o":"m 92 0 l 92 1010 l 481 1010 q 663 977 589 1010 q 774 884 736 943 q 812 748 812 825 q 789 644 812 688 q 728 572 767 600 q 636 530 688 543 l 636 524 q 743 490 694 519 q 821 407 791 460 q 851 280 851 355 q 812 135 851 199 q 694 36 772 72 q 500 0 616 0 l 92 0 m 271 149 l 477 149 q 620 186 572 149 q 667 290 667 224 q 645 371 667 336 q 582 426 623 406 q 481 446 540 446 l 271 446 l 271 149 m 271 581 l 466 581 q 553 598 516 581 q 612 648 591 616 q 633 724 633 680 q 590 825 633 787 q 468 863 547 863 l 271 863 l 271 581 m 439 -307 q 367 -278 396 -307 q 337 -210 337 -250 q 367 -140 337 -168 q 439 -113 396 -113 q 512 -140 483 -113 q 542 -210 542 -168 q 512 -278 542 -250 q 439 -307 482 -307 z "},"Ḇ":{"ha":903,"x_min":92,"x_max":851,"o":"m 92 0 l 92 1010 l 481 1010 q 663 977 589 1010 q 774 884 736 943 q 812 748 812 825 q 789 644 812 688 q 728 572 767 600 q 636 530 688 543 l 636 524 q 743 490 694 519 q 821 407 791 460 q 851 280 851 355 q 812 135 851 199 q 694 36 772 72 q 500 0 616 0 l 92 0 m 271 149 l 477 149 q 620 186 572 149 q 667 290 667 224 q 645 371 667 336 q 582 426 623 406 q 481 446 540 446 l 271 446 l 271 149 m 271 581 l 466 581 q 553 598 516 581 q 612 648 591 616 q 633 724 633 680 q 590 825 633 787 q 468 863 547 863 l 271 863 l 271 581 m 632 -136 l 632 -254 l 245 -254 l 245 -136 l 632 -136 z "},"Ƀ":{"ha":926,"x_min":6,"x_max":875,"o":"m 115 0 l 115 1010 l 505 1010 q 686 977 612 1010 q 798 884 760 943 q 836 748 836 825 q 813 644 836 688 q 751 572 791 600 q 660 530 712 543 l 660 524 q 766 490 718 519 q 845 407 815 460 q 875 280 875 355 q 836 135 875 199 q 718 36 796 72 q 524 0 640 0 l 115 0 m 294 149 l 500 149 q 644 186 596 149 q 691 290 691 224 q 669 371 691 336 q 605 426 647 406 q 505 446 564 446 l 294 446 l 294 149 m 294 581 l 490 581 q 577 598 540 581 q 635 648 614 616 q 656 724 656 680 q 613 825 656 787 q 492 863 570 863 l 294 863 l 294 581 m 6 251 l 6 343 l 460 343 l 460 251 l 6 251 z "},"Ɓ":{"ha":1141,"x_min":29,"x_max":1090,"o":"m 29 718 l 29 800 q 85 957 29 903 q 256 1010 142 1010 l 330 1010 l 330 858 l 274 858 q 215 841 234 858 q 196 787 196 823 l 196 718 l 29 718 m 330 0 l 330 1010 l 720 1010 q 901 977 827 1010 q 1013 884 975 943 q 1050 748 1050 825 q 1028 644 1050 688 q 966 572 1006 600 q 875 530 927 543 l 875 524 q 981 490 932 519 q 1060 407 1030 460 q 1090 280 1090 355 q 1050 135 1090 199 q 933 36 1011 72 q 739 0 855 0 l 330 0 m 509 149 l 715 149 q 859 186 811 149 q 906 290 906 224 q 884 371 906 336 q 820 426 862 406 q 720 446 779 446 l 509 446 l 509 149 m 509 581 l 705 581 q 792 598 755 581 q 850 648 829 616 q 871 724 871 680 q 828 825 871 787 q 707 863 785 863 l 509 863 l 509 581 z "},"В":{"ha":903,"x_min":92,"x_max":851,"o":"m 92 0 l 92 1010 l 481 1010 q 663 977 589 1010 q 774 884 736 943 q 812 748 812 825 q 789 644 812 688 q 728 572 767 600 q 636 530 688 543 l 636 524 q 743 490 694 519 q 821 407 791 460 q 851 280 851 355 q 812 135 851 199 q 694 36 772 72 q 500 0 616 0 l 92 0 m 271 149 l 477 149 q 620 186 572 149 q 667 290 667 224 q 645 371 667 336 q 582 426 623 406 q 481 446 540 446 l 271 446 l 271 149 m 271 581 l 466 581 q 553 598 516 581 q 612 648 591 616 q 633 724 633 680 q 590 825 633 787 q 468 863 547 863 l 271 863 l 271 581 z "},"Β":{"ha":903,"x_min":92,"x_max":851,"o":"m 92 0 l 92 1010 l 481 1010 q 663 977 589 1010 q 774 884 736 943 q 812 748 812 825 q 789 644 812 688 q 728 572 767 600 q 636 530 688 543 l 636 524 q 743 490 694 519 q 821 407 791 460 q 851 280 851 355 q 812 135 851 199 q 694 36 772 72 q 500 0 616 0 l 92 0 m 271 149 l 477 149 q 620 186 572 149 q 667 290 667 224 q 645 371 667 336 q 582 426 623 406 q 481 446 540 446 l 271 446 l 271 149 m 271 581 l 466 581 q 553 598 516 581 q 612 648 591 616 q 633 724 633 680 q 590 825 633 787 q 468 863 547 863 l 271 863 l 271 581 z "},"C":{"ha":1014,"x_min":58,"x_max":960,"o":"m 528 -15 q 286 48 392 -15 q 119 228 180 111 q 58 505 58 345 q 119 782 58 665 q 286 962 180 899 q 528 1025 392 1025 q 686 1001 612 1025 q 816 930 759 977 q 910 818 873 884 q 959 669 947 751 l 777 669 q 746 752 768 715 q 691 813 724 788 q 618 851 659 838 q 530 864 577 864 q 377 821 442 864 q 275 697 311 777 q 239 505 239 616 q 275 313 239 393 q 377 190 311 233 q 530 146 442 146 q 618 159 577 146 q 691 197 659 172 q 745 259 723 222 q 777 341 768 295 l 960 341 q 912 198 948 263 q 820 85 876 133 q 689 11 763 37 q 528 -15 615 -15 z "},"Ƈ":{"ha":1014,"x_min":58,"x_max":1109,"o":"m 789 669 l 789 941 q 845 1090 789 1040 q 1013 1141 901 1141 q 1067 1140 1043 1141 q 1109 1137 1091 1139 l 1109 1000 q 1077 1001 1096 1001 q 1042 1002 1058 1002 q 979 986 998 1002 q 959 937 959 971 l 959 669 l 789 669 m 528 -15 q 286 48 392 -15 q 119 228 180 111 q 58 505 58 345 q 119 782 58 665 q 286 962 180 899 q 528 1025 392 1025 q 686 1001 612 1025 q 816 930 759 977 q 910 818 873 884 q 959 669 947 751 l 777 669 q 746 752 768 715 q 691 813 724 788 q 618 851 659 838 q 530 864 577 864 q 377 821 442 864 q 275 697 311 777 q 239 505 239 616 q 275 313 239 393 q 377 190 311 233 q 530 146 442 146 q 618 159 577 146 q 691 197 659 172 q 745 259 723 222 q 777 341 768 295 l 960 341 q 912 198 948 263 q 820 85 876 133 q 689 11 763 37 q 528 -15 615 -15 z "},"Ç":{"ha":1014,"x_min":58,"x_max":960,"o":"m 528 -15 q 286 48 392 -15 q 119 228 180 111 q 58 505 58 345 q 119 782 58 665 q 286 962 180 899 q 528 1025 392 1025 q 686 1001 612 1025 q 816 930 759 977 q 910 818 873 884 q 959 669 947 751 l 777 669 q 746 752 768 715 q 691 813 724 788 q 618 851 659 838 q 530 864 577 864 q 377 821 442 864 q 275 697 311 777 q 239 505 239 616 q 275 313 239 393 q 377 190 311 233 q 530 146 442 146 q 618 159 577 146 q 691 197 659 172 q 745 259 723 222 q 777 341 768 295 l 960 341 q 912 198 948 263 q 820 85 876 133 q 689 11 763 37 q 528 -15 615 -15 m 437 -284 l 437 -205 l 518 -205 q 566 -196 551 -205 q 581 -163 581 -186 q 566 -132 581 -142 q 518 -121 551 -121 l 461 -121 l 484 30 l 558 30 l 558 -1 l 557 -58 q 653 -87 619 -58 q 686 -168 686 -117 q 646 -256 686 -227 q 526 -284 605 -284 l 437 -284 z "},"Ć":{"ha":1014,"x_min":58,"x_max":960,"o":"m 528 -15 q 286 48 392 -15 q 119 228 180 111 q 58 505 58 345 q 119 782 58 665 q 286 962 180 899 q 528 1025 392 1025 q 686 1001 612 1025 q 816 930 759 977 q 910 818 873 884 q 959 669 947 751 l 777 669 q 746 752 768 715 q 691 813 724 788 q 618 851 659 838 q 530 864 577 864 q 377 821 442 864 q 275 697 311 777 q 239 505 239 616 q 275 313 239 393 q 377 190 311 233 q 530 146 442 146 q 618 159 577 146 q 691 197 659 172 q 745 259 723 222 q 777 341 768 295 l 960 341 q 912 198 948 263 q 820 85 876 133 q 689 11 763 37 q 528 -15 615 -15 m 453 1103 l 557 1311 l 729 1311 l 581 1103 l 453 1103 z "},"Ĉ":{"ha":1014,"x_min":58,"x_max":960,"o":"m 528 -15 q 286 48 392 -15 q 119 228 180 111 q 58 505 58 345 q 119 782 58 665 q 286 962 180 899 q 528 1025 392 1025 q 686 1001 612 1025 q 816 930 759 977 q 910 818 873 884 q 959 669 947 751 l 777 669 q 746 752 768 715 q 691 813 724 788 q 618 851 659 838 q 530 864 577 864 q 377 821 442 864 q 275 697 311 777 q 239 505 239 616 q 275 313 239 393 q 377 190 311 233 q 530 146 442 146 q 618 159 577 146 q 691 197 659 172 q 745 259 723 222 q 777 341 768 295 l 960 341 q 912 198 948 263 q 820 85 876 133 q 689 11 763 37 q 528 -15 615 -15 m 428 1112 l 278 1112 l 278 1115 l 450 1311 l 593 1311 l 766 1115 l 766 1112 l 616 1112 l 522 1228 l 428 1112 z "},"Ċ":{"ha":1014,"x_min":58,"x_max":960,"o":"m 528 -15 q 286 48 392 -15 q 119 228 180 111 q 58 505 58 345 q 119 782 58 665 q 286 962 180 899 q 528 1025 392 1025 q 686 1001 612 1025 q 816 930 759 977 q 910 818 873 884 q 959 669 947 751 l 777 669 q 746 752 768 715 q 691 813 724 788 q 618 851 659 838 q 530 864 577 864 q 377 821 442 864 q 275 697 311 777 q 239 505 239 616 q 275 313 239 393 q 377 190 311 233 q 530 146 442 146 q 618 159 577 146 q 691 197 659 172 q 745 259 723 222 q 777 341 768 295 l 960 341 q 912 198 948 263 q 820 85 876 133 q 689 11 763 37 q 528 -15 615 -15 m 522 1117 q 449 1145 479 1117 q 420 1214 420 1173 q 449 1283 420 1255 q 522 1311 479 1311 q 595 1283 566 1311 q 625 1214 625 1255 q 595 1145 625 1173 q 522 1117 565 1117 z "},"Č":{"ha":1014,"x_min":58,"x_max":960,"o":"m 528 -15 q 286 48 392 -15 q 119 228 180 111 q 58 505 58 345 q 119 782 58 665 q 286 962 180 899 q 528 1025 392 1025 q 686 1001 612 1025 q 816 930 759 977 q 910 818 873 884 q 959 669 947 751 l 777 669 q 746 752 768 715 q 691 813 724 788 q 618 851 659 838 q 530 864 577 864 q 377 821 442 864 q 275 697 311 777 q 239 505 239 616 q 275 313 239 393 q 377 190 311 233 q 530 146 442 146 q 618 159 577 146 q 691 197 659 172 q 745 259 723 222 q 777 341 768 295 l 960 341 q 912 198 948 263 q 820 85 876 133 q 689 11 763 37 q 528 -15 615 -15 m 428 1311 l 522 1196 l 616 1311 l 766 1311 l 766 1308 l 593 1112 l 450 1112 l 278 1308 l 278 1311 l 428 1311 z "},"Ḉ":{"ha":1014,"x_min":58,"x_max":960,"o":"m 528 -15 q 286 48 392 -15 q 119 228 180 111 q 58 505 58 345 q 119 782 58 665 q 286 962 180 899 q 528 1025 392 1025 q 686 1001 612 1025 q 816 930 759 977 q 910 818 873 884 q 959 669 947 751 l 777 669 q 746 752 768 715 q 691 813 724 788 q 618 851 659 838 q 530 864 577 864 q 377 821 442 864 q 275 697 311 777 q 239 505 239 616 q 275 313 239 393 q 377 190 311 233 q 530 146 442 146 q 618 159 577 146 q 691 197 659 172 q 745 259 723 222 q 777 341 768 295 l 960 341 q 912 198 948 263 q 820 85 876 133 q 689 11 763 37 q 528 -15 615 -15 m 437 -284 l 437 -205 l 518 -205 q 566 -196 551 -205 q 581 -163 581 -186 q 566 -132 581 -142 q 518 -121 551 -121 l 461 -121 l 484 30 l 558 30 l 558 -1 l 557 -58 q 653 -87 619 -58 q 686 -168 686 -117 q 646 -256 686 -227 q 526 -284 605 -284 l 437 -284 m 453 1103 l 557 1311 l 729 1311 l 581 1103 l 453 1103 z "},"Ȼ":{"ha":1014,"x_min":58,"x_max":960,"o":"m 235 -129 l 661 1138 l 783 1138 l 358 -129 l 235 -129 m 528 -15 q 286 48 392 -15 q 119 228 180 111 q 58 505 58 345 q 119 782 58 665 q 286 962 180 899 q 528 1025 392 1025 q 686 1001 612 1025 q 816 930 759 977 q 910 818 873 884 q 959 669 947 751 l 777 669 q 746 752 768 715 q 691 813 724 788 q 618 851 659 838 q 530 864 577 864 q 377 821 442 864 q 275 697 311 777 q 239 505 239 616 q 275 313 239 393 q 377 190 311 233 q 530 146 442 146 q 618 159 577 146 q 691 197 659 172 q 745 259 723 222 q 777 341 768 295 l 960 341 q 912 198 948 263 q 820 85 876 133 q 689 11 763 37 q 528 -15 615 -15 z "},"Ɔ":{"ha":1014,"x_min":54,"x_max":956,"o":"m 486 1025 q 728 962 623 1025 q 895 783 834 899 q 956 506 956 666 q 895 228 956 345 q 728 48 834 111 q 486 -15 622 -15 q 328 9 401 -15 q 198 80 255 34 q 104 193 141 127 q 55 342 67 259 l 237 342 q 268 259 246 296 q 322 197 290 222 q 396 159 355 172 q 484 146 437 146 q 637 190 572 146 q 739 314 703 233 q 774 506 774 395 q 739 698 774 618 q 637 821 703 779 q 484 864 572 864 q 396 851 437 864 q 323 813 355 838 q 269 752 291 788 q 237 669 247 716 l 54 669 q 102 812 66 747 q 194 925 138 878 q 325 999 251 973 q 486 1025 399 1025 z "},"Ϲ":{"ha":1014,"x_min":58,"x_max":960,"o":"m 528 -15 q 286 48 392 -15 q 119 228 180 111 q 58 505 58 345 q 119 782 58 665 q 286 962 180 899 q 528 1025 392 1025 q 686 1001 612 1025 q 816 930 759 977 q 910 818 873 884 q 959 669 947 751 l 777 669 q 746 752 768 715 q 691 813 724 788 q 618 851 659 838 q 530 864 577 864 q 377 821 442 864 q 275 697 311 777 q 239 505 239 616 q 275 313 239 393 q 377 190 311 233 q 530 146 442 146 q 618 159 577 146 q 691 197 659 172 q 745 259 723 222 q 777 341 768 295 l 960 341 q 912 198 948 263 q 820 85 876 133 q 689 11 763 37 q 528 -15 615 -15 z "},"D":{"ha":983,"x_min":92,"x_max":926,"o":"m 433 0 l 178 0 l 178 155 l 424 155 q 603 195 532 155 q 710 314 675 235 q 745 507 745 393 q 710 697 745 620 q 605 815 675 775 q 429 855 534 855 l 173 855 l 173 1010 l 441 1010 q 700 950 591 1010 q 867 776 808 889 q 926 507 926 663 q 867 236 926 349 q 698 61 808 122 q 433 0 588 0 m 272 1010 l 272 0 l 92 0 l 92 1010 l 272 1010 z "},"Ɗ":{"ha":1222,"x_min":29,"x_max":1164,"o":"m 29 718 l 29 800 q 85 957 29 903 q 256 1010 142 1010 l 330 1010 l 330 858 l 274 858 q 215 841 234 858 q 196 787 196 823 l 196 718 l 29 718 m 672 0 l 417 0 l 417 155 l 663 155 q 842 195 771 155 q 949 314 913 235 q 984 507 984 393 q 949 697 984 620 q 843 815 913 775 q 668 855 773 855 l 412 855 l 412 1010 l 680 1010 q 939 950 830 1010 q 1106 776 1047 889 q 1164 507 1164 663 q 1105 236 1164 349 q 937 61 1046 122 q 672 0 827 0 m 511 1010 l 511 0 l 330 0 l 330 1010 l 511 1010 z "},"Ď":{"ha":983,"x_min":92,"x_max":926,"o":"m 433 0 l 178 0 l 178 155 l 424 155 q 603 195 532 155 q 710 314 675 235 q 745 507 745 393 q 710 697 745 620 q 605 815 675 775 q 429 855 534 855 l 173 855 l 173 1010 l 441 1010 q 700 950 591 1010 q 867 776 808 889 q 926 507 926 663 q 867 236 926 349 q 698 61 808 122 q 433 0 588 0 m 272 1010 l 272 0 l 92 0 l 92 1010 l 272 1010 m 310 1311 l 404 1196 l 498 1311 l 648 1311 l 648 1308 l 475 1112 l 332 1112 l 160 1308 l 160 1311 l 310 1311 z "},"Ḋ":{"ha":983,"x_min":92,"x_max":926,"o":"m 433 0 l 178 0 l 178 155 l 424 155 q 603 195 532 155 q 710 314 675 235 q 745 507 745 393 q 710 697 745 620 q 605 815 675 775 q 429 855 534 855 l 173 855 l 173 1010 l 441 1010 q 700 950 591 1010 q 867 776 808 889 q 926 507 926 663 q 867 236 926 349 q 698 61 808 122 q 433 0 588 0 m 272 1010 l 272 0 l 92 0 l 92 1010 l 272 1010 m 404 1117 q 331 1145 361 1117 q 302 1214 302 1173 q 331 1283 302 1255 q 404 1311 361 1311 q 477 1283 448 1311 q 507 1214 507 1255 q 477 1145 507 1173 q 404 1117 447 1117 z "},"Ḍ":{"ha":983,"x_min":92,"x_max":926,"o":"m 433 0 l 178 0 l 178 155 l 424 155 q 603 195 532 155 q 710 314 675 235 q 745 507 745 393 q 710 697 745 620 q 605 815 675 775 q 429 855 534 855 l 173 855 l 173 1010 l 441 1010 q 700 950 591 1010 q 867 776 808 889 q 926 507 926 663 q 867 236 926 349 q 698 61 808 122 q 433 0 588 0 m 272 1010 l 272 0 l 92 0 l 92 1010 l 272 1010 m 427 -307 q 354 -278 384 -307 q 325 -210 325 -250 q 354 -140 325 -168 q 427 -113 384 -113 q 500 -140 471 -113 q 530 -210 530 -168 q 500 -278 530 -250 q 427 -307 470 -307 z "},"Ḏ":{"ha":983,"x_min":92,"x_max":926,"o":"m 433 0 l 178 0 l 178 155 l 424 155 q 603 195 532 155 q 710 314 675 235 q 745 507 745 393 q 710 697 745 620 q 605 815 675 775 q 429 855 534 855 l 173 855 l 173 1010 l 441 1010 q 700 950 591 1010 q 867 776 808 889 q 926 507 926 663 q 867 236 926 349 q 698 61 808 122 q 433 0 588 0 m 272 1010 l 272 0 l 92 0 l 92 1010 l 272 1010 m 620 -136 l 620 -254 l 233 -254 l 233 -136 l 620 -136 z "},"Ḑ":{"ha":983,"x_min":92,"x_max":926,"o":"m 433 0 l 178 0 l 178 155 l 424 155 q 603 195 532 155 q 710 314 675 235 q 745 507 745 393 q 710 697 745 620 q 605 815 675 775 q 429 855 534 855 l 173 855 l 173 1010 l 441 1010 q 700 950 591 1010 q 867 776 808 889 q 926 507 926 663 q 867 236 926 349 q 698 61 808 122 q 433 0 588 0 m 272 1010 l 272 0 l 92 0 l 92 1010 l 272 1010 m 286 -328 l 345 -80 l 510 -80 l 411 -328 l 286 -328 z "},"Ḓ":{"ha":983,"x_min":92,"x_max":926,"o":"m 433 0 l 178 0 l 178 155 l 424 155 q 603 195 532 155 q 710 314 675 235 q 745 507 745 393 q 710 697 745 620 q 605 815 675 775 q 429 855 534 855 l 173 855 l 173 1010 l 441 1010 q 700 950 591 1010 q 867 776 808 889 q 926 507 926 663 q 867 236 926 349 q 698 61 808 122 q 433 0 588 0 m 272 1010 l 272 0 l 92 0 l 92 1010 l 272 1010 m 334 -306 l 184 -306 l 184 -303 l 356 -107 l 499 -107 l 673 -303 l 673 -306 l 522 -306 l 428 -190 l 334 -306 z "},"Ɖ":{"ha":1035,"x_min":14,"x_max":977,"o":"m 485 0 l 230 0 l 230 155 l 475 155 q 655 195 583 155 q 762 314 726 235 q 797 507 797 393 q 762 697 797 620 q 656 815 726 775 q 481 855 586 855 l 224 855 l 224 1010 l 492 1010 q 751 950 643 1010 q 919 776 860 889 q 977 507 977 663 q 918 236 977 349 q 749 61 859 122 q 485 0 640 0 m 323 1010 l 323 0 l 143 0 l 143 1010 l 323 1010 m 14 440 l 14 570 l 555 570 l 555 440 l 14 440 z "},"ǲ":{"ha":1725,"x_min":92,"x_max":1652,"o":"m 433 0 l 178 0 l 178 155 l 424 155 q 603 195 532 155 q 710 314 675 235 q 745 507 745 393 q 710 697 745 620 q 605 815 675 775 q 429 855 534 855 l 173 855 l 173 1010 l 441 1010 q 700 950 591 1010 q 867 776 808 889 q 926 507 926 663 q 867 236 926 349 q 698 61 808 122 q 433 0 588 0 m 272 1010 l 272 0 l 92 0 l 92 1010 l 272 1010 m 1056 0 l 1056 116 l 1434 587 l 1434 591 l 1061 591 l 1061 735 l 1644 735 l 1644 611 l 1277 147 l 1277 143 l 1652 143 l 1652 0 l 1056 0 z "},"ǅ":{"ha":1725,"x_min":92,"x_max":1652,"o":"m 433 0 l 178 0 l 178 155 l 424 155 q 603 195 532 155 q 710 314 675 235 q 745 507 745 393 q 710 697 745 620 q 605 815 675 775 q 429 855 534 855 l 173 855 l 173 1010 l 441 1010 q 700 950 591 1010 q 867 776 808 889 q 926 507 926 663 q 867 236 926 349 q 698 61 808 122 q 433 0 588 0 m 272 1010 l 272 0 l 92 0 l 92 1010 l 272 1010 m 1056 0 l 1056 116 l 1434 587 l 1434 591 l 1061 591 l 1061 735 l 1644 735 l 1644 611 l 1277 147 l 1277 143 l 1652 143 l 1652 0 l 1056 0 m 1257 1036 l 1351 920 l 1445 1036 l 1596 1036 l 1596 1033 l 1422 837 l 1279 837 l 1107 1033 l 1107 1036 l 1257 1036 z "},"E":{"ha":836,"x_min":92,"x_max":775,"o":"m 92 0 l 92 1010 l 774 1010 l 774 857 l 272 857 l 272 587 l 736 587 l 736 436 l 272 436 l 272 154 l 775 154 l 775 0 l 92 0 z "},"È":{"ha":836,"x_min":92,"x_max":775,"o":"m 92 0 l 92 1010 l 774 1010 l 774 857 l 272 857 l 272 587 l 736 587 l 736 436 l 272 436 l 272 154 l 775 154 l 775 0 l 92 0 m 374 1103 l 226 1311 l 398 1311 l 501 1103 l 374 1103 z "},"É":{"ha":836,"x_min":92,"x_max":775,"o":"m 92 0 l 92 1010 l 774 1010 l 774 857 l 272 857 l 272 587 l 736 587 l 736 436 l 272 436 l 272 154 l 775 154 l 775 0 l 92 0 m 364 1103 l 468 1311 l 640 1311 l 492 1103 l 364 1103 z "},"Ê":{"ha":836,"x_min":92,"x_max":775,"o":"m 92 0 l 92 1010 l 774 1010 l 774 857 l 272 857 l 272 587 l 736 587 l 736 436 l 272 436 l 272 154 l 775 154 l 775 0 l 92 0 m 339 1112 l 189 1112 l 189 1115 l 361 1311 l 504 1311 l 677 1115 l 677 1112 l 527 1112 l 433 1228 l 339 1112 z "},"Ë":{"ha":836,"x_min":92,"x_max":775,"o":"m 92 0 l 92 1010 l 774 1010 l 774 857 l 272 857 l 272 587 l 736 587 l 736 436 l 272 436 l 272 154 l 775 154 l 775 0 l 92 0 m 581 1120 q 512 1147 541 1120 q 484 1215 484 1175 q 512 1281 484 1254 q 581 1309 541 1309 q 650 1282 623 1309 q 678 1215 678 1255 q 650 1147 678 1175 q 581 1120 623 1120 m 286 1120 q 217 1147 245 1120 q 189 1215 189 1175 q 217 1281 189 1254 q 286 1309 245 1309 q 355 1282 327 1309 q 383 1215 383 1255 q 355 1147 383 1175 q 286 1120 327 1120 z "},"Ē":{"ha":836,"x_min":92,"x_max":775,"o":"m 92 0 l 92 1010 l 774 1010 l 774 857 l 272 857 l 272 587 l 736 587 l 736 436 l 272 436 l 272 154 l 775 154 l 775 0 l 92 0 m 627 1265 l 627 1147 l 240 1147 l 240 1265 l 627 1265 z "},"Ĕ":{"ha":836,"x_min":92,"x_max":775,"o":"m 92 0 l 92 1010 l 774 1010 l 774 857 l 272 857 l 272 587 l 736 587 l 736 436 l 272 436 l 272 154 l 775 154 l 775 0 l 92 0 m 433 1105 q 321 1133 371 1105 q 242 1206 271 1160 q 213 1310 213 1253 l 322 1310 q 353 1236 322 1265 q 433 1207 385 1207 q 513 1236 481 1207 q 544 1310 544 1265 l 654 1310 q 625 1206 654 1253 q 546 1133 595 1160 q 433 1105 496 1105 z "},"Ė":{"ha":836,"x_min":92,"x_max":775,"o":"m 92 0 l 92 1010 l 774 1010 l 774 857 l 272 857 l 272 587 l 736 587 l 736 436 l 272 436 l 272 154 l 775 154 l 775 0 l 92 0 m 433 1117 q 360 1145 390 1117 q 331 1214 331 1173 q 360 1283 331 1255 q 433 1311 390 1311 q 506 1283 477 1311 q 536 1214 536 1255 q 506 1145 536 1173 q 433 1117 476 1117 z "},"Ę":{"ha":836,"x_min":92,"x_max":791,"o":"m 92 0 l 92 1010 l 774 1010 l 774 857 l 272 857 l 272 587 l 736 587 l 736 436 l 272 436 l 272 154 l 775 154 l 775 0 l 92 0 m 678 -288 q 554 -252 601 -288 q 507 -151 507 -217 q 536 -58 507 -101 q 623 24 565 -15 l 775 0 q 696 -63 722 -36 q 671 -122 671 -91 q 685 -157 671 -145 q 726 -170 698 -170 q 750 -168 738 -170 q 773 -162 763 -165 l 792 -273 q 739 -283 770 -279 q 678 -288 709 -288 z "},"Ě":{"ha":836,"x_min":92,"x_max":775,"o":"m 92 0 l 92 1010 l 774 1010 l 774 857 l 272 857 l 272 587 l 736 587 l 736 436 l 272 436 l 272 154 l 775 154 l 775 0 l 92 0 m 339 1311 l 433 1196 l 527 1311 l 677 1311 l 677 1308 l 504 1112 l 361 1112 l 189 1308 l 189 1311 l 339 1311 z "},"Ȅ":{"ha":836,"x_min":92,"x_max":775,"o":"m 92 0 l 92 1010 l 774 1010 l 774 857 l 272 857 l 272 587 l 736 587 l 736 436 l 272 436 l 272 154 l 775 154 l 775 0 l 92 0 m 488 1103 l 368 1311 l 534 1311 l 615 1103 l 488 1103 m 262 1103 l 98 1311 l 271 1311 l 392 1103 l 262 1103 z "},"Ȇ":{"ha":836,"x_min":92,"x_max":775,"o":"m 92 0 l 92 1010 l 774 1010 l 774 857 l 272 857 l 272 587 l 736 587 l 736 436 l 272 436 l 272 154 l 775 154 l 775 0 l 92 0 m 433 1318 q 549 1290 498 1318 q 628 1216 599 1263 q 656 1112 656 1170 l 547 1112 q 514 1186 547 1157 q 433 1215 481 1215 q 352 1186 385 1215 q 319 1112 319 1157 l 210 1112 q 239 1216 210 1170 q 318 1290 268 1263 q 433 1318 369 1318 z "},"Ȩ":{"ha":836,"x_min":92,"x_max":775,"o":"m 92 0 l 92 1010 l 774 1010 l 774 857 l 272 857 l 272 587 l 736 587 l 736 436 l 272 436 l 272 154 l 775 154 l 775 0 l 92 0 m 353 -283 l 353 -205 l 435 -205 q 483 -195 468 -205 q 497 -163 497 -185 q 483 -131 497 -141 q 435 -121 468 -121 l 378 -121 l 401 31 l 475 31 l 475 0 l 473 -57 q 569 -87 536 -58 q 603 -167 603 -116 q 562 -255 603 -227 q 443 -283 522 -283 l 353 -283 z "},"Ḕ":{"ha":836,"x_min":92,"x_max":775,"o":"m 92 0 l 92 1010 l 774 1010 l 774 857 l 272 857 l 272 587 l 736 587 l 736 436 l 272 436 l 272 154 l 775 154 l 775 0 l 92 0 m 627 1253 l 627 1135 l 240 1135 l 240 1253 l 627 1253 m 378 1339 l 239 1529 l 399 1529 l 496 1339 l 378 1339 z "},"Ḗ":{"ha":836,"x_min":92,"x_max":775,"o":"m 92 0 l 92 1010 l 774 1010 l 774 857 l 272 857 l 272 587 l 736 587 l 736 436 l 272 436 l 272 154 l 775 154 l 775 0 l 92 0 m 627 1252 l 627 1134 l 240 1134 l 240 1252 l 627 1252 m 374 1339 l 472 1529 l 632 1529 l 492 1339 l 374 1339 z "},"Ḙ":{"ha":836,"x_min":92,"x_max":775,"o":"m 92 0 l 92 1010 l 774 1010 l 774 857 l 272 857 l 272 587 l 736 587 l 736 436 l 272 436 l 272 154 l 775 154 l 775 0 l 92 0 m 340 -306 l 191 -306 l 191 -303 l 362 -107 l 505 -107 l 679 -303 l 679 -306 l 528 -306 l 434 -190 l 340 -306 z "},"Ḛ":{"ha":836,"x_min":92,"x_max":775,"o":"m 92 0 l 92 1010 l 774 1010 l 774 857 l 272 857 l 272 587 l 736 587 l 736 436 l 272 436 l 272 154 l 775 154 l 775 0 l 92 0 m 527 -290 q 472 -281 497 -290 q 427 -258 448 -271 q 389 -235 406 -245 q 356 -226 371 -226 q 326 -243 336 -226 q 315 -287 316 -261 l 212 -287 q 249 -165 214 -210 q 342 -121 283 -121 q 397 -131 373 -121 q 441 -154 421 -141 q 478 -177 460 -167 q 513 -186 496 -186 q 544 -171 534 -186 q 556 -125 553 -156 l 656 -125 q 619 -247 654 -203 q 527 -290 584 -290 z "},"Ḝ":{"ha":836,"x_min":92,"x_max":775,"o":"m 92 0 l 92 1010 l 774 1010 l 774 857 l 272 857 l 272 587 l 736 587 l 736 436 l 272 436 l 272 154 l 775 154 l 775 0 l 92 0 m 353 -283 l 353 -205 l 435 -205 q 483 -195 468 -205 q 497 -163 497 -185 q 483 -131 497 -141 q 435 -121 468 -121 l 378 -121 l 401 31 l 475 31 l 475 0 l 473 -57 q 569 -87 536 -58 q 603 -167 603 -116 q 562 -255 603 -227 q 443 -283 522 -283 l 353 -283 m 433 1105 q 321 1133 371 1105 q 242 1206 271 1160 q 213 1310 213 1253 l 322 1310 q 353 1236 322 1265 q 433 1207 385 1207 q 513 1236 481 1207 q 544 1310 544 1265 l 654 1310 q 625 1206 654 1253 q 546 1133 595 1160 q 433 1105 496 1105 z "},"Ẹ":{"ha":836,"x_min":92,"x_max":775,"o":"m 92 0 l 92 1010 l 774 1010 l 774 857 l 272 857 l 272 587 l 736 587 l 736 436 l 272 436 l 272 154 l 775 154 l 775 0 l 92 0 m 434 -307 q 361 -278 391 -307 q 332 -210 332 -250 q 361 -140 332 -168 q 434 -113 391 -113 q 507 -140 477 -113 q 536 -210 536 -168 q 507 -278 536 -250 q 434 -307 477 -307 z "},"Ẻ":{"ha":836,"x_min":92,"x_max":775,"o":"m 92 0 l 92 1010 l 774 1010 l 774 857 l 272 857 l 272 587 l 736 587 l 736 436 l 272 436 l 272 154 l 775 154 l 775 0 l 92 0 m 485 1103 l 372 1103 l 422 1195 q 425 1209 428 1204 q 412 1214 422 1214 l 310 1214 l 310 1311 l 414 1311 q 496 1298 465 1311 q 538 1262 526 1284 q 546 1212 551 1240 q 522 1156 541 1184 l 485 1103 z "},"Ẽ":{"ha":836,"x_min":92,"x_max":775,"o":"m 92 0 l 92 1010 l 774 1010 l 774 857 l 272 857 l 272 587 l 736 587 l 736 436 l 272 436 l 272 154 l 775 154 l 775 0 l 92 0 m 526 1129 q 472 1139 496 1129 q 426 1161 447 1148 q 388 1184 406 1175 q 355 1194 370 1194 q 326 1176 336 1194 q 314 1133 315 1158 l 212 1133 q 248 1254 214 1210 q 342 1298 282 1298 q 396 1288 372 1298 q 440 1265 420 1278 q 477 1243 460 1253 q 512 1233 495 1233 q 543 1248 533 1233 q 555 1295 553 1263 l 655 1295 q 618 1173 654 1217 q 526 1129 583 1129 z "},"Ế":{"ha":836,"x_min":92,"x_max":777,"o":"m 92 0 l 92 1010 l 774 1010 l 774 857 l 272 857 l 272 587 l 736 587 l 736 436 l 272 436 l 272 154 l 775 154 l 775 0 l 92 0 m 340 1098 l 191 1098 l 191 1101 l 362 1297 l 505 1297 l 679 1101 l 679 1098 l 528 1098 l 434 1214 l 340 1098 m 527 1331 l 621 1519 l 777 1519 l 641 1331 l 527 1331 z "},"Ề":{"ha":836,"x_min":92,"x_max":775,"o":"m 92 0 l 92 1010 l 774 1010 l 774 857 l 272 857 l 272 587 l 736 587 l 736 436 l 272 436 l 272 154 l 775 154 l 775 0 l 92 0 m 340 1098 l 191 1098 l 191 1101 l 362 1297 l 505 1297 l 679 1101 l 679 1098 l 528 1098 l 434 1214 l 340 1098 m 576 1331 l 441 1519 l 596 1519 l 691 1331 l 576 1331 z "},"Ể":{"ha":836,"x_min":92,"x_max":775,"o":"m 92 0 l 92 1010 l 774 1010 l 774 857 l 272 857 l 272 587 l 736 587 l 736 436 l 272 436 l 272 154 l 775 154 l 775 0 l 92 0 m 340 1098 l 191 1098 l 191 1101 l 362 1297 l 505 1297 l 679 1101 l 679 1098 l 528 1098 l 434 1214 l 340 1098 m 629 1331 l 527 1331 l 570 1409 q 572 1423 574 1419 q 559 1428 569 1428 l 465 1428 l 465 1519 l 560 1519 q 652 1497 623 1519 q 683 1442 682 1476 q 659 1373 684 1409 l 629 1331 z "},"Ễ":{"ha":836,"x_min":92,"x_max":775,"o":"m 92 0 l 92 1010 l 774 1010 l 774 857 l 272 857 l 272 587 l 736 587 l 736 436 l 272 436 l 272 154 l 775 154 l 775 0 l 92 0 m 340 1098 l 191 1098 l 191 1101 l 362 1297 l 505 1297 l 679 1101 l 679 1098 l 528 1098 l 434 1214 l 340 1098 m 527 1349 q 472 1358 497 1349 q 427 1379 448 1367 q 388 1401 406 1392 q 356 1410 371 1410 q 326 1393 336 1410 q 315 1352 316 1376 l 212 1352 q 249 1466 214 1424 q 342 1508 283 1508 q 397 1498 373 1508 q 441 1477 421 1489 q 478 1456 460 1465 q 513 1447 496 1447 q 544 1461 534 1447 q 555 1505 553 1475 l 656 1505 q 619 1390 654 1432 q 527 1349 584 1349 z "},"Ệ":{"ha":836,"x_min":92,"x_max":775,"o":"m 92 0 l 92 1010 l 774 1010 l 774 857 l 272 857 l 272 587 l 736 587 l 736 436 l 272 436 l 272 154 l 775 154 l 775 0 l 92 0 m 339 1112 l 189 1112 l 189 1115 l 361 1311 l 504 1311 l 677 1115 l 677 1112 l 527 1112 l 433 1228 l 339 1112 m 434 -307 q 361 -278 391 -307 q 332 -210 332 -250 q 361 -140 332 -168 q 434 -113 391 -113 q 507 -140 477 -113 q 536 -210 536 -168 q 507 -278 536 -250 q 434 -307 477 -307 z "},"Ɇ":{"ha":836,"x_min":92,"x_max":775,"o":"m 208 -129 l 574 1138 l 686 1138 l 321 -129 l 208 -129 m 92 0 l 92 1010 l 774 1010 l 774 857 l 272 857 l 272 587 l 736 587 l 736 436 l 272 436 l 272 154 l 775 154 l 775 0 l 92 0 z "},"Ǝ":{"ha":836,"x_min":60,"x_max":744,"o":"m 744 1010 l 744 0 l 62 0 l 62 154 l 564 154 l 564 423 l 99 423 l 99 574 l 564 574 l 564 857 l 60 857 l 60 1010 l 744 1010 z "},"Ε":{"ha":836,"x_min":92,"x_max":775,"o":"m 92 0 l 92 1010 l 774 1010 l 774 857 l 272 857 l 272 587 l 736 587 l 736 436 l 272 436 l 272 154 l 775 154 l 775 0 l 92 0 z "},"Έ":{"ha":1048,"x_min":43,"x_max":987,"o":"m 304 0 l 304 1010 l 986 1010 l 986 857 l 484 857 l 484 587 l 949 587 l 949 436 l 484 436 l 484 154 l 987 154 l 987 0 l 304 0 m 42 803 l 66 1010 l 227 1010 l 150 803 l 42 803 z "},"Ἐ":{"ha":1067,"x_min":43,"x_max":1006,"o":"m 323 0 l 323 1010 l 1005 1010 l 1005 857 l 503 857 l 503 587 l 968 587 l 968 436 l 503 436 l 503 154 l 1006 154 l 1006 0 l 323 0 m 67 800 l 59 800 l 59 857 l 69 857 q 121 867 103 857 q 138 899 138 878 q 122 926 138 917 q 73 936 105 936 l 43 936 l 43 1025 l 67 1025 q 195 995 150 1025 q 240 913 240 965 q 195 830 240 860 q 67 800 149 800 z "},"Ἑ":{"ha":1080,"x_min":43,"x_max":1019,"o":"m 336 0 l 336 1010 l 1018 1010 l 1018 857 l 516 857 l 516 587 l 981 587 l 981 436 l 516 436 l 516 154 l 1019 154 l 1019 0 l 336 0 m 216 789 q 88 819 134 789 q 43 902 43 849 q 88 984 43 954 q 216 1014 134 1014 l 240 1014 l 240 925 l 210 925 q 161 916 178 925 q 144 888 144 906 q 162 856 144 867 q 214 846 180 846 l 224 846 l 224 789 l 216 789 z "},"Ἒ":{"ha":1283,"x_min":43,"x_max":1223,"o":"m 540 0 l 540 1010 l 1222 1010 l 1222 857 l 720 857 l 720 587 l 1185 587 l 1185 436 l 720 436 l 720 154 l 1223 154 l 1223 0 l 540 0 m 67 789 l 59 789 l 59 846 l 69 846 q 121 856 103 846 q 138 888 138 867 q 122 916 138 906 q 73 925 105 925 l 43 925 l 43 1014 l 67 1014 q 195 984 150 1014 q 240 902 240 954 q 195 819 240 849 q 67 789 149 789 m 429 793 l 329 793 l 258 1010 l 406 1010 l 429 793 z "},"Ἓ":{"ha":1304,"x_min":43,"x_max":1244,"o":"m 561 0 l 561 1010 l 1243 1010 l 1243 857 l 741 857 l 741 587 l 1206 587 l 1206 436 l 741 436 l 741 154 l 1244 154 l 1244 0 l 561 0 m 216 789 q 88 819 134 789 q 43 902 43 849 q 88 984 43 954 q 216 1014 134 1014 l 240 1014 l 240 925 l 210 925 q 161 916 178 925 q 144 888 144 906 q 162 856 144 867 q 214 846 180 846 l 224 846 l 224 789 l 216 789 m 452 793 l 353 793 l 282 1010 l 429 1010 l 452 793 z "},"Ἔ":{"ha":1292,"x_min":43,"x_max":1231,"o":"m 548 0 l 548 1010 l 1230 1010 l 1230 857 l 728 857 l 728 587 l 1193 587 l 1193 436 l 728 436 l 728 154 l 1232 154 l 1232 0 l 548 0 m 67 789 l 59 789 l 59 846 l 69 846 q 121 856 103 846 q 138 888 138 867 q 122 916 138 906 q 73 925 105 925 l 43 925 l 43 1014 l 67 1014 q 195 984 150 1014 q 240 902 240 954 q 195 819 240 849 q 67 789 149 789 m 307 793 l 330 1010 l 477 1010 l 406 793 l 307 793 z "},"Ἕ":{"ha":1305,"x_min":43,"x_max":1245,"o":"m 562 0 l 562 1010 l 1244 1010 l 1244 857 l 743 857 l 743 587 l 1207 587 l 1207 436 l 743 436 l 743 154 l 1246 154 l 1246 0 l 562 0 m 216 789 q 88 819 134 789 q 43 902 43 849 q 88 984 43 954 q 216 1014 134 1014 l 240 1014 l 240 925 l 210 925 q 161 916 178 925 q 144 888 144 906 q 162 856 144 867 q 214 846 180 846 l 224 846 l 224 789 l 216 789 m 316 793 l 338 1010 l 486 1010 l 415 793 l 316 793 z "},"Ὲ":{"ha":1050,"x_min":-47,"x_max":990,"o":"m 307 0 l 307 1010 l 989 1010 l 989 857 l 487 857 l 487 587 l 951 587 l 951 436 l 487 436 l 487 154 l 990 154 l 990 0 l 307 0 m 136 828 l 28 828 l -47 1036 l 113 1036 l 136 828 z "},"Έ":{"ha":1048,"x_min":43,"x_max":987,"o":"m 304 0 l 304 1010 l 986 1010 l 986 857 l 484 857 l 484 587 l 949 587 l 949 436 l 484 436 l 484 154 l 987 154 l 987 0 l 304 0 m 42 803 l 66 1010 l 227 1010 l 150 803 l 42 803 z "},"Е":{"ha":836,"x_min":92,"x_max":775,"o":"m 92 0 l 92 1010 l 774 1010 l 774 857 l 272 857 l 272 587 l 736 587 l 736 436 l 272 436 l 272 154 l 775 154 l 775 0 l 92 0 z "},"Ѐ":{"ha":836,"x_min":92,"x_max":775,"o":"m 92 0 l 92 1010 l 774 1010 l 774 857 l 272 857 l 272 587 l 736 587 l 736 436 l 272 436 l 272 154 l 775 154 l 775 0 l 92 0 m 374 1103 l 226 1311 l 398 1311 l 501 1103 l 374 1103 z "},"Ё":{"ha":836,"x_min":92,"x_max":775,"o":"m 92 0 l 92 1010 l 774 1010 l 774 857 l 272 857 l 272 587 l 736 587 l 736 436 l 272 436 l 272 154 l 775 154 l 775 0 l 92 0 m 581 1120 q 512 1147 541 1120 q 484 1215 484 1175 q 512 1281 484 1254 q 581 1309 541 1309 q 650 1282 623 1309 q 678 1215 678 1255 q 650 1147 678 1175 q 581 1120 623 1120 m 286 1120 q 217 1147 245 1120 q 189 1215 189 1175 q 217 1281 189 1254 q 286 1309 245 1309 q 355 1282 327 1309 q 383 1215 383 1255 q 355 1147 383 1175 q 286 1120 327 1120 z "},"Ӗ":{"ha":836,"x_min":92,"x_max":775,"o":"m 92 0 l 92 1010 l 774 1010 l 774 857 l 272 857 l 272 587 l 736 587 l 736 436 l 272 436 l 272 154 l 775 154 l 775 0 l 92 0 m 433 1105 q 321 1133 371 1105 q 242 1206 271 1160 q 213 1310 213 1253 l 322 1310 q 353 1236 322 1265 q 433 1207 385 1207 q 513 1236 481 1207 q 544 1310 544 1265 l 654 1310 q 625 1206 654 1253 q 546 1133 595 1160 q 433 1105 496 1105 z "},"F":{"ha":805,"x_min":92,"x_max":757,"o":"m 92 0 l 92 1010 l 757 1010 l 757 857 l 272 857 l 272 568 l 717 568 l 717 417 l 272 417 l 272 0 l 92 0 z "},"Ƒ":{"ha":805,"x_min":-53,"x_max":757,"o":"m -53 -283 l -53 -140 q -21 -141 -40 -140 q 14 -141 -1 -141 q 74 -126 57 -141 q 92 -78 92 -111 l 92 85 l 272 85 l 272 -87 q 215 -237 272 -186 q 44 -288 157 -288 q -11 -287 15 -288 q -53 -283 -36 -286 m 92 0 l 92 1010 l 757 1010 l 757 857 l 272 857 l 272 568 l 717 568 l 717 417 l 272 417 l 272 0 l 92 0 z "},"Ḟ":{"ha":805,"x_min":92,"x_max":757,"o":"m 92 0 l 92 1010 l 757 1010 l 757 857 l 272 857 l 272 568 l 717 568 l 717 417 l 272 417 l 272 0 l 92 0 m 425 1117 q 352 1145 381 1117 q 322 1214 322 1173 q 352 1283 322 1255 q 425 1311 381 1311 q 497 1283 468 1311 q 527 1214 527 1255 q 497 1145 527 1173 q 425 1117 467 1117 z "},"Ⅎ":{"ha":805,"x_min":48,"x_max":713,"o":"m 713 1010 l 713 0 l 48 0 l 48 154 l 533 154 l 533 442 l 87 442 l 87 593 l 533 593 l 533 1010 l 713 1010 z "},"G":{"ha":1029,"x_min":58,"x_max":965,"o":"m 530 -15 q 284 50 390 -15 q 118 231 178 114 q 58 505 58 348 q 119 782 58 665 q 286 962 180 899 q 526 1025 392 1025 q 684 1001 610 1025 q 814 930 757 976 q 909 821 872 884 q 958 681 946 758 l 774 681 q 742 756 764 723 q 689 814 720 790 q 617 851 657 838 q 530 864 577 864 q 377 821 443 864 q 276 697 312 778 q 239 505 239 617 q 276 313 239 393 q 378 190 312 233 q 532 146 444 146 q 666 177 608 146 q 756 262 724 207 q 789 390 789 317 l 833 385 l 555 385 l 555 527 l 965 527 l 965 406 q 909 185 965 279 q 754 38 852 90 q 530 -15 656 -15 z "},"Ǥ":{"ha":1029,"x_min":58,"x_max":1025,"o":"m 530 -15 q 284 50 390 -15 q 118 231 178 114 q 58 505 58 348 q 119 782 58 665 q 286 962 180 899 q 526 1025 392 1025 q 684 1001 610 1025 q 814 930 757 976 q 909 821 872 884 q 958 681 946 758 l 774 681 q 742 756 764 723 q 689 814 720 790 q 617 851 657 838 q 530 864 577 864 q 377 821 443 864 q 276 697 312 778 q 239 505 239 617 q 276 313 239 393 q 378 190 312 233 q 532 146 444 146 q 666 177 608 146 q 756 262 724 207 q 789 390 789 317 l 833 385 l 555 385 l 555 527 l 965 527 l 965 406 q 909 185 965 279 q 754 38 852 90 q 530 -15 656 -15 m 554 233 l 554 317 l 1024 317 l 1024 233 l 554 233 z "},"Ɠ":{"ha":1029,"x_min":58,"x_max":1107,"o":"m 787 681 l 787 939 q 843 1088 787 1038 q 1012 1139 899 1139 q 1066 1138 1042 1139 q 1107 1135 1090 1137 l 1107 998 q 1075 999 1094 999 q 1040 1000 1056 1000 q 977 984 997 1000 q 958 936 958 969 l 958 681 l 787 681 m 530 -15 q 284 50 390 -15 q 118 231 178 114 q 58 505 58 348 q 119 782 58 665 q 286 962 180 899 q 526 1025 392 1025 q 684 1001 610 1025 q 814 930 757 976 q 909 821 872 884 q 958 681 946 758 l 774 681 q 742 756 764 723 q 689 814 720 790 q 617 851 657 838 q 530 864 577 864 q 377 821 443 864 q 276 697 312 778 q 239 505 239 617 q 276 313 239 393 q 378 190 312 233 q 532 146 444 146 q 666 177 608 146 q 756 262 724 207 q 789 390 789 317 l 833 385 l 555 385 l 555 527 l 965 527 l 965 406 q 909 185 965 279 q 754 38 852 90 q 530 -15 656 -15 z "},"Ĝ":{"ha":1029,"x_min":58,"x_max":965,"o":"m 530 -15 q 284 50 390 -15 q 118 231 178 114 q 58 505 58 348 q 119 782 58 665 q 286 962 180 899 q 526 1025 392 1025 q 684 1001 610 1025 q 814 930 757 976 q 909 821 872 884 q 958 681 946 758 l 774 681 q 742 756 764 723 q 689 814 720 790 q 617 851 657 838 q 530 864 577 864 q 377 821 443 864 q 276 697 312 778 q 239 505 239 617 q 276 313 239 393 q 378 190 312 233 q 532 146 444 146 q 666 177 608 146 q 756 262 724 207 q 789 390 789 317 l 833 385 l 555 385 l 555 527 l 965 527 l 965 406 q 909 185 965 279 q 754 38 852 90 q 530 -15 656 -15 m 427 1112 l 277 1112 l 277 1115 l 448 1311 l 591 1311 l 765 1115 l 765 1112 l 614 1112 l 520 1228 l 427 1112 z "},"Ğ":{"ha":1029,"x_min":58,"x_max":965,"o":"m 530 -15 q 284 50 390 -15 q 118 231 178 114 q 58 505 58 348 q 119 782 58 665 q 286 962 180 899 q 526 1025 392 1025 q 684 1001 610 1025 q 814 930 757 976 q 909 821 872 884 q 958 681 946 758 l 774 681 q 742 756 764 723 q 689 814 720 790 q 617 851 657 838 q 530 864 577 864 q 377 821 443 864 q 276 697 312 778 q 239 505 239 617 q 276 313 239 393 q 378 190 312 233 q 532 146 444 146 q 666 177 608 146 q 756 262 724 207 q 789 390 789 317 l 833 385 l 555 385 l 555 527 l 965 527 l 965 406 q 909 185 965 279 q 754 38 852 90 q 530 -15 656 -15 m 521 1105 q 409 1133 458 1105 q 330 1206 359 1160 q 300 1310 300 1253 l 410 1310 q 441 1236 410 1265 q 521 1207 472 1207 q 600 1236 569 1207 q 631 1310 631 1265 l 741 1310 q 712 1206 741 1253 q 633 1133 683 1160 q 521 1105 583 1105 z "},"Ġ":{"ha":1029,"x_min":58,"x_max":965,"o":"m 530 -15 q 284 50 390 -15 q 118 231 178 114 q 58 505 58 348 q 119 782 58 665 q 286 962 180 899 q 526 1025 392 1025 q 684 1001 610 1025 q 814 930 757 976 q 909 821 872 884 q 958 681 946 758 l 774 681 q 742 756 764 723 q 689 814 720 790 q 617 851 657 838 q 530 864 577 864 q 377 821 443 864 q 276 697 312 778 q 239 505 239 617 q 276 313 239 393 q 378 190 312 233 q 532 146 444 146 q 666 177 608 146 q 756 262 724 207 q 789 390 789 317 l 833 385 l 555 385 l 555 527 l 965 527 l 965 406 q 909 185 965 279 q 754 38 852 90 q 530 -15 656 -15 m 520 1117 q 447 1145 477 1117 q 418 1214 418 1173 q 447 1283 418 1255 q 520 1311 477 1311 q 593 1283 564 1311 q 623 1214 623 1255 q 593 1145 623 1173 q 520 1117 563 1117 z "},"Ģ":{"ha":1029,"x_min":58,"x_max":965,"o":"m 530 -15 q 284 50 390 -15 q 118 231 178 114 q 58 505 58 348 q 119 782 58 665 q 286 962 180 899 q 526 1025 392 1025 q 684 1001 610 1025 q 814 930 757 976 q 909 821 872 884 q 958 681 946 758 l 774 681 q 742 756 764 723 q 689 814 720 790 q 617 851 657 838 q 530 864 577 864 q 377 821 443 864 q 276 697 312 778 q 239 505 239 617 q 276 313 239 393 q 378 190 312 233 q 532 146 444 146 q 666 177 608 146 q 756 262 724 207 q 789 390 789 317 l 833 385 l 555 385 l 555 527 l 965 527 l 965 406 q 909 185 965 279 q 754 38 852 90 q 530 -15 656 -15 m 378 -328 l 436 -80 l 602 -80 l 503 -328 l 378 -328 z "},"Ǧ":{"ha":1029,"x_min":58,"x_max":965,"o":"m 530 -15 q 284 50 390 -15 q 118 231 178 114 q 58 505 58 348 q 119 782 58 665 q 286 962 180 899 q 526 1025 392 1025 q 684 1001 610 1025 q 814 930 757 976 q 909 821 872 884 q 958 681 946 758 l 774 681 q 742 756 764 723 q 689 814 720 790 q 617 851 657 838 q 530 864 577 864 q 377 821 443 864 q 276 697 312 778 q 239 505 239 617 q 276 313 239 393 q 378 190 312 233 q 532 146 444 146 q 666 177 608 146 q 756 262 724 207 q 789 390 789 317 l 833 385 l 555 385 l 555 527 l 965 527 l 965 406 q 909 185 965 279 q 754 38 852 90 q 530 -15 656 -15 m 427 1311 l 520 1196 l 614 1311 l 765 1311 l 765 1308 l 591 1112 l 448 1112 l 277 1308 l 277 1311 l 427 1311 z "},"Ǵ":{"ha":1029,"x_min":58,"x_max":965,"o":"m 530 -15 q 284 50 390 -15 q 118 231 178 114 q 58 505 58 348 q 119 782 58 665 q 286 962 180 899 q 526 1025 392 1025 q 684 1001 610 1025 q 814 930 757 976 q 909 821 872 884 q 958 681 946 758 l 774 681 q 742 756 764 723 q 689 814 720 790 q 617 851 657 838 q 530 864 577 864 q 377 821 443 864 q 276 697 312 778 q 239 505 239 617 q 276 313 239 393 q 378 190 312 233 q 532 146 444 146 q 666 177 608 146 q 756 262 724 207 q 789 390 789 317 l 833 385 l 555 385 l 555 527 l 965 527 l 965 406 q 909 185 965 279 q 754 38 852 90 q 530 -15 656 -15 m 452 1103 l 555 1311 l 728 1311 l 579 1103 l 452 1103 z "},"Ḡ":{"ha":1029,"x_min":58,"x_max":965,"o":"m 530 -15 q 284 50 390 -15 q 118 231 178 114 q 58 505 58 348 q 119 782 58 665 q 286 962 180 899 q 526 1025 392 1025 q 684 1001 610 1025 q 814 930 757 976 q 909 821 872 884 q 958 681 946 758 l 774 681 q 742 756 764 723 q 689 814 720 790 q 617 851 657 838 q 530 864 577 864 q 377 821 443 864 q 276 697 312 778 q 239 505 239 617 q 276 313 239 393 q 378 190 312 233 q 532 146 444 146 q 666 177 608 146 q 756 262 724 207 q 789 390 789 317 l 833 385 l 555 385 l 555 527 l 965 527 l 965 406 q 909 185 965 279 q 754 38 852 90 q 530 -15 656 -15 m 713 1265 l 713 1147 l 327 1147 l 327 1265 l 713 1265 z "},"":{"ha":1043,"x_min":58,"x_max":966,"o":"m 513 -15 q 281 50 384 -15 q 118 231 178 114 q 58 505 58 348 q 119 782 58 665 q 286 962 180 899 q 526 1025 392 1025 q 684 1001 610 1025 q 814 930 757 976 q 909 821 872 884 q 958 681 946 758 l 774 681 q 742 756 764 723 q 689 814 720 790 q 617 851 657 838 q 530 864 577 864 q 377 821 443 864 q 276 697 312 778 q 239 505 239 617 q 276 313 239 393 q 378 190 312 233 q 533 146 444 146 q 668 177 610 146 q 758 265 726 208 q 791 400 791 322 l 856 400 l 856 322 q 834 193 856 254 q 770 85 812 132 q 663 12 727 38 q 513 -15 599 -15 m 841 0 l 815 221 l 815 385 l 554 385 l 554 527 l 966 527 l 966 0 l 841 0 z "},"":{"ha":1043,"x_min":58,"x_max":1025,"o":"m 513 -15 q 281 50 384 -15 q 118 231 178 114 q 58 505 58 348 q 119 782 58 665 q 286 962 180 899 q 526 1025 392 1025 q 684 1001 610 1025 q 814 930 757 976 q 909 821 872 884 q 958 681 946 758 l 774 681 q 742 756 764 723 q 689 814 720 790 q 617 851 657 838 q 530 864 577 864 q 377 821 443 864 q 276 697 312 778 q 239 505 239 617 q 276 313 239 393 q 378 190 312 233 q 533 146 444 146 q 668 177 610 146 q 758 265 726 208 q 791 400 791 322 l 856 400 l 856 322 q 834 193 856 254 q 770 85 812 132 q 663 12 727 38 q 513 -15 599 -15 m 841 0 l 815 221 l 815 385 l 554 385 l 554 527 l 966 527 l 966 0 l 841 0 m 554 233 l 554 317 l 1024 317 l 1024 233 l 554 233 z "},"":{"ha":1043,"x_min":58,"x_max":1107,"o":"m 787 681 l 787 939 q 843 1088 787 1038 q 1012 1139 899 1139 q 1066 1138 1042 1139 q 1107 1135 1090 1137 l 1107 998 q 1075 999 1094 999 q 1040 1000 1056 1000 q 977 984 997 1000 q 958 936 958 969 l 958 681 l 787 681 m 513 -15 q 281 50 384 -15 q 118 231 178 114 q 58 505 58 348 q 119 782 58 665 q 286 962 180 899 q 526 1025 392 1025 q 684 1001 610 1025 q 814 930 757 976 q 909 821 872 884 q 958 681 946 758 l 774 681 q 742 756 764 723 q 689 814 720 790 q 617 851 657 838 q 530 864 577 864 q 377 821 443 864 q 276 697 312 778 q 239 505 239 617 q 276 313 239 393 q 378 190 312 233 q 533 146 444 146 q 668 177 610 146 q 758 265 726 208 q 791 400 791 322 l 856 400 l 856 322 q 834 193 856 254 q 770 85 812 132 q 663 12 727 38 q 513 -15 599 -15 m 841 0 l 815 221 l 815 385 l 554 385 l 554 527 l 966 527 l 966 0 l 841 0 z "},"":{"ha":1043,"x_min":58,"x_max":966,"o":"m 513 -15 q 281 50 384 -15 q 118 231 178 114 q 58 505 58 348 q 119 782 58 665 q 286 962 180 899 q 526 1025 392 1025 q 684 1001 610 1025 q 814 930 757 976 q 909 821 872 884 q 958 681 946 758 l 774 681 q 742 756 764 723 q 689 814 720 790 q 617 851 657 838 q 530 864 577 864 q 377 821 443 864 q 276 697 312 778 q 239 505 239 617 q 276 313 239 393 q 378 190 312 233 q 533 146 444 146 q 668 177 610 146 q 758 265 726 208 q 791 400 791 322 l 856 400 l 856 322 q 834 193 856 254 q 770 85 812 132 q 663 12 727 38 q 513 -15 599 -15 m 841 0 l 815 221 l 815 385 l 554 385 l 554 527 l 966 527 l 966 0 l 841 0 m 427 1112 l 277 1112 l 277 1115 l 448 1311 l 591 1311 l 765 1115 l 765 1112 l 614 1112 l 520 1228 l 427 1112 z "},"":{"ha":1043,"x_min":58,"x_max":966,"o":"m 513 -15 q 281 50 384 -15 q 118 231 178 114 q 58 505 58 348 q 119 782 58 665 q 286 962 180 899 q 526 1025 392 1025 q 684 1001 610 1025 q 814 930 757 976 q 909 821 872 884 q 958 681 946 758 l 774 681 q 742 756 764 723 q 689 814 720 790 q 617 851 657 838 q 530 864 577 864 q 377 821 443 864 q 276 697 312 778 q 239 505 239 617 q 276 313 239 393 q 378 190 312 233 q 533 146 444 146 q 668 177 610 146 q 758 265 726 208 q 791 400 791 322 l 856 400 l 856 322 q 834 193 856 254 q 770 85 812 132 q 663 12 727 38 q 513 -15 599 -15 m 841 0 l 815 221 l 815 385 l 554 385 l 554 527 l 966 527 l 966 0 l 841 0 m 522 1105 q 409 1133 459 1105 q 330 1206 359 1160 q 301 1310 301 1253 l 410 1310 q 441 1236 410 1265 q 522 1207 473 1207 q 601 1236 570 1207 q 632 1310 632 1265 l 742 1310 q 713 1206 742 1253 q 634 1133 684 1160 q 522 1105 584 1105 z "},"":{"ha":1043,"x_min":58,"x_max":966,"o":"m 513 -15 q 281 50 384 -15 q 118 231 178 114 q 58 505 58 348 q 119 782 58 665 q 286 962 180 899 q 526 1025 392 1025 q 684 1001 610 1025 q 814 930 757 976 q 909 821 872 884 q 958 681 946 758 l 774 681 q 742 756 764 723 q 689 814 720 790 q 617 851 657 838 q 530 864 577 864 q 377 821 443 864 q 276 697 312 778 q 239 505 239 617 q 276 313 239 393 q 378 190 312 233 q 533 146 444 146 q 668 177 610 146 q 758 265 726 208 q 791 400 791 322 l 856 400 l 856 322 q 834 193 856 254 q 770 85 812 132 q 663 12 727 38 q 513 -15 599 -15 m 841 0 l 815 221 l 815 385 l 554 385 l 554 527 l 966 527 l 966 0 l 841 0 m 521 1117 q 448 1145 477 1117 q 418 1214 418 1173 q 448 1283 418 1255 q 521 1311 477 1311 q 594 1283 564 1311 q 623 1214 623 1255 q 593 1145 623 1173 q 521 1117 564 1117 z "},"":{"ha":1043,"x_min":58,"x_max":966,"o":"m 513 -15 q 281 50 384 -15 q 118 231 178 114 q 58 505 58 348 q 119 782 58 665 q 286 962 180 899 q 526 1025 392 1025 q 684 1001 610 1025 q 814 930 757 976 q 909 821 872 884 q 958 681 946 758 l 774 681 q 742 756 764 723 q 689 814 720 790 q 617 851 657 838 q 530 864 577 864 q 377 821 443 864 q 276 697 312 778 q 239 505 239 617 q 276 313 239 393 q 378 190 312 233 q 533 146 444 146 q 668 177 610 146 q 758 265 726 208 q 791 400 791 322 l 856 400 l 856 322 q 834 193 856 254 q 770 85 812 132 q 663 12 727 38 q 513 -15 599 -15 m 841 0 l 815 221 l 815 385 l 554 385 l 554 527 l 966 527 l 966 0 l 841 0 m 378 -328 l 437 -80 l 602 -80 l 503 -328 l 378 -328 z "},"":{"ha":1043,"x_min":58,"x_max":966,"o":"m 513 -15 q 281 50 384 -15 q 118 231 178 114 q 58 505 58 348 q 119 782 58 665 q 286 962 180 899 q 526 1025 392 1025 q 684 1001 610 1025 q 814 930 757 976 q 909 821 872 884 q 958 681 946 758 l 774 681 q 742 756 764 723 q 689 814 720 790 q 617 851 657 838 q 530 864 577 864 q 377 821 443 864 q 276 697 312 778 q 239 505 239 617 q 276 313 239 393 q 378 190 312 233 q 533 146 444 146 q 668 177 610 146 q 758 265 726 208 q 791 400 791 322 l 856 400 l 856 322 q 834 193 856 254 q 770 85 812 132 q 663 12 727 38 q 513 -15 599 -15 m 841 0 l 815 221 l 815 385 l 554 385 l 554 527 l 966 527 l 966 0 l 841 0 m 427 1311 l 520 1196 l 614 1311 l 765 1311 l 765 1308 l 591 1112 l 448 1112 l 277 1308 l 277 1311 l 427 1311 z "},"":{"ha":1043,"x_min":58,"x_max":966,"o":"m 513 -15 q 281 50 384 -15 q 118 231 178 114 q 58 505 58 348 q 119 782 58 665 q 286 962 180 899 q 526 1025 392 1025 q 684 1001 610 1025 q 814 930 757 976 q 909 821 872 884 q 958 681 946 758 l 774 681 q 742 756 764 723 q 689 814 720 790 q 617 851 657 838 q 530 864 577 864 q 377 821 443 864 q 276 697 312 778 q 239 505 239 617 q 276 313 239 393 q 378 190 312 233 q 533 146 444 146 q 668 177 610 146 q 758 265 726 208 q 791 400 791 322 l 856 400 l 856 322 q 834 193 856 254 q 770 85 812 132 q 663 12 727 38 q 513 -15 599 -15 m 841 0 l 815 221 l 815 385 l 554 385 l 554 527 l 966 527 l 966 0 l 841 0 m 452 1103 l 555 1311 l 728 1311 l 579 1103 l 452 1103 z "},"":{"ha":1043,"x_min":58,"x_max":966,"o":"m 513 -15 q 281 50 384 -15 q 118 231 178 114 q 58 505 58 348 q 119 782 58 665 q 286 962 180 899 q 526 1025 392 1025 q 684 1001 610 1025 q 814 930 757 976 q 909 821 872 884 q 958 681 946 758 l 774 681 q 742 756 764 723 q 689 814 720 790 q 617 851 657 838 q 530 864 577 864 q 377 821 443 864 q 276 697 312 778 q 239 505 239 617 q 276 313 239 393 q 378 190 312 233 q 533 146 444 146 q 668 177 610 146 q 758 265 726 208 q 791 400 791 322 l 856 400 l 856 322 q 834 193 856 254 q 770 85 812 132 q 663 12 727 38 q 513 -15 599 -15 m 841 0 l 815 221 l 815 385 l 554 385 l 554 527 l 966 527 l 966 0 l 841 0 m 714 1265 l 714 1147 l 328 1147 l 328 1265 l 714 1265 z "},"H":{"ha":1012,"x_min":92,"x_max":920,"o":"m 92 0 l 92 1010 l 272 1010 l 272 593 l 740 593 l 740 1010 l 920 1010 l 920 0 l 740 0 l 740 439 l 272 439 l 272 0 l 92 0 z "},"Ḩ":{"ha":1012,"x_min":92,"x_max":920,"o":"m 92 0 l 92 1010 l 272 1010 l 272 593 l 740 593 l 740 1010 l 920 1010 l 920 0 l 740 0 l 740 439 l 272 439 l 272 0 l 92 0 m 99 -283 l 99 -205 l 180 -205 q 228 -195 214 -205 q 243 -163 243 -185 q 228 -131 243 -141 q 180 -121 214 -121 l 123 -121 l 146 31 l 220 31 l 220 0 l 219 -57 q 315 -87 281 -58 q 349 -167 349 -116 q 308 -255 349 -227 q 189 -283 267 -283 l 99 -283 z "},"Ĥ":{"ha":1012,"x_min":92,"x_max":920,"o":"m 92 0 l 92 1010 l 272 1010 l 272 593 l 740 593 l 740 1010 l 920 1010 l 920 0 l 740 0 l 740 439 l 272 439 l 272 0 l 92 0 m 412 1112 l 262 1112 l 262 1115 l 433 1311 l 576 1311 l 750 1115 l 750 1112 l 600 1112 l 505 1228 l 412 1112 z "},"Ȟ":{"ha":1012,"x_min":92,"x_max":920,"o":"m 92 0 l 92 1010 l 272 1010 l 272 593 l 740 593 l 740 1010 l 920 1010 l 920 0 l 740 0 l 740 439 l 272 439 l 272 0 l 92 0 m 412 1311 l 505 1196 l 600 1311 l 750 1311 l 750 1308 l 576 1112 l 433 1112 l 262 1308 l 262 1311 l 412 1311 z "},"Ḣ":{"ha":1012,"x_min":92,"x_max":920,"o":"m 92 0 l 92 1010 l 272 1010 l 272 593 l 740 593 l 740 1010 l 920 1010 l 920 0 l 740 0 l 740 439 l 272 439 l 272 0 l 92 0 m 506 1117 q 433 1145 463 1117 q 404 1214 404 1173 q 433 1283 404 1255 q 506 1311 463 1311 q 579 1283 549 1311 q 608 1214 608 1255 q 578 1145 608 1173 q 506 1117 549 1117 z "},"Ḥ":{"ha":1012,"x_min":92,"x_max":920,"o":"m 92 0 l 92 1010 l 272 1010 l 272 593 l 740 593 l 740 1010 l 920 1010 l 920 0 l 740 0 l 740 439 l 272 439 l 272 0 l 92 0 m 506 -307 q 433 -278 463 -307 q 404 -210 404 -250 q 433 -140 404 -168 q 506 -113 463 -113 q 579 -140 549 -113 q 608 -210 608 -168 q 578 -278 608 -250 q 506 -307 549 -307 z "},"Ḧ":{"ha":1012,"x_min":92,"x_max":920,"o":"m 92 0 l 92 1010 l 272 1010 l 272 593 l 740 593 l 740 1010 l 920 1010 l 920 0 l 740 0 l 740 439 l 272 439 l 272 0 l 92 0 m 653 1120 q 584 1147 612 1120 q 556 1215 556 1175 q 584 1281 556 1254 q 653 1309 612 1309 q 722 1282 694 1309 q 750 1215 750 1255 q 722 1147 750 1175 q 653 1120 694 1120 m 357 1120 q 289 1147 317 1120 q 260 1215 260 1175 q 289 1281 260 1254 q 357 1309 317 1309 q 427 1282 399 1309 q 455 1215 455 1255 q 427 1147 455 1175 q 357 1120 399 1120 z "},"Ḫ":{"ha":1012,"x_min":92,"x_max":920,"o":"m 92 0 l 92 1010 l 272 1010 l 272 593 l 740 593 l 740 1010 l 920 1010 l 920 0 l 740 0 l 740 439 l 272 439 l 272 0 l 92 0 m 507 -311 q 394 -283 444 -311 q 315 -210 345 -256 q 286 -106 286 -163 l 395 -106 q 427 -180 395 -151 q 507 -209 458 -209 q 586 -180 555 -209 q 617 -106 617 -151 l 727 -106 q 698 -210 727 -163 q 619 -283 669 -256 q 507 -311 569 -311 z "},"Ħ":{"ha":1079,"x_min":43,"x_max":1037,"o":"m 1037 820 l 1037 707 l 43 707 l 43 820 l 1037 820 m 125 0 l 125 1010 l 305 1010 l 305 593 l 773 593 l 773 1010 l 954 1010 l 954 0 l 773 0 l 773 439 l 305 439 l 305 0 l 125 0 z "},"Ӈ":{"ha":1012,"x_min":92,"x_max":920,"o":"m 595 -283 l 595 -140 q 627 -141 608 -140 q 661 -141 646 -141 q 723 -126 705 -141 q 740 -78 740 -111 l 740 85 l 920 85 l 920 -87 q 863 -237 920 -186 q 692 -288 805 -288 q 637 -287 663 -288 q 595 -283 612 -286 m 92 0 l 92 1010 l 272 1010 l 272 593 l 740 593 l 740 1010 l 920 1010 l 920 0 l 740 0 l 740 439 l 272 439 l 272 0 l 92 0 z "},"Ң":{"ha":1042,"x_min":92,"x_max":1023,"o":"m 92 0 l 92 1010 l 272 1010 l 272 593 l 740 593 l 740 1010 l 920 1010 l 920 0 l 740 0 l 740 439 l 272 439 l 272 0 l 92 0 m 846 -217 l 846 0 l 791 0 l 791 151 l 1023 151 l 1017 -217 l 846 -217 z "},"Ӊ":{"ha":1012,"x_min":92,"x_max":1050,"o":"m 92 0 l 92 1010 l 272 1010 l 272 593 l 740 593 l 740 1010 l 920 1010 l 920 0 l 740 0 l 740 439 l 272 439 l 272 0 l 92 0 m 774 -217 l 841 0 l 790 0 l 790 144 l 1050 144 l 939 -217 l 774 -217 z "},"Ҥ":{"ha":1362,"x_min":92,"x_max":1320,"o":"m 1320 1010 l 1320 861 l 885 861 l 746 1010 l 1320 1010 m 92 0 l 92 1010 l 272 1010 l 272 593 l 740 593 l 740 1010 l 920 1010 l 920 0 l 740 0 l 740 439 l 272 439 l 272 0 l 92 0 z "},"Ƕ":{"ha":1506,"x_min":92,"x_max":1422,"o":"m 1082 -14 q 902 24 979 -14 q 782 134 825 62 q 740 304 740 205 l 740 434 l 272 434 l 272 0 l 92 0 l 92 1010 l 272 1010 l 272 589 l 740 589 l 740 1010 l 920 1010 l 920 310 q 939 215 920 254 q 995 156 958 176 q 1083 136 1031 136 q 1171 156 1135 136 q 1227 215 1208 176 q 1246 310 1246 254 l 1246 729 l 1422 729 l 1422 304 q 1380 134 1422 205 q 1261 24 1337 62 q 1082 -14 1185 -14 z "},"Η":{"ha":1012,"x_min":92,"x_max":920,"o":"m 92 0 l 92 1010 l 272 1010 l 272 593 l 740 593 l 740 1010 l 920 1010 l 920 0 l 740 0 l 740 439 l 272 439 l 272 0 l 92 0 z "},"Ή":{"ha":1224,"x_min":43,"x_max":1133,"o":"m 304 0 l 304 1010 l 484 1010 l 484 593 l 952 593 l 952 1010 l 1133 1010 l 1133 0 l 952 0 l 952 439 l 484 439 l 484 0 l 304 0 m 42 803 l 66 1010 l 227 1010 l 150 803 l 42 803 z "},"Ἠ":{"ha":1243,"x_min":43,"x_max":1151,"o":"m 323 0 l 323 1010 l 503 1010 l 503 593 l 971 593 l 971 1010 l 1152 1010 l 1152 0 l 971 0 l 971 439 l 503 439 l 503 0 l 323 0 m 67 800 l 59 800 l 59 857 l 69 857 q 121 867 103 857 q 138 899 138 878 q 122 926 138 917 q 73 936 105 936 l 43 936 l 43 1025 l 67 1025 q 195 995 150 1025 q 240 913 240 965 q 195 830 240 860 q 67 800 149 800 z "},"Ἡ":{"ha":1256,"x_min":43,"x_max":1164,"o":"m 336 0 l 336 1010 l 516 1010 l 516 593 l 984 593 l 984 1010 l 1164 1010 l 1164 0 l 984 0 l 984 439 l 516 439 l 516 0 l 336 0 m 216 789 q 88 819 134 789 q 43 902 43 849 q 88 984 43 954 q 216 1014 134 1014 l 240 1014 l 240 925 l 210 925 q 161 916 178 925 q 144 888 144 906 q 162 856 144 867 q 214 846 180 846 l 224 846 l 224 789 l 216 789 z "},"Ἢ":{"ha":1460,"x_min":43,"x_max":1368,"o":"m 540 0 l 540 1010 l 720 1010 l 720 593 l 1188 593 l 1188 1010 l 1369 1010 l 1369 0 l 1188 0 l 1188 439 l 720 439 l 720 0 l 540 0 m 67 789 l 59 789 l 59 846 l 69 846 q 121 856 103 846 q 138 888 138 867 q 122 916 138 906 q 73 925 105 925 l 43 925 l 43 1014 l 67 1014 q 195 984 150 1014 q 240 902 240 954 q 195 819 240 849 q 67 789 149 789 m 429 793 l 329 793 l 258 1010 l 406 1010 l 429 793 z "},"Ἣ":{"ha":1480,"x_min":43,"x_max":1389,"o":"m 561 0 l 561 1010 l 741 1010 l 741 593 l 1209 593 l 1209 1010 l 1390 1010 l 1390 0 l 1209 0 l 1209 439 l 741 439 l 741 0 l 561 0 m 216 789 q 88 819 134 789 q 43 902 43 849 q 88 984 43 954 q 216 1014 134 1014 l 240 1014 l 240 925 l 210 925 q 161 916 178 925 q 144 888 144 906 q 162 856 144 867 q 214 846 180 846 l 224 846 l 224 789 l 216 789 m 452 793 l 353 793 l 282 1010 l 429 1010 l 452 793 z "},"Ἤ":{"ha":1468,"x_min":43,"x_max":1377,"o":"m 548 0 l 548 1010 l 728 1010 l 728 593 l 1196 593 l 1196 1010 l 1377 1010 l 1377 0 l 1196 0 l 1196 439 l 728 439 l 728 0 l 548 0 m 67 789 l 59 789 l 59 846 l 69 846 q 121 856 103 846 q 138 888 138 867 q 122 916 138 906 q 73 925 105 925 l 43 925 l 43 1014 l 67 1014 q 195 984 150 1014 q 240 902 240 954 q 195 819 240 849 q 67 789 149 789 m 307 793 l 330 1010 l 477 1010 l 406 793 l 307 793 z "},"Ἥ":{"ha":1482,"x_min":43,"x_max":1390,"o":"m 562 0 l 562 1010 l 743 1010 l 743 593 l 1211 593 l 1211 1010 l 1391 1010 l 1391 0 l 1211 0 l 1211 439 l 743 439 l 743 0 l 562 0 m 216 789 q 88 819 134 789 q 43 902 43 849 q 88 984 43 954 q 216 1014 134 1014 l 240 1014 l 240 925 l 210 925 q 161 916 178 925 q 144 888 144 906 q 162 856 144 867 q 214 846 180 846 l 224 846 l 224 789 l 216 789 m 316 793 l 338 1010 l 486 1010 l 415 793 l 316 793 z "},"Ἦ":{"ha":1365,"x_min":43,"x_max":1274,"o":"m 445 0 l 445 1010 l 625 1010 l 625 593 l 1093 593 l 1093 1010 l 1274 1010 l 1274 0 l 1093 0 l 1093 439 l 625 439 l 625 0 l 445 0 m 185 797 l 177 797 l 177 853 l 187 853 q 239 864 221 853 q 256 895 256 874 q 240 923 256 913 q 191 932 223 932 l 161 932 l 161 1021 l 185 1021 q 313 991 267 1021 q 358 909 358 962 q 313 827 358 857 q 185 797 267 797 m 350 1077 q 296 1086 321 1077 q 252 1108 272 1095 q 214 1129 231 1120 q 182 1139 197 1139 q 154 1122 163 1139 q 142 1080 144 1105 l 43 1080 q 78 1196 45 1154 q 170 1238 111 1238 q 222 1229 199 1238 q 266 1207 246 1219 q 302 1185 285 1194 q 336 1176 319 1176 q 366 1191 357 1176 q 378 1235 376 1205 l 475 1235 q 439 1119 474 1161 q 350 1077 405 1077 z "},"Ἧ":{"ha":1377,"x_min":43,"x_max":1286,"o":"m 457 0 l 457 1010 l 637 1010 l 637 593 l 1105 593 l 1105 1010 l 1286 1010 l 1286 0 l 1105 0 l 1105 439 l 637 439 l 637 0 l 457 0 m 334 787 q 206 817 252 787 q 161 900 161 847 q 206 982 161 952 q 334 1012 252 1012 l 358 1012 l 358 923 l 328 923 q 279 913 296 923 q 262 886 262 904 q 280 854 262 865 q 332 844 297 844 l 342 844 l 342 787 l 334 787 m 350 1067 q 296 1077 321 1067 q 252 1098 272 1086 q 214 1120 231 1111 q 182 1129 197 1129 q 154 1112 163 1129 q 142 1071 144 1095 l 43 1071 q 78 1186 45 1144 q 170 1228 111 1228 q 222 1219 199 1228 q 266 1197 246 1210 q 302 1176 285 1185 q 336 1166 319 1166 q 366 1181 357 1166 q 378 1225 376 1196 l 475 1225 q 439 1109 474 1152 q 350 1067 405 1067 z "},"Ὴ":{"ha":1227,"x_min":-47,"x_max":1135,"o":"m 307 0 l 307 1010 l 487 1010 l 487 593 l 955 593 l 955 1010 l 1135 1010 l 1135 0 l 955 0 l 955 439 l 487 439 l 487 0 l 307 0 m 136 828 l 28 828 l -47 1036 l 113 1036 l 136 828 z "},"Ή":{"ha":1224,"x_min":43,"x_max":1133,"o":"m 304 0 l 304 1010 l 484 1010 l 484 593 l 952 593 l 952 1010 l 1133 1010 l 1133 0 l 952 0 l 952 439 l 484 439 l 484 0 l 304 0 m 42 803 l 66 1010 l 227 1010 l 150 803 l 42 803 z "},"Н":{"ha":1012,"x_min":92,"x_max":920,"o":"m 92 0 l 92 1010 l 272 1010 l 272 593 l 740 593 l 740 1010 l 920 1010 l 920 0 l 740 0 l 740 439 l 272 439 l 272 0 l 92 0 z "},"ᾘ":{"ha":1243,"x_min":43,"x_max":1151,"o":"m 323 0 l 323 1010 l 503 1010 l 503 593 l 971 593 l 971 1010 l 1152 1010 l 1152 0 l 971 0 l 971 439 l 503 439 l 503 0 l 323 0 m 797 -329 q 702 -294 736 -329 q 668 -199 668 -259 l 668 -80 l 805 -80 l 805 -189 q 813 -222 805 -212 q 843 -233 821 -233 q 859 -232 850 -233 q 877 -231 867 -232 l 877 -326 q 838 -328 859 -327 q 797 -329 817 -329 m 67 800 l 59 800 l 59 857 l 69 857 q 121 867 103 857 q 138 899 138 878 q 122 926 138 917 q 73 936 105 936 l 43 936 l 43 1025 l 67 1025 q 195 995 150 1025 q 240 913 240 965 q 195 830 240 860 q 67 800 149 800 z "},"ᾙ":{"ha":1256,"x_min":43,"x_max":1164,"o":"m 336 0 l 336 1010 l 516 1010 l 516 593 l 984 593 l 984 1010 l 1164 1010 l 1164 0 l 984 0 l 984 439 l 516 439 l 516 0 l 336 0 m 810 -329 q 715 -294 749 -329 q 681 -199 681 -259 l 681 -80 l 818 -80 l 818 -189 q 826 -222 818 -212 q 856 -233 834 -233 q 872 -232 863 -233 q 890 -231 880 -232 l 890 -326 q 851 -328 872 -327 q 810 -329 829 -329 m 216 789 q 88 819 134 789 q 43 902 43 849 q 88 984 43 954 q 216 1014 134 1014 l 240 1014 l 240 925 l 210 925 q 161 916 178 925 q 144 888 144 906 q 162 856 144 867 q 214 846 180 846 l 224 846 l 224 789 l 216 789 z "},"ᾚ":{"ha":1460,"x_min":43,"x_max":1368,"o":"m 540 0 l 540 1010 l 720 1010 l 720 593 l 1188 593 l 1188 1010 l 1369 1010 l 1369 0 l 1188 0 l 1188 439 l 720 439 l 720 0 l 540 0 m 1014 -329 q 919 -294 954 -329 q 885 -199 885 -259 l 885 -80 l 1022 -80 l 1022 -189 q 1030 -222 1022 -212 q 1060 -233 1038 -233 q 1076 -232 1067 -233 q 1094 -231 1084 -232 l 1094 -326 q 1055 -328 1076 -327 q 1014 -329 1034 -329 m 67 789 l 59 789 l 59 846 l 69 846 q 121 856 103 846 q 138 888 138 867 q 122 916 138 906 q 73 925 105 925 l 43 925 l 43 1014 l 67 1014 q 195 984 150 1014 q 240 902 240 954 q 195 819 240 849 q 67 789 149 789 m 429 793 l 329 793 l 258 1010 l 406 1010 l 429 793 z "},"ᾛ":{"ha":1480,"x_min":43,"x_max":1389,"o":"m 561 0 l 561 1010 l 741 1010 l 741 593 l 1209 593 l 1209 1010 l 1390 1010 l 1390 0 l 1209 0 l 1209 439 l 741 439 l 741 0 l 561 0 m 1035 -329 q 940 -294 975 -329 q 906 -199 906 -259 l 906 -80 l 1043 -80 l 1043 -189 q 1051 -222 1043 -212 q 1081 -233 1059 -233 q 1097 -232 1088 -233 q 1115 -231 1105 -232 l 1115 -326 q 1076 -328 1097 -327 q 1035 -329 1055 -329 m 216 789 q 88 819 134 789 q 43 902 43 849 q 88 984 43 954 q 216 1014 134 1014 l 240 1014 l 240 925 l 210 925 q 161 916 178 925 q 144 888 144 906 q 162 856 144 867 q 214 846 180 846 l 224 846 l 224 789 l 216 789 m 452 793 l 353 793 l 282 1010 l 429 1010 l 452 793 z "},"ᾜ":{"ha":1468,"x_min":43,"x_max":1377,"o":"m 548 0 l 548 1010 l 728 1010 l 728 593 l 1196 593 l 1196 1010 l 1377 1010 l 1377 0 l 1196 0 l 1196 439 l 728 439 l 728 0 l 548 0 m 1022 -329 q 927 -294 962 -329 q 893 -199 893 -259 l 893 -80 l 1030 -80 l 1030 -189 q 1038 -222 1030 -212 q 1068 -233 1046 -233 q 1084 -232 1076 -233 q 1102 -231 1093 -232 l 1102 -326 q 1063 -328 1084 -327 q 1022 -329 1042 -329 m 67 789 l 59 789 l 59 846 l 69 846 q 121 856 103 846 q 138 888 138 867 q 122 916 138 906 q 73 925 105 925 l 43 925 l 43 1014 l 67 1014 q 195 984 150 1014 q 240 902 240 954 q 195 819 240 849 q 67 789 149 789 m 307 793 l 330 1010 l 477 1010 l 406 793 l 307 793 z "},"ᾝ":{"ha":1482,"x_min":43,"x_max":1390,"o":"m 562 0 l 562 1010 l 743 1010 l 743 593 l 1211 593 l 1211 1010 l 1391 1010 l 1391 0 l 1211 0 l 1211 439 l 743 439 l 743 0 l 562 0 m 1036 -329 q 942 -294 976 -329 q 907 -199 907 -259 l 907 -80 l 1044 -80 l 1044 -189 q 1053 -222 1044 -212 q 1082 -233 1061 -233 q 1098 -232 1090 -233 q 1116 -231 1107 -232 l 1116 -326 q 1077 -328 1099 -327 q 1036 -329 1056 -329 m 216 789 q 88 819 134 789 q 43 902 43 849 q 88 984 43 954 q 216 1014 134 1014 l 240 1014 l 240 925 l 210 925 q 161 916 178 925 q 144 888 144 906 q 162 856 144 867 q 214 846 180 846 l 224 846 l 224 789 l 216 789 m 316 793 l 338 1010 l 486 1010 l 415 793 l 316 793 z "},"ᾞ":{"ha":1365,"x_min":43,"x_max":1274,"o":"m 445 0 l 445 1010 l 625 1010 l 625 593 l 1093 593 l 1093 1010 l 1274 1010 l 1274 0 l 1093 0 l 1093 439 l 625 439 l 625 0 l 445 0 m 920 -329 q 825 -294 859 -329 q 791 -199 791 -259 l 791 -80 l 928 -80 l 928 -189 q 936 -222 928 -212 q 966 -233 944 -233 q 982 -232 973 -233 q 1000 -231 990 -232 l 1000 -326 q 961 -328 982 -327 q 920 -329 939 -329 m 185 797 l 177 797 l 177 853 l 187 853 q 239 864 221 853 q 256 895 256 874 q 240 923 256 913 q 191 932 223 932 l 161 932 l 161 1021 l 185 1021 q 313 991 267 1021 q 358 909 358 962 q 313 827 358 857 q 185 797 267 797 m 350 1077 q 296 1086 321 1077 q 252 1108 272 1095 q 214 1129 231 1120 q 182 1139 197 1139 q 154 1122 163 1139 q 142 1080 144 1105 l 43 1080 q 78 1196 45 1154 q 170 1238 111 1238 q 222 1229 199 1238 q 266 1207 246 1219 q 302 1185 285 1194 q 336 1176 319 1176 q 366 1191 357 1176 q 378 1235 376 1205 l 475 1235 q 439 1119 474 1161 q 350 1077 405 1077 z "},"ᾟ":{"ha":1377,"x_min":43,"x_max":1286,"o":"m 457 0 l 457 1010 l 637 1010 l 637 593 l 1105 593 l 1105 1010 l 1286 1010 l 1286 0 l 1105 0 l 1105 439 l 637 439 l 637 0 l 457 0 m 932 -329 q 837 -294 871 -329 q 803 -199 803 -259 l 803 -80 l 940 -80 l 940 -189 q 948 -222 940 -212 q 978 -233 956 -233 q 994 -232 985 -233 q 1012 -231 1002 -232 l 1012 -326 q 973 -328 994 -327 q 932 -329 951 -329 m 334 787 q 206 817 252 787 q 161 900 161 847 q 206 982 161 952 q 334 1012 252 1012 l 358 1012 l 358 923 l 328 923 q 279 913 296 923 q 262 886 262 904 q 280 854 262 865 q 332 844 297 844 l 342 844 l 342 787 l 334 787 m 350 1067 q 296 1077 321 1067 q 252 1098 272 1086 q 214 1120 231 1111 q 182 1129 197 1129 q 154 1112 163 1129 q 142 1071 144 1095 l 43 1071 q 78 1186 45 1144 q 170 1228 111 1228 q 222 1219 199 1228 q 266 1197 246 1210 q 302 1176 285 1185 q 336 1166 319 1166 q 366 1181 357 1166 q 378 1225 376 1196 l 475 1225 q 439 1109 474 1152 q 350 1067 405 1067 z "},"ῌ":{"ha":1012,"x_min":92,"x_max":920,"o":"m 92 0 l 92 1010 l 272 1010 l 272 593 l 740 593 l 740 1010 l 920 1010 l 920 0 l 740 0 l 740 439 l 272 439 l 272 0 l 92 0 m 566 -329 q 471 -294 505 -329 q 437 -199 437 -259 l 437 -80 l 574 -80 l 574 -189 q 582 -222 574 -212 q 612 -233 590 -233 q 628 -232 619 -233 q 646 -231 636 -232 l 646 -326 q 607 -328 628 -327 q 566 -329 585 -329 z "},"I":{"ha":363,"x_min":92,"x_max":272,"o":"m 272 1010 l 272 0 l 92 0 l 92 1010 l 272 1010 z "},"":{"ha":727,"x_min":92,"x_max":635,"o":"m 272 1010 l 272 0 l 92 0 l 92 1010 l 272 1010 m 635 1010 l 635 0 l 455 0 l 455 1010 l 635 1010 z "},"Ï":{"ha":363,"x_min":-63,"x_max":427,"o":"m 272 1010 l 272 0 l 92 0 l 92 1010 l 272 1010 m 330 1120 q 261 1147 289 1120 q 233 1215 233 1175 q 261 1281 233 1254 q 330 1309 289 1309 q 399 1282 371 1309 q 427 1215 427 1255 q 399 1147 427 1175 q 330 1120 371 1120 m 34 1120 q -35 1147 -7 1120 q -63 1215 -63 1175 q -35 1281 -63 1254 q 34 1309 -7 1309 q 103 1282 75 1309 q 132 1215 132 1255 q 103 1147 132 1175 q 34 1120 75 1120 z "},"Ḯ":{"ha":363,"x_min":-66,"x_max":424,"o":"m 272 1010 l 272 0 l 92 0 l 92 1010 l 272 1010 m 327 1099 q 258 1127 286 1099 q 230 1194 230 1155 q 258 1262 230 1234 q 327 1289 286 1289 q 396 1262 368 1289 q 424 1194 424 1234 q 396 1127 424 1154 q 327 1099 368 1099 m 31 1099 q -38 1127 -9 1099 q -66 1194 -66 1155 q -38 1262 -66 1234 q 31 1289 -9 1289 q 101 1262 73 1289 q 129 1194 129 1234 q 101 1127 129 1154 q 31 1099 73 1099 m 121 1341 l 218 1529 l 379 1529 l 239 1341 l 121 1341 z "},"Ɨ":{"ha":475,"x_min":11,"x_max":464,"o":"m 328 1010 l 328 0 l 147 0 l 147 1010 l 328 1010 m 11 479 l 11 572 l 465 572 l 465 479 l 11 479 z "},"Ḭ":{"ha":363,"x_min":-39,"x_max":404,"o":"m 272 1010 l 272 0 l 92 0 l 92 1010 l 272 1010 m 275 -290 q 221 -281 245 -290 q 175 -258 196 -271 q 137 -235 155 -245 q 104 -226 119 -226 q 75 -243 85 -226 q 63 -287 64 -261 l -39 -287 q -3 -165 -37 -210 q 91 -121 31 -121 q 145 -131 121 -121 q 189 -154 170 -141 q 227 -177 209 -167 q 261 -186 244 -186 q 292 -171 282 -186 q 304 -125 302 -156 l 404 -125 q 368 -247 403 -203 q 275 -290 332 -290 z "},"Ì":{"ha":363,"x_min":-26,"x_max":272,"o":"m 272 1010 l 272 0 l 92 0 l 92 1010 l 272 1010 m 123 1103 l -26 1311 l 146 1311 l 250 1103 l 123 1103 z "},"Í":{"ha":363,"x_min":92,"x_max":389,"o":"m 272 1010 l 272 0 l 92 0 l 92 1010 l 272 1010 m 113 1103 l 217 1311 l 389 1311 l 241 1103 l 113 1103 z "},"Î":{"ha":363,"x_min":-62,"x_max":426,"o":"m 272 1010 l 272 0 l 92 0 l 92 1010 l 272 1010 m 88 1112 l -62 1112 l -62 1115 l 110 1311 l 253 1311 l 427 1115 l 427 1112 l 276 1112 l 182 1228 l 88 1112 z "},"Ĩ":{"ha":363,"x_min":-39,"x_max":404,"o":"m 272 1010 l 272 0 l 92 0 l 92 1010 l 272 1010 m 275 1129 q 220 1139 245 1129 q 175 1161 195 1148 q 136 1184 154 1175 q 104 1194 119 1194 q 74 1176 84 1194 q 62 1133 64 1158 l -40 1133 q -4 1254 -38 1210 q 90 1298 31 1298 q 145 1288 121 1298 q 189 1265 169 1278 q 226 1243 208 1253 q 260 1233 243 1233 q 291 1248 281 1233 q 304 1295 301 1263 l 404 1295 q 367 1173 402 1217 q 275 1129 332 1129 z "},"Ī":{"ha":363,"x_min":-11,"x_max":375,"o":"m 272 1010 l 272 0 l 92 0 l 92 1010 l 272 1010 m 375 1265 l 375 1147 l -12 1147 l -12 1265 l 375 1265 z "},"Ĭ":{"ha":363,"x_min":-38,"x_max":402,"o":"m 272 1010 l 272 0 l 92 0 l 92 1010 l 272 1010 m 182 1105 q 70 1133 120 1105 q -9 1206 20 1160 q -38 1310 -38 1253 l 71 1310 q 102 1236 71 1265 q 182 1207 134 1207 q 262 1236 231 1207 q 293 1310 293 1265 l 403 1310 q 374 1206 403 1253 q 295 1133 345 1160 q 182 1105 245 1105 z "},"Į":{"ha":363,"x_min":5,"x_max":289,"o":"m 272 1010 l 272 0 l 92 0 l 92 1010 l 272 1010 m 175 -288 q 51 -252 98 -288 q 4 -151 4 -217 q 33 -58 4 -101 q 120 24 62 -15 l 272 0 q 193 -63 218 -36 q 168 -122 168 -91 q 181 -157 168 -145 q 222 -170 195 -170 q 247 -168 235 -170 q 270 -162 260 -165 l 289 -273 q 236 -283 267 -279 q 175 -288 205 -288 z "},"İ":{"ha":363,"x_min":79,"x_max":285,"o":"m 272 1010 l 272 0 l 92 0 l 92 1010 l 272 1010 m 182 1117 q 109 1145 138 1117 q 79 1214 79 1173 q 109 1283 79 1255 q 182 1311 138 1311 q 255 1283 225 1311 q 284 1214 284 1255 q 254 1145 284 1173 q 182 1117 224 1117 z "},"Ǐ":{"ha":363,"x_min":-62,"x_max":426,"o":"m 272 1010 l 272 0 l 92 0 l 92 1010 l 272 1010 m 88 1311 l 182 1196 l 276 1311 l 427 1311 l 427 1308 l 253 1112 l 110 1112 l -62 1308 l -62 1311 l 88 1311 z "},"Ȉ":{"ha":363,"x_min":-154,"x_max":364,"o":"m 272 1010 l 272 0 l 92 0 l 92 1010 l 272 1010 m 237 1103 l 117 1311 l 282 1311 l 363 1103 l 237 1103 m 10 1103 l -154 1311 l 19 1311 l 140 1103 l 10 1103 z "},"Ȋ":{"ha":363,"x_min":-41,"x_max":406,"o":"m 272 1010 l 272 0 l 92 0 l 92 1010 l 272 1010 m 182 1318 q 297 1290 247 1318 q 376 1216 347 1263 q 405 1112 405 1170 l 296 1112 q 263 1186 296 1157 q 182 1215 230 1215 q 100 1186 133 1215 q 68 1112 68 1157 l -41 1112 q -13 1216 -41 1170 q 67 1290 16 1263 q 182 1318 117 1318 z "},"Ỉ":{"ha":363,"x_min":58,"x_max":299,"o":"m 272 1010 l 272 0 l 92 0 l 92 1010 l 272 1010 m 233 1103 l 121 1103 l 171 1195 q 174 1209 176 1204 q 160 1214 171 1214 l 58 1214 l 58 1311 l 162 1311 q 244 1298 214 1311 q 287 1262 275 1284 q 294 1212 299 1240 q 270 1156 290 1184 l 233 1103 z "},"Ị":{"ha":363,"x_min":79,"x_max":285,"o":"m 272 1010 l 272 0 l 92 0 l 92 1010 l 272 1010 m 182 -307 q 110 -278 139 -307 q 80 -210 80 -250 q 110 -140 80 -168 q 182 -113 139 -113 q 255 -140 226 -113 q 285 -210 285 -168 q 255 -278 285 -250 q 182 -307 225 -307 z "},"Ɩ":{"ha":383,"x_min":83,"x_max":368,"o":"m 295 -2 q 134 43 184 -2 q 83 185 83 88 l 83 1010 l 257 1010 l 257 207 q 271 152 257 168 q 319 136 284 136 q 339 137 330 136 q 355 139 348 138 l 368 4 q 335 0 353 2 q 295 -2 316 -2 z "},"Ι":{"ha":363,"x_min":92,"x_max":272,"o":"m 272 1010 l 272 0 l 92 0 l 92 1010 l 272 1010 z "},"Ί":{"ha":576,"x_min":43,"x_max":484,"o":"m 484 1010 l 484 0 l 304 0 l 304 1010 l 484 1010 m 42 803 l 66 1010 l 227 1010 l 150 803 l 42 803 z "},"Ϊ":{"ha":363,"x_min":-63,"x_max":427,"o":"m 272 1010 l 272 0 l 92 0 l 92 1010 l 272 1010 m 330 1120 q 261 1147 289 1120 q 233 1215 233 1175 q 261 1281 233 1254 q 330 1309 289 1309 q 399 1282 371 1309 q 427 1215 427 1255 q 399 1147 427 1175 q 330 1120 371 1120 m 34 1120 q -35 1147 -7 1120 q -63 1215 -63 1175 q -35 1281 -63 1254 q 34 1309 -7 1309 q 103 1282 75 1309 q 132 1215 132 1255 q 103 1147 132 1175 q 34 1120 75 1120 z "},"Ἰ":{"ha":595,"x_min":43,"x_max":503,"o":"m 503 1010 l 503 0 l 323 0 l 323 1010 l 503 1010 m 67 800 l 59 800 l 59 857 l 69 857 q 121 867 103 857 q 138 899 138 878 q 122 926 138 917 q 73 936 105 936 l 43 936 l 43 1025 l 67 1025 q 195 995 150 1025 q 240 913 240 965 q 195 830 240 860 q 67 800 149 800 z "},"Ἱ":{"ha":608,"x_min":43,"x_max":516,"o":"m 516 1010 l 516 0 l 336 0 l 336 1010 l 516 1010 m 216 789 q 88 819 134 789 q 43 902 43 849 q 88 984 43 954 q 216 1014 134 1014 l 240 1014 l 240 925 l 210 925 q 161 916 178 925 q 144 888 144 906 q 162 856 144 867 q 214 846 180 846 l 224 846 l 224 789 l 216 789 z "},"Ἲ":{"ha":812,"x_min":43,"x_max":720,"o":"m 720 1010 l 720 0 l 540 0 l 540 1010 l 720 1010 m 67 789 l 59 789 l 59 846 l 69 846 q 121 856 103 846 q 138 888 138 867 q 122 916 138 906 q 73 925 105 925 l 43 925 l 43 1014 l 67 1014 q 195 984 150 1014 q 240 902 240 954 q 195 819 240 849 q 67 789 149 789 m 429 793 l 329 793 l 258 1010 l 406 1010 l 429 793 z "},"Ἳ":{"ha":833,"x_min":43,"x_max":741,"o":"m 741 1010 l 741 0 l 561 0 l 561 1010 l 741 1010 m 216 789 q 88 819 134 789 q 43 902 43 849 q 88 984 43 954 q 216 1014 134 1014 l 240 1014 l 240 925 l 210 925 q 161 916 178 925 q 144 888 144 906 q 162 856 144 867 q 214 846 180 846 l 224 846 l 224 789 l 216 789 m 452 793 l 353 793 l 282 1010 l 429 1010 l 452 793 z "},"Ἴ":{"ha":820,"x_min":43,"x_max":728,"o":"m 728 1010 l 728 0 l 548 0 l 548 1010 l 728 1010 m 67 789 l 59 789 l 59 846 l 69 846 q 121 856 103 846 q 138 888 138 867 q 122 916 138 906 q 73 925 105 925 l 43 925 l 43 1014 l 67 1014 q 195 984 150 1014 q 240 902 240 954 q 195 819 240 849 q 67 789 149 789 m 307 793 l 330 1010 l 477 1010 l 406 793 l 307 793 z "},"Ἵ":{"ha":834,"x_min":43,"x_max":743,"o":"m 743 1010 l 743 0 l 562 0 l 562 1010 l 743 1010 m 216 789 q 88 819 134 789 q 43 902 43 849 q 88 984 43 954 q 216 1014 134 1014 l 240 1014 l 240 925 l 210 925 q 161 916 178 925 q 144 888 144 906 q 162 856 144 867 q 214 846 180 846 l 224 846 l 224 789 l 216 789 m 316 793 l 338 1010 l 486 1010 l 415 793 l 316 793 z "},"Ἶ":{"ha":717,"x_min":43,"x_max":625,"o":"m 625 1010 l 625 0 l 445 0 l 445 1010 l 625 1010 m 185 797 l 177 797 l 177 853 l 187 853 q 239 864 221 853 q 256 895 256 874 q 240 923 256 913 q 191 932 223 932 l 161 932 l 161 1021 l 185 1021 q 313 991 267 1021 q 358 909 358 962 q 313 827 358 857 q 185 797 267 797 m 350 1077 q 296 1086 321 1077 q 252 1108 272 1095 q 214 1129 231 1120 q 182 1139 197 1139 q 154 1122 163 1139 q 142 1080 144 1105 l 43 1080 q 78 1196 45 1154 q 170 1238 111 1238 q 222 1229 199 1238 q 266 1207 246 1219 q 302 1185 285 1194 q 336 1176 319 1176 q 366 1191 357 1176 q 378 1235 376 1205 l 475 1235 q 439 1119 474 1161 q 350 1077 405 1077 z "},"Ἷ":{"ha":729,"x_min":43,"x_max":637,"o":"m 637 1010 l 637 0 l 457 0 l 457 1010 l 637 1010 m 334 787 q 206 817 252 787 q 161 900 161 847 q 206 982 161 952 q 334 1012 252 1012 l 358 1012 l 358 923 l 328 923 q 279 913 296 923 q 262 886 262 904 q 280 854 262 865 q 332 844 297 844 l 342 844 l 342 787 l 334 787 m 350 1067 q 296 1077 321 1067 q 252 1098 272 1086 q 214 1120 231 1111 q 182 1129 197 1129 q 154 1112 163 1129 q 142 1071 144 1095 l 43 1071 q 78 1186 45 1144 q 170 1228 111 1228 q 222 1219 199 1228 q 266 1197 246 1210 q 302 1176 285 1185 q 336 1166 319 1166 q 366 1181 357 1166 q 378 1225 376 1196 l 475 1225 q 439 1109 474 1152 q 350 1067 405 1067 z "},"Ῐ":{"ha":363,"x_min":-38,"x_max":402,"o":"m 272 1010 l 272 0 l 92 0 l 92 1010 l 272 1010 m 182 1105 q 70 1133 120 1105 q -9 1206 20 1160 q -38 1310 -38 1253 l 71 1310 q 102 1236 71 1265 q 182 1207 134 1207 q 262 1236 231 1207 q 293 1310 293 1265 l 403 1310 q 374 1206 403 1253 q 295 1133 345 1160 q 182 1105 245 1105 z "},"Ῑ":{"ha":363,"x_min":-11,"x_max":375,"o":"m 272 1010 l 272 0 l 92 0 l 92 1010 l 272 1010 m 375 1265 l 375 1147 l -12 1147 l -12 1265 l 375 1265 z "},"Ὶ":{"ha":578,"x_min":-47,"x_max":487,"o":"m 487 1010 l 487 0 l 307 0 l 307 1010 l 487 1010 m 136 828 l 28 828 l -47 1036 l 113 1036 l 136 828 z "},"Ί":{"ha":576,"x_min":43,"x_max":484,"o":"m 484 1010 l 484 0 l 304 0 l 304 1010 l 484 1010 m 42 803 l 66 1010 l 227 1010 l 150 803 l 42 803 z "},"І":{"ha":363,"x_min":92,"x_max":272,"o":"m 272 1010 l 272 0 l 92 0 l 92 1010 l 272 1010 z "},"Ї":{"ha":363,"x_min":-63,"x_max":427,"o":"m 272 1010 l 272 0 l 92 0 l 92 1010 l 272 1010 m 330 1120 q 261 1147 289 1120 q 233 1215 233 1175 q 261 1281 233 1254 q 330 1309 289 1309 q 399 1282 371 1309 q 427 1215 427 1255 q 399 1147 427 1175 q 330 1120 371 1120 m 34 1120 q -35 1147 -7 1120 q -63 1215 -63 1175 q -35 1281 -63 1254 q 34 1309 -7 1309 q 103 1282 75 1309 q 132 1215 132 1255 q 103 1147 132 1175 q 34 1120 75 1120 z "},"":{"ha":575,"x_min":50,"x_max":526,"o":"m 50 0 l 50 151 l 197 151 l 197 860 l 50 860 l 50 1010 l 526 1010 l 526 860 l 378 860 l 378 151 l 526 151 l 526 0 l 50 0 z "},"":{"ha":575,"x_min":43,"x_max":533,"o":"m 50 0 l 50 151 l 197 151 l 197 860 l 50 860 l 50 1010 l 526 1010 l 526 860 l 378 860 l 378 151 l 526 151 l 526 0 l 50 0 m 435 1120 q 367 1147 395 1120 q 338 1215 338 1175 q 367 1281 338 1254 q 435 1309 395 1309 q 505 1282 477 1309 q 532 1215 532 1255 q 505 1147 532 1175 q 435 1120 477 1120 m 140 1120 q 71 1147 99 1120 q 43 1215 43 1175 q 71 1281 43 1254 q 140 1309 99 1309 q 209 1282 181 1309 q 237 1215 237 1255 q 209 1147 237 1175 q 140 1120 181 1120 z "},"":{"ha":575,"x_min":40,"x_max":530,"o":"m 50 0 l 50 151 l 197 151 l 197 860 l 50 860 l 50 1010 l 526 1010 l 526 860 l 378 860 l 378 151 l 526 151 l 526 0 l 50 0 m 433 1099 q 364 1127 392 1099 q 336 1194 336 1155 q 364 1262 336 1234 q 433 1289 392 1289 q 502 1262 474 1289 q 530 1194 530 1234 q 502 1127 530 1154 q 433 1099 474 1099 m 137 1099 q 68 1127 96 1099 q 40 1194 40 1155 q 68 1262 40 1234 q 137 1289 96 1289 q 207 1262 178 1289 q 235 1194 235 1234 q 207 1127 235 1154 q 137 1099 178 1099 m 227 1341 l 324 1529 l 485 1529 l 345 1341 l 227 1341 z "},"":{"ha":575,"x_min":50,"x_max":526,"o":"m 50 0 l 50 151 l 197 151 l 197 860 l 50 860 l 50 1010 l 526 1010 l 526 860 l 378 860 l 378 151 l 526 151 l 526 0 l 50 0 m 61 479 l 61 572 l 515 572 l 515 479 l 61 479 z "},"":{"ha":575,"x_min":50,"x_max":526,"o":"m 50 0 l 50 151 l 197 151 l 197 860 l 50 860 l 50 1010 l 526 1010 l 526 860 l 378 860 l 378 151 l 526 151 l 526 0 l 50 0 m 381 -290 q 327 -281 351 -290 q 281 -258 302 -271 q 243 -235 260 -245 q 210 -226 225 -226 q 180 -243 191 -226 q 169 -287 170 -261 l 66 -287 q 103 -165 68 -210 q 197 -121 137 -121 q 251 -131 227 -121 q 295 -154 275 -141 q 332 -177 315 -167 q 367 -186 350 -186 q 398 -171 388 -186 q 410 -125 408 -156 l 510 -125 q 473 -247 509 -203 q 381 -290 438 -290 z "},"":{"ha":575,"x_min":50,"x_max":526,"o":"m 50 0 l 50 151 l 197 151 l 197 860 l 50 860 l 50 1010 l 526 1010 l 526 860 l 378 860 l 378 151 l 526 151 l 526 0 l 50 0 m 229 1103 l 80 1311 l 252 1311 l 355 1103 l 229 1103 z "},"":{"ha":575,"x_min":50,"x_max":526,"o":"m 50 0 l 50 151 l 197 151 l 197 860 l 50 860 l 50 1010 l 526 1010 l 526 860 l 378 860 l 378 151 l 526 151 l 526 0 l 50 0 m 219 1103 l 323 1311 l 495 1311 l 347 1103 l 219 1103 z "},"":{"ha":575,"x_min":43,"x_max":532,"o":"m 50 0 l 50 151 l 197 151 l 197 860 l 50 860 l 50 1010 l 526 1010 l 526 860 l 378 860 l 378 151 l 526 151 l 526 0 l 50 0 m 194 1112 l 44 1112 l 44 1115 l 216 1311 l 359 1311 l 532 1115 l 532 1112 l 382 1112 l 288 1228 l 194 1112 z "},"":{"ha":575,"x_min":50,"x_max":526,"o":"m 50 0 l 50 151 l 197 151 l 197 860 l 50 860 l 50 1010 l 526 1010 l 526 860 l 378 860 l 378 151 l 526 151 l 526 0 l 50 0 m 380 1129 q 326 1139 351 1129 q 280 1161 301 1148 q 242 1184 260 1175 q 210 1194 224 1194 q 180 1176 190 1194 q 168 1133 170 1158 l 66 1133 q 102 1254 68 1210 q 196 1298 136 1298 q 251 1288 227 1298 q 294 1265 275 1278 q 332 1243 314 1253 q 366 1233 349 1233 q 397 1248 387 1233 q 410 1295 407 1263 l 509 1295 q 473 1173 508 1217 q 380 1129 437 1129 z "},"":{"ha":575,"x_min":50,"x_max":526,"o":"m 50 0 l 50 151 l 197 151 l 197 860 l 50 860 l 50 1010 l 526 1010 l 526 860 l 378 860 l 378 151 l 526 151 l 526 0 l 50 0 m 481 1265 l 481 1147 l 94 1147 l 94 1265 l 481 1265 z "},"":{"ha":575,"x_min":50,"x_max":526,"o":"m 50 0 l 50 151 l 197 151 l 197 860 l 50 860 l 50 1010 l 526 1010 l 526 860 l 378 860 l 378 151 l 526 151 l 526 0 l 50 0 m 288 1105 q 176 1133 226 1105 q 97 1206 126 1160 q 68 1310 68 1253 l 177 1310 q 208 1236 177 1265 q 288 1207 239 1207 q 368 1236 336 1207 q 399 1310 399 1265 l 509 1310 q 479 1206 509 1253 q 400 1133 450 1160 q 288 1105 351 1105 z "},"":{"ha":575,"x_min":50,"x_max":542,"o":"m 50 0 l 50 151 l 197 151 l 197 860 l 50 860 l 50 1010 l 526 1010 l 526 860 l 378 860 l 378 151 l 526 151 l 526 0 l 50 0 m 429 -288 q 304 -252 351 -288 q 258 -151 258 -217 q 287 -58 258 -101 q 374 24 315 -15 l 526 0 q 447 -63 472 -36 q 422 -122 422 -91 q 435 -157 422 -145 q 476 -170 448 -170 q 501 -168 488 -170 q 524 -162 513 -165 l 543 -273 q 490 -283 520 -279 q 429 -288 459 -288 z "},"":{"ha":575,"x_min":50,"x_max":526,"o":"m 50 0 l 50 151 l 197 151 l 197 860 l 50 860 l 50 1010 l 526 1010 l 526 860 l 378 860 l 378 151 l 526 151 l 526 0 l 50 0 m 288 1117 q 215 1145 244 1117 q 185 1214 185 1173 q 215 1283 185 1255 q 288 1311 244 1311 q 360 1283 331 1311 q 390 1214 390 1255 q 360 1145 390 1173 q 288 1117 330 1117 z "},"":{"ha":575,"x_min":43,"x_max":532,"o":"m 50 0 l 50 151 l 197 151 l 197 860 l 50 860 l 50 1010 l 526 1010 l 526 860 l 378 860 l 378 151 l 526 151 l 526 0 l 50 0 m 194 1311 l 288 1196 l 382 1311 l 532 1311 l 532 1308 l 359 1112 l 216 1112 l 44 1308 l 44 1311 l 194 1311 z "},"":{"ha":575,"x_min":-48,"x_max":526,"o":"m 50 0 l 50 151 l 197 151 l 197 860 l 50 860 l 50 1010 l 526 1010 l 526 860 l 378 860 l 378 151 l 526 151 l 526 0 l 50 0 m 342 1103 l 222 1311 l 388 1311 l 469 1103 l 342 1103 m 116 1103 l -48 1311 l 125 1311 l 246 1103 l 116 1103 z "},"":{"ha":575,"x_min":50,"x_max":526,"o":"m 50 0 l 50 151 l 197 151 l 197 860 l 50 860 l 50 1010 l 526 1010 l 526 860 l 378 860 l 378 151 l 526 151 l 526 0 l 50 0 m 288 1318 q 403 1290 353 1318 q 482 1216 453 1263 q 511 1112 511 1170 l 401 1112 q 369 1186 401 1157 q 288 1215 336 1215 q 206 1186 239 1215 q 174 1112 174 1157 l 64 1112 q 93 1216 64 1170 q 173 1290 122 1263 q 288 1318 223 1318 z "},"":{"ha":575,"x_min":50,"x_max":526,"o":"m 50 0 l 50 151 l 197 151 l 197 860 l 50 860 l 50 1010 l 526 1010 l 526 860 l 378 860 l 378 151 l 526 151 l 526 0 l 50 0 m 339 1103 l 227 1103 l 277 1195 q 279 1209 282 1204 q 266 1214 277 1214 l 164 1214 l 164 1311 l 268 1311 q 350 1298 319 1311 q 393 1262 380 1284 q 400 1212 405 1240 q 376 1156 395 1184 l 339 1103 z "},"":{"ha":575,"x_min":50,"x_max":526,"o":"m 50 0 l 50 151 l 197 151 l 197 860 l 50 860 l 50 1010 l 526 1010 l 526 860 l 378 860 l 378 151 l 526 151 l 526 0 l 50 0 m 288 -307 q 215 -278 245 -307 q 186 -210 186 -250 q 215 -140 186 -168 q 288 -113 245 -113 q 361 -140 332 -113 q 391 -210 391 -168 q 361 -278 391 -250 q 288 -307 331 -307 z "},"":{"ha":841,"x_min":43,"x_max":791,"o":"m 316 0 l 316 151 l 463 151 l 463 860 l 316 860 l 316 1010 l 791 1010 l 791 860 l 644 860 l 644 151 l 791 151 l 791 0 l 316 0 m 67 800 l 59 800 l 59 857 l 69 857 q 121 867 103 857 q 138 899 138 878 q 122 926 138 917 q 73 936 105 936 l 43 936 l 43 1025 l 67 1025 q 195 995 150 1025 q 240 913 240 965 q 195 830 240 860 q 67 800 149 800 z "},"":{"ha":854,"x_min":43,"x_max":804,"o":"m 329 0 l 329 151 l 476 151 l 476 860 l 329 860 l 329 1010 l 804 1010 l 804 860 l 656 860 l 656 151 l 804 151 l 804 0 l 329 0 m 216 789 q 88 819 134 789 q 43 902 43 849 q 88 984 43 954 q 216 1014 134 1014 l 240 1014 l 240 925 l 210 925 q 161 916 178 925 q 144 888 144 906 q 162 856 144 867 q 214 846 180 846 l 224 846 l 224 789 l 216 789 z "},"":{"ha":1090,"x_min":43,"x_max":1008,"o":"m 533 0 l 533 151 l 680 151 l 680 860 l 533 860 l 533 1010 l 1008 1010 l 1008 860 l 861 860 l 861 151 l 1008 151 l 1008 0 l 533 0 m 67 789 l 59 789 l 59 846 l 69 846 q 121 856 103 846 q 138 888 138 867 q 122 916 138 906 q 73 925 105 925 l 43 925 l 43 1014 l 67 1014 q 195 984 150 1014 q 240 902 240 954 q 195 819 240 849 q 67 789 149 789 m 429 793 l 329 793 l 258 1010 l 406 1010 l 429 793 z "},"":{"ha":1079,"x_min":43,"x_max":1029,"o":"m 554 0 l 554 151 l 701 151 l 701 860 l 554 860 l 554 1010 l 1029 1010 l 1029 860 l 882 860 l 882 151 l 1029 151 l 1029 0 l 554 0 m 216 789 q 88 819 134 789 q 43 902 43 849 q 88 984 43 954 q 216 1014 134 1014 l 240 1014 l 240 925 l 210 925 q 161 916 178 925 q 144 888 144 906 q 162 856 144 867 q 214 846 180 846 l 224 846 l 224 789 l 216 789 m 452 793 l 353 793 l 282 1010 l 429 1010 l 452 793 z "},"":{"ha":1066,"x_min":43,"x_max":1017,"o":"m 541 0 l 541 151 l 688 151 l 688 860 l 541 860 l 541 1010 l 1017 1010 l 1017 860 l 869 860 l 869 151 l 1017 151 l 1017 0 l 541 0 m 67 789 l 59 789 l 59 846 l 69 846 q 121 856 103 846 q 138 888 138 867 q 122 916 138 906 q 73 925 105 925 l 43 925 l 43 1014 l 67 1014 q 195 984 150 1014 q 240 902 240 954 q 195 819 240 849 q 67 789 149 789 m 307 793 l 330 1010 l 477 1010 l 406 793 l 307 793 z "},"":{"ha":1080,"x_min":43,"x_max":1030,"o":"m 555 0 l 555 151 l 703 151 l 703 860 l 555 860 l 555 1010 l 1031 1010 l 1031 860 l 883 860 l 883 151 l 1031 151 l 1031 0 l 555 0 m 216 789 q 88 819 134 789 q 43 902 43 849 q 88 984 43 954 q 216 1014 134 1014 l 240 1014 l 240 925 l 210 925 q 161 916 178 925 q 144 888 144 906 q 162 856 144 867 q 214 846 180 846 l 224 846 l 224 789 l 216 789 m 316 793 l 338 1010 l 486 1010 l 415 793 l 316 793 z "},"":{"ha":964,"x_min":43,"x_max":913,"o":"m 438 0 l 438 151 l 585 151 l 585 860 l 438 860 l 438 1010 l 913 1010 l 913 860 l 766 860 l 766 151 l 913 151 l 913 0 l 438 0 m 185 797 l 177 797 l 177 853 l 187 853 q 239 864 221 853 q 256 895 256 874 q 240 923 256 913 q 191 932 223 932 l 161 932 l 161 1021 l 185 1021 q 313 991 267 1021 q 358 909 358 962 q 313 827 358 857 q 185 797 267 797 m 350 1077 q 296 1086 321 1077 q 252 1108 272 1095 q 214 1129 231 1120 q 182 1139 197 1139 q 154 1122 163 1139 q 142 1080 144 1105 l 43 1080 q 78 1196 45 1154 q 170 1238 111 1238 q 222 1229 199 1238 q 266 1207 246 1219 q 302 1185 285 1194 q 336 1176 319 1176 q 366 1191 357 1176 q 378 1235 376 1205 l 475 1235 q 439 1119 474 1161 q 350 1077 405 1077 z "},"":{"ha":976,"x_min":43,"x_max":926,"o":"m 450 0 l 450 151 l 597 151 l 597 860 l 450 860 l 450 1010 l 926 1010 l 926 860 l 778 860 l 778 151 l 926 151 l 926 0 l 450 0 m 334 787 q 206 817 252 787 q 161 900 161 847 q 206 982 161 952 q 334 1012 252 1012 l 358 1012 l 358 923 l 328 923 q 279 913 296 923 q 262 886 262 904 q 280 854 262 865 q 332 844 297 844 l 342 844 l 342 787 l 334 787 m 350 1067 q 296 1077 321 1067 q 252 1098 272 1086 q 214 1120 231 1111 q 182 1129 197 1129 q 154 1112 163 1129 q 142 1071 144 1095 l 43 1071 q 78 1186 45 1144 q 170 1228 111 1228 q 222 1219 199 1228 q 266 1197 246 1210 q 302 1176 285 1185 q 336 1166 319 1166 q 366 1181 357 1166 q 378 1225 376 1196 l 475 1225 q 439 1109 474 1152 q 350 1067 405 1067 z "},"":{"ha":575,"x_min":50,"x_max":526,"o":"m 50 0 l 50 151 l 197 151 l 197 860 l 50 860 l 50 1010 l 526 1010 l 526 860 l 378 860 l 378 151 l 526 151 l 526 0 l 50 0 m 288 1105 q 176 1133 226 1105 q 97 1206 126 1160 q 68 1310 68 1253 l 177 1310 q 208 1236 177 1265 q 288 1207 239 1207 q 368 1236 336 1207 q 399 1310 399 1265 l 509 1310 q 479 1206 509 1253 q 400 1133 450 1160 q 288 1105 351 1105 z "},"":{"ha":575,"x_min":50,"x_max":526,"o":"m 50 0 l 50 151 l 197 151 l 197 860 l 50 860 l 50 1010 l 526 1010 l 526 860 l 378 860 l 378 151 l 526 151 l 526 0 l 50 0 m 481 1265 l 481 1147 l 94 1147 l 94 1265 l 481 1265 z "},"":{"ha":790,"x_min":-82,"x_max":741,"o":"m 265 0 l 265 151 l 412 151 l 412 860 l 265 860 l 265 1010 l 741 1010 l 741 860 l 593 860 l 593 151 l 741 151 l 741 0 l 265 0 m 102 828 l -6 828 l -82 1036 l 78 1036 l 102 828 z "},"":{"ha":822,"x_min":43,"x_max":772,"o":"m 297 0 l 297 151 l 444 151 l 444 860 l 297 860 l 297 1010 l 772 1010 l 772 860 l 625 860 l 625 151 l 772 151 l 772 0 l 297 0 m 42 803 l 66 1010 l 227 1010 l 150 803 l 42 803 z "},"":{"ha":575,"x_min":50,"x_max":526,"o":"m 50 0 l 50 151 l 197 151 l 197 860 l 50 860 l 50 1010 l 526 1010 l 526 860 l 378 860 l 378 151 l 526 151 l 526 0 l 50 0 z "},"":{"ha":575,"x_min":43,"x_max":533,"o":"m 50 0 l 50 151 l 197 151 l 197 860 l 50 860 l 50 1010 l 526 1010 l 526 860 l 378 860 l 378 151 l 526 151 l 526 0 l 50 0 m 435 1120 q 367 1147 395 1120 q 338 1215 338 1175 q 367 1281 338 1254 q 435 1309 395 1309 q 505 1282 477 1309 q 532 1215 532 1255 q 505 1147 532 1175 q 435 1120 477 1120 m 140 1120 q 71 1147 99 1120 q 43 1215 43 1175 q 71 1281 43 1254 q 140 1309 99 1309 q 209 1282 181 1309 q 237 1215 237 1255 q 209 1147 237 1175 q 140 1120 181 1120 z "},"J":{"ha":785,"x_min":48,"x_max":695,"o":"m 370 -14 q 136 67 223 -14 q 48 299 48 149 l 48 360 l 224 360 l 224 298 q 263 179 224 220 q 370 138 303 138 q 476 179 436 138 q 515 298 515 220 l 515 1010 l 695 1010 l 695 298 q 607 67 695 148 q 370 -14 519 -14 z "},"Ĵ":{"ha":785,"x_min":48,"x_max":849,"o":"m 370 -14 q 136 67 223 -14 q 48 299 48 149 l 48 360 l 224 360 l 224 298 q 263 179 224 220 q 370 138 303 138 q 476 179 436 138 q 515 298 515 220 l 515 1010 l 695 1010 l 695 298 q 607 67 695 148 q 370 -14 519 -14 m 511 1112 l 361 1112 l 361 1115 l 532 1311 l 675 1311 l 849 1115 l 849 1112 l 699 1112 l 604 1228 l 511 1112 z "},"Ɉ":{"ha":840,"x_min":48,"x_max":831,"o":"m 370 -14 q 136 67 223 -14 q 48 299 48 149 l 48 360 l 224 360 l 224 298 q 263 179 224 220 q 370 138 303 138 q 476 179 436 138 q 515 298 515 220 l 515 1010 l 695 1010 l 695 298 q 607 67 695 148 q 370 -14 519 -14 m 378 553 l 378 646 l 831 646 l 831 553 l 378 553 z "},"Ϳ":{"ha":785,"x_min":48,"x_max":695,"o":"m 370 -14 q 136 67 223 -14 q 48 299 48 149 l 48 360 l 224 360 l 224 298 q 263 179 224 220 q 370 138 303 138 q 476 179 436 138 q 515 298 515 220 l 515 1010 l 695 1010 l 695 298 q 607 67 695 148 q 370 -14 519 -14 z "},"Ј":{"ha":785,"x_min":48,"x_max":695,"o":"m 370 -14 q 136 67 223 -14 q 48 299 48 149 l 48 360 l 224 360 l 224 298 q 263 179 224 220 q 370 138 303 138 q 476 179 436 138 q 515 298 515 220 l 515 1010 l 695 1010 l 695 298 q 607 67 695 148 q 370 -14 519 -14 z "},"K":{"ha":950,"x_min":92,"x_max":928,"o":"m 221 242 l 221 444 q 288 533 255 490 q 357 619 321 576 q 431 707 392 662 l 699 1010 l 921 1010 l 493 528 l 479 530 l 221 242 m 92 0 l 92 1010 l 272 1010 l 272 709 l 271 466 l 272 378 l 272 0 l 92 0 m 717 0 l 393 477 l 505 614 l 928 0 l 717 0 z "},"Ķ":{"ha":950,"x_min":92,"x_max":928,"o":"m 221 242 l 221 444 q 288 533 255 490 q 357 619 321 576 q 431 707 392 662 l 699 1010 l 921 1010 l 493 528 l 479 530 l 221 242 m 92 0 l 92 1010 l 272 1010 l 272 709 l 271 466 l 272 378 l 272 0 l 92 0 m 717 0 l 393 477 l 505 614 l 928 0 l 717 0 m 336 -328 l 394 -80 l 559 -80 l 460 -328 l 336 -328 z "},"Ǩ":{"ha":950,"x_min":92,"x_max":928,"o":"m 221 242 l 221 444 q 288 533 255 490 q 357 619 321 576 q 431 707 392 662 l 699 1010 l 921 1010 l 493 528 l 479 530 l 221 242 m 92 0 l 92 1010 l 272 1010 l 272 709 l 271 466 l 272 378 l 272 0 l 92 0 m 717 0 l 393 477 l 505 614 l 928 0 l 717 0 m 382 1311 l 476 1196 l 570 1311 l 721 1311 l 721 1308 l 547 1112 l 404 1112 l 233 1308 l 233 1311 l 382 1311 z "},"Ḱ":{"ha":950,"x_min":92,"x_max":928,"o":"m 221 242 l 221 444 q 288 533 255 490 q 357 619 321 576 q 431 707 392 662 l 699 1010 l 921 1010 l 493 528 l 479 530 l 221 242 m 92 0 l 92 1010 l 272 1010 l 272 709 l 271 466 l 272 378 l 272 0 l 92 0 m 717 0 l 393 477 l 505 614 l 928 0 l 717 0 m 408 1103 l 511 1311 l 684 1311 l 535 1103 l 408 1103 z "},"Ḳ":{"ha":950,"x_min":92,"x_max":928,"o":"m 221 242 l 221 444 q 288 533 255 490 q 357 619 321 576 q 431 707 392 662 l 699 1010 l 921 1010 l 493 528 l 479 530 l 221 242 m 92 0 l 92 1010 l 272 1010 l 272 709 l 271 466 l 272 378 l 272 0 l 92 0 m 717 0 l 393 477 l 505 614 l 928 0 l 717 0 m 477 -307 q 405 -278 434 -307 q 375 -210 375 -250 q 405 -140 375 -168 q 477 -113 434 -113 q 550 -140 521 -113 q 580 -210 580 -168 q 550 -278 580 -250 q 477 -307 520 -307 z "},"Ḵ":{"ha":950,"x_min":92,"x_max":928,"o":"m 221 242 l 221 444 q 288 533 255 490 q 357 619 321 576 q 431 707 392 662 l 699 1010 l 921 1010 l 493 528 l 479 530 l 221 242 m 92 0 l 92 1010 l 272 1010 l 272 709 l 271 466 l 272 378 l 272 0 l 92 0 m 717 0 l 393 477 l 505 614 l 928 0 l 717 0 m 670 -136 l 670 -254 l 283 -254 l 283 -136 l 670 -136 z "},"Ҡ":{"ha":1180,"x_min":43,"x_max":1158,"o":"m 409 1010 l 409 858 l 43 858 l 43 1010 l 409 1010 m 322 0 l 322 1010 l 503 1010 l 503 592 l 621 592 l 929 1010 l 1141 1010 l 770 520 l 1158 0 l 946 0 l 623 438 l 503 438 l 503 0 l 322 0 z "},"Қ":{"ha":1010,"x_min":92,"x_max":983,"o":"m 92 0 l 92 1010 l 272 1010 l 272 592 l 390 592 l 699 1010 l 911 1010 l 539 520 l 928 0 l 715 0 l 393 438 l 272 438 l 272 0 l 92 0 m 807 -217 l 807 0 l 751 0 l 751 151 l 983 151 l 977 -217 l 807 -217 z "},"Ƙ":{"ha":963,"x_min":92,"x_max":963,"o":"m 92 0 l 92 1010 l 271 1010 l 271 550 l 283 550 l 641 936 q 742 1006 688 985 q 852 1021 795 1027 q 963 980 908 1015 l 902 852 q 832 865 864 873 q 765 819 800 856 l 508 548 l 928 0 l 713 0 l 395 422 l 271 286 l 271 0 l 92 0 z "},"Κ":{"ha":950,"x_min":92,"x_max":928,"o":"m 221 242 l 221 444 q 288 533 255 490 q 357 619 321 576 q 431 707 392 662 l 699 1010 l 921 1010 l 493 528 l 479 530 l 221 242 m 92 0 l 92 1010 l 272 1010 l 272 709 l 271 466 l 272 378 l 272 0 l 92 0 m 717 0 l 393 477 l 505 614 l 928 0 l 717 0 z "},"L":{"ha":773,"x_min":92,"x_max":730,"o":"m 92 0 l 92 1010 l 272 1010 l 272 154 l 730 154 l 730 0 l 92 0 z "},"Ĺ":{"ha":773,"x_min":92,"x_max":730,"o":"m 92 0 l 92 1010 l 272 1010 l 272 154 l 730 154 l 730 0 l 92 0 m 113 1103 l 216 1311 l 389 1311 l 240 1103 l 113 1103 z "},"Ļ":{"ha":773,"x_min":92,"x_max":730,"o":"m 92 0 l 92 1010 l 272 1010 l 272 154 l 730 154 l 730 0 l 92 0 m 264 -328 l 322 -80 l 488 -80 l 389 -328 l 264 -328 z "},"Ľ":{"ha":773,"x_min":92,"x_max":730,"o":"m 92 0 l 92 1010 l 272 1010 l 272 154 l 730 154 l 730 0 l 92 0 m 431 802 l 431 1061 l 574 1061 l 538 802 l 431 802 z "},"Ḷ":{"ha":773,"x_min":92,"x_max":730,"o":"m 92 0 l 92 1010 l 272 1010 l 272 154 l 730 154 l 730 0 l 92 0 m 406 -307 q 333 -278 362 -307 q 303 -210 303 -250 q 333 -140 303 -168 q 406 -113 362 -113 q 478 -140 449 -113 q 508 -210 508 -168 q 478 -278 508 -250 q 406 -307 448 -307 z "},"Ḹ":{"ha":773,"x_min":-12,"x_max":730,"o":"m 92 0 l 92 1010 l 272 1010 l 272 154 l 730 154 l 730 0 l 92 0 m 406 -307 q 333 -278 362 -307 q 303 -210 303 -250 q 333 -140 303 -168 q 406 -113 362 -113 q 478 -140 449 -113 q 508 -210 508 -168 q 478 -278 508 -250 q 406 -307 448 -307 m 374 1265 l 374 1147 l -12 1147 l -12 1265 l 374 1265 z "},"Ḻ":{"ha":773,"x_min":92,"x_max":730,"o":"m 92 0 l 92 1010 l 272 1010 l 272 154 l 730 154 l 730 0 l 92 0 m 598 -136 l 598 -254 l 212 -254 l 212 -136 l 598 -136 z "},"Ḽ":{"ha":773,"x_min":92,"x_max":730,"o":"m 92 0 l 92 1010 l 272 1010 l 272 154 l 730 154 l 730 0 l 92 0 m 312 -306 l 162 -306 l 162 -303 l 334 -107 l 477 -107 l 650 -303 l 650 -306 l 500 -306 l 406 -190 l 312 -306 z "},"Ł":{"ha":823,"x_min":13,"x_max":781,"o":"m 142 0 l 142 1010 l 322 1010 l 322 154 l 781 154 l 781 0 l 142 0 m 13 287 l 13 447 l 563 764 l 563 604 l 13 287 z "},"Ƚ":{"ha":825,"x_min":15,"x_max":782,"o":"m 143 0 l 143 1010 l 323 1010 l 323 154 l 782 154 l 782 0 l 143 0 m 15 440 l 15 570 l 555 570 l 555 440 l 15 440 z "},"ǈ":{"ha":1114,"x_min":92,"x_max":1046,"o":"m 92 0 l 92 1010 l 272 1010 l 272 154 l 730 154 l 730 0 l 92 0 m 857 735 l 1031 735 l 1031 -60 q 1003 -182 1031 -132 q 921 -258 975 -232 q 790 -283 867 -283 l 735 -283 l 735 -142 l 770 -142 q 837 -119 817 -142 q 857 -48 857 -96 l 857 735 m 944 842 q 871 870 901 842 q 842 939 842 898 q 871 1008 842 980 q 944 1036 901 1036 q 1017 1008 987 1036 q 1046 939 1046 980 q 1017 870 1046 898 q 944 842 987 842 z "},"M":{"ha":1250,"x_min":92,"x_max":1158,"o":"m 92 0 l 92 1010 l 357 1010 l 551 484 q 574 411 561 454 q 601 319 587 368 q 627 225 614 271 q 646 148 639 180 l 606 148 q 626 225 614 180 q 651 318 637 270 q 678 411 665 367 q 701 484 691 454 l 892 1010 l 1158 1010 l 1158 0 l 979 0 l 979 513 q 980 591 979 546 q 983 686 981 635 q 985 788 984 736 q 987 886 987 840 l 1005 886 q 974 780 990 834 q 942 676 958 726 q 913 584 927 625 q 890 513 900 542 l 700 0 l 550 0 l 358 513 q 334 583 348 541 q 305 675 321 625 q 273 779 290 725 q 239 886 256 833 l 262 886 q 263 790 262 841 q 266 688 264 739 q 268 592 267 637 q 269 513 269 547 l 269 0 l 92 0 z "},"Ḿ":{"ha":1250,"x_min":92,"x_max":1158,"o":"m 92 0 l 92 1010 l 357 1010 l 551 484 q 574 411 561 454 q 601 319 587 368 q 627 225 614 271 q 646 148 639 180 l 606 148 q 626 225 614 180 q 651 318 637 270 q 678 411 665 367 q 701 484 691 454 l 892 1010 l 1158 1010 l 1158 0 l 979 0 l 979 513 q 980 591 979 546 q 983 686 981 635 q 985 788 984 736 q 987 886 987 840 l 1005 886 q 974 780 990 834 q 942 676 958 726 q 913 584 927 625 q 890 513 900 542 l 700 0 l 550 0 l 358 513 q 334 583 348 541 q 305 675 321 625 q 273 779 290 725 q 239 886 256 833 l 262 886 q 263 790 262 841 q 266 688 264 739 q 268 592 267 637 q 269 513 269 547 l 269 0 l 92 0 m 555 1103 l 659 1311 l 831 1311 l 682 1103 l 555 1103 z "},"Ṁ":{"ha":1250,"x_min":92,"x_max":1158,"o":"m 92 0 l 92 1010 l 357 1010 l 551 484 q 574 411 561 454 q 601 319 587 368 q 627 225 614 271 q 646 148 639 180 l 606 148 q 626 225 614 180 q 651 318 637 270 q 678 411 665 367 q 701 484 691 454 l 892 1010 l 1158 1010 l 1158 0 l 979 0 l 979 513 q 980 591 979 546 q 983 686 981 635 q 985 788 984 736 q 987 886 987 840 l 1005 886 q 974 780 990 834 q 942 676 958 726 q 913 584 927 625 q 890 513 900 542 l 700 0 l 550 0 l 358 513 q 334 583 348 541 q 305 675 321 625 q 273 779 290 725 q 239 886 256 833 l 262 886 q 263 790 262 841 q 266 688 264 739 q 268 592 267 637 q 269 513 269 547 l 269 0 l 92 0 m 624 1117 q 551 1145 581 1117 q 522 1214 522 1173 q 551 1283 522 1255 q 624 1311 581 1311 q 697 1283 667 1311 q 726 1214 726 1255 q 696 1145 726 1173 q 624 1117 667 1117 z "},"Ṃ":{"ha":1250,"x_min":92,"x_max":1158,"o":"m 92 0 l 92 1010 l 357 1010 l 551 484 q 574 411 561 454 q 601 319 587 368 q 627 225 614 271 q 646 148 639 180 l 606 148 q 626 225 614 180 q 651 318 637 270 q 678 411 665 367 q 701 484 691 454 l 892 1010 l 1158 1010 l 1158 0 l 979 0 l 979 513 q 980 591 979 546 q 983 686 981 635 q 985 788 984 736 q 987 886 987 840 l 1005 886 q 974 780 990 834 q 942 676 958 726 q 913 584 927 625 q 890 513 900 542 l 700 0 l 550 0 l 358 513 q 334 583 348 541 q 305 675 321 625 q 273 779 290 725 q 239 886 256 833 l 262 886 q 263 790 262 841 q 266 688 264 739 q 268 592 267 637 q 269 513 269 547 l 269 0 l 92 0 m 625 -307 q 552 -278 581 -307 q 522 -210 522 -250 q 552 -140 522 -168 q 625 -113 581 -113 q 697 -140 668 -113 q 727 -210 727 -168 q 697 -278 727 -250 q 625 -307 667 -307 z "},"Ӎ":{"ha":1250,"x_min":92,"x_max":1286,"o":"m 92 0 l 92 1010 l 357 1010 l 551 484 q 574 411 561 454 q 601 319 587 368 q 627 225 614 271 q 646 148 639 180 l 606 148 q 626 225 614 180 q 651 318 637 270 q 678 411 665 367 q 701 484 691 454 l 892 1010 l 1158 1010 l 1158 0 l 979 0 l 979 513 q 980 591 979 546 q 983 686 981 635 q 985 788 984 736 q 987 886 987 840 l 1005 886 q 974 780 990 834 q 942 676 958 726 q 913 584 927 625 q 890 513 900 542 l 700 0 l 550 0 l 358 513 q 334 583 348 541 q 305 675 321 625 q 273 779 290 725 q 239 886 256 833 l 262 886 q 263 790 262 841 q 266 688 264 739 q 268 592 267 637 q 269 513 269 547 l 269 0 l 92 0 m 1010 -217 l 1077 0 l 1026 0 l 1026 144 l 1286 144 l 1175 -217 l 1010 -217 z "},"Μ":{"ha":1250,"x_min":92,"x_max":1158,"o":"m 92 0 l 92 1010 l 357 1010 l 551 484 q 574 411 561 454 q 601 319 587 368 q 627 225 614 271 q 646 148 639 180 l 606 148 q 626 225 614 180 q 651 318 637 270 q 678 411 665 367 q 701 484 691 454 l 892 1010 l 1158 1010 l 1158 0 l 979 0 l 979 513 q 980 591 979 546 q 983 686 981 635 q 985 788 984 736 q 987 886 987 840 l 1005 886 q 974 780 990 834 q 942 676 958 726 q 913 584 927 625 q 890 513 900 542 l 700 0 l 550 0 l 358 513 q 334 583 348 541 q 305 675 321 625 q 273 779 290 725 q 239 886 256 833 l 262 886 q 263 790 262 841 q 266 688 264 739 q 268 592 267 637 q 269 513 269 547 l 269 0 l 92 0 z "},"Ϻ":{"ha":1250,"x_min":92,"x_max":1158,"o":"m 92 0 l 92 1010 l 357 1010 l 551 484 q 574 411 561 454 q 601 319 587 368 q 627 225 614 271 q 646 148 639 180 l 606 148 q 626 225 614 180 q 651 318 637 270 q 678 411 665 367 q 701 484 691 454 l 892 1010 l 1158 1010 l 1158 0 l 979 0 l 979 513 q 980 591 979 546 q 983 686 981 635 q 985 788 984 736 q 987 886 987 840 l 1005 886 q 974 780 990 834 q 942 676 958 726 q 913 584 927 625 q 890 513 900 542 l 700 0 l 550 0 l 358 513 q 334 583 348 541 q 305 675 321 625 q 273 779 290 725 q 239 886 256 833 l 262 886 q 263 790 262 841 q 266 688 264 739 q 268 592 267 637 q 269 513 269 547 l 269 0 l 92 0 z "},"М":{"ha":1250,"x_min":92,"x_max":1158,"o":"m 92 0 l 92 1010 l 357 1010 l 551 484 q 574 411 561 454 q 601 319 587 368 q 627 225 614 271 q 646 148 639 180 l 606 148 q 626 225 614 180 q 651 318 637 270 q 678 411 665 367 q 701 484 691 454 l 892 1010 l 1158 1010 l 1158 0 l 979 0 l 979 513 q 980 591 979 546 q 983 686 981 635 q 985 788 984 736 q 987 886 987 840 l 1005 886 q 974 780 990 834 q 942 676 958 726 q 913 584 927 625 q 890 513 900 542 l 700 0 l 550 0 l 358 513 q 334 583 348 541 q 305 675 321 625 q 273 779 290 725 q 239 886 256 833 l 262 886 q 263 790 262 841 q 266 688 264 739 q 268 592 267 637 q 269 513 269 547 l 269 0 l 92 0 z "},"N":{"ha":1024,"x_min":92,"x_max":932,"o":"m 92 0 l 92 1010 l 290 1010 l 643 450 q 684 381 661 422 q 732 292 707 340 q 782 191 758 243 l 762 167 q 756 274 759 216 q 752 384 753 332 q 751 469 751 437 l 751 1010 l 932 1010 l 932 0 l 733 0 l 416 505 q 366 587 393 541 q 307 692 339 633 q 234 825 275 751 l 262 840 q 268 700 266 765 q 272 584 271 634 q 273 505 273 534 l 273 0 l 92 0 z "},"Ñ":{"ha":1024,"x_min":92,"x_max":932,"o":"m 92 0 l 92 1010 l 290 1010 l 643 450 q 684 381 661 422 q 732 292 707 340 q 782 191 758 243 l 762 167 q 756 274 759 216 q 752 384 753 332 q 751 469 751 437 l 751 1010 l 932 1010 l 932 0 l 733 0 l 416 505 q 366 587 393 541 q 307 692 339 633 q 234 825 275 751 l 262 840 q 268 700 266 765 q 272 584 271 634 q 273 505 273 534 l 273 0 l 92 0 m 606 1129 q 551 1139 576 1129 q 506 1161 526 1148 q 467 1184 485 1175 q 435 1194 450 1194 q 405 1176 415 1194 q 393 1133 395 1158 l 291 1133 q 327 1254 293 1210 q 421 1298 361 1298 q 476 1288 452 1298 q 519 1265 500 1278 q 557 1243 539 1253 q 591 1233 574 1233 q 622 1248 612 1233 q 635 1295 632 1263 l 734 1295 q 698 1173 733 1217 q 606 1129 663 1129 z "},"Ń":{"ha":1024,"x_min":92,"x_max":932,"o":"m 92 0 l 92 1010 l 290 1010 l 643 450 q 684 381 661 422 q 732 292 707 340 q 782 191 758 243 l 762 167 q 756 274 759 216 q 752 384 753 332 q 751 469 751 437 l 751 1010 l 932 1010 l 932 0 l 733 0 l 416 505 q 366 587 393 541 q 307 692 339 633 q 234 825 275 751 l 262 840 q 268 700 266 765 q 272 584 271 634 q 273 505 273 534 l 273 0 l 92 0 m 444 1103 l 547 1311 l 720 1311 l 571 1103 l 444 1103 z "},"Ņ":{"ha":1024,"x_min":92,"x_max":932,"o":"m 92 0 l 92 1010 l 290 1010 l 643 450 q 684 381 661 422 q 732 292 707 340 q 782 191 758 243 l 762 167 q 756 274 759 216 q 752 384 753 332 q 751 469 751 437 l 751 1010 l 932 1010 l 932 0 l 733 0 l 416 505 q 366 587 393 541 q 307 692 339 633 q 234 825 275 751 l 262 840 q 268 700 266 765 q 272 584 271 634 q 273 505 273 534 l 273 0 l 92 0 m 372 -328 l 430 -80 l 595 -80 l 496 -328 l 372 -328 z "},"Ň":{"ha":1024,"x_min":92,"x_max":932,"o":"m 92 0 l 92 1010 l 290 1010 l 643 450 q 684 381 661 422 q 732 292 707 340 q 782 191 758 243 l 762 167 q 756 274 759 216 q 752 384 753 332 q 751 469 751 437 l 751 1010 l 932 1010 l 932 0 l 733 0 l 416 505 q 366 587 393 541 q 307 692 339 633 q 234 825 275 751 l 262 840 q 268 700 266 765 q 272 584 271 634 q 273 505 273 534 l 273 0 l 92 0 m 418 1311 l 512 1196 l 606 1311 l 757 1311 l 757 1308 l 583 1112 l 440 1112 l 269 1308 l 269 1311 l 418 1311 z "},"Ǹ":{"ha":1024,"x_min":92,"x_max":932,"o":"m 92 0 l 92 1010 l 290 1010 l 643 450 q 684 381 661 422 q 732 292 707 340 q 782 191 758 243 l 762 167 q 756 274 759 216 q 752 384 753 332 q 751 469 751 437 l 751 1010 l 932 1010 l 932 0 l 733 0 l 416 505 q 366 587 393 541 q 307 692 339 633 q 234 825 275 751 l 262 840 q 268 700 266 765 q 272 584 271 634 q 273 505 273 534 l 273 0 l 92 0 m 454 1103 l 305 1311 l 477 1311 l 581 1103 l 454 1103 z "},"Ṅ":{"ha":1024,"x_min":92,"x_max":932,"o":"m 92 0 l 92 1010 l 290 1010 l 643 450 q 684 381 661 422 q 732 292 707 340 q 782 191 758 243 l 762 167 q 756 274 759 216 q 752 384 753 332 q 751 469 751 437 l 751 1010 l 932 1010 l 932 0 l 733 0 l 416 505 q 366 587 393 541 q 307 692 339 633 q 234 825 275 751 l 262 840 q 268 700 266 765 q 272 584 271 634 q 273 505 273 534 l 273 0 l 92 0 m 513 1117 q 440 1145 469 1117 q 410 1214 410 1173 q 440 1283 410 1255 q 513 1311 469 1311 q 586 1283 556 1311 q 615 1214 615 1255 q 585 1145 615 1173 q 513 1117 555 1117 z "},"Ṇ":{"ha":1024,"x_min":92,"x_max":932,"o":"m 92 0 l 92 1010 l 290 1010 l 643 450 q 684 381 661 422 q 732 292 707 340 q 782 191 758 243 l 762 167 q 756 274 759 216 q 752 384 753 332 q 751 469 751 437 l 751 1010 l 932 1010 l 932 0 l 733 0 l 416 505 q 366 587 393 541 q 307 692 339 633 q 234 825 275 751 l 262 840 q 268 700 266 765 q 272 584 271 634 q 273 505 273 534 l 273 0 l 92 0 m 513 -307 q 440 -278 470 -307 q 411 -210 411 -250 q 440 -140 411 -168 q 513 -113 470 -113 q 586 -140 557 -113 q 616 -210 616 -168 q 586 -278 616 -250 q 513 -307 556 -307 z "},"Ṉ":{"ha":1024,"x_min":92,"x_max":932,"o":"m 92 0 l 92 1010 l 290 1010 l 643 450 q 684 381 661 422 q 732 292 707 340 q 782 191 758 243 l 762 167 q 756 274 759 216 q 752 384 753 332 q 751 469 751 437 l 751 1010 l 932 1010 l 932 0 l 733 0 l 416 505 q 366 587 393 541 q 307 692 339 633 q 234 825 275 751 l 262 840 q 268 700 266 765 q 272 584 271 634 q 273 505 273 534 l 273 0 l 92 0 m 706 -136 l 706 -254 l 319 -254 l 319 -136 l 706 -136 z "},"Ṋ":{"ha":1024,"x_min":92,"x_max":932,"o":"m 92 0 l 92 1010 l 290 1010 l 643 450 q 684 381 661 422 q 732 292 707 340 q 782 191 758 243 l 762 167 q 756 274 759 216 q 752 384 753 332 q 751 469 751 437 l 751 1010 l 932 1010 l 932 0 l 733 0 l 416 505 q 366 587 393 541 q 307 692 339 633 q 234 825 275 751 l 262 840 q 268 700 266 765 q 272 584 271 634 q 273 505 273 534 l 273 0 l 92 0 m 420 -306 l 270 -306 l 270 -303 l 441 -107 l 585 -107 l 758 -303 l 758 -306 l 608 -306 l 513 -190 l 420 -306 z "},"Ɲ":{"ha":1024,"x_min":-53,"x_max":932,"o":"m -53 -283 l -53 -140 q -21 -141 -40 -140 q 14 -141 -1 -141 q 74 -126 57 -141 q 92 -78 92 -111 l 92 85 l 272 85 l 272 -87 q 215 -237 272 -186 q 44 -288 157 -288 q -11 -287 15 -288 q -53 -283 -36 -286 m 92 0 l 92 1010 l 290 1010 l 643 450 q 684 381 661 422 q 732 292 707 340 q 782 191 758 243 l 762 167 q 756 274 759 216 q 752 384 753 332 q 751 469 751 437 l 751 1010 l 932 1010 l 932 0 l 733 0 l 416 505 q 366 587 393 541 q 307 692 339 633 q 234 825 275 751 l 262 840 q 268 700 266 765 q 272 584 271 634 q 273 505 273 534 l 273 0 l 92 0 z "},"Ŋ":{"ha":1024,"x_min":92,"x_max":935,"o":"m 610 -283 l 610 -140 q 642 -141 623 -140 q 676 -141 661 -141 q 737 -126 720 -141 q 755 -78 755 -111 l 755 85 l 935 85 l 935 -87 q 877 -237 935 -186 q 707 -288 820 -288 q 652 -287 677 -288 q 610 -283 627 -286 m 92 0 l 92 1010 l 290 1010 l 643 450 q 684 381 661 422 q 732 292 707 340 q 782 191 758 243 l 762 167 q 756 274 759 216 q 752 384 753 332 q 751 469 751 437 l 751 1010 l 932 1010 l 932 0 l 733 0 l 416 505 q 366 587 393 541 q 307 692 339 633 q 234 825 275 751 l 262 840 q 268 700 266 765 q 272 584 271 634 q 273 505 273 534 l 273 0 l 92 0 z "},"И":{"ha":1024,"x_min":92,"x_max":932,"o":"m 932 0 l 751 0 l 751 505 q 752 584 751 534 q 756 700 753 634 q 763 840 759 765 l 790 825 q 718 692 750 751 q 658 587 685 633 q 608 505 631 541 l 291 0 l 92 0 l 92 1010 l 273 1010 l 273 469 q 272 384 273 437 q 268 274 271 332 q 262 167 266 216 l 242 191 q 292 292 267 243 q 341 381 317 340 q 382 450 364 422 l 734 1010 l 932 1010 l 932 0 z "},"Ѝ":{"ha":1024,"x_min":92,"x_max":932,"o":"m 932 0 l 751 0 l 751 505 q 752 584 751 534 q 756 700 753 634 q 763 840 759 765 l 790 825 q 718 692 750 751 q 658 587 685 633 q 608 505 631 541 l 291 0 l 92 0 l 92 1010 l 273 1010 l 273 469 q 272 384 273 437 q 268 274 271 332 q 262 167 266 216 l 242 191 q 292 292 267 243 q 341 381 317 340 q 382 450 364 422 l 734 1010 l 932 1010 l 932 0 m 450 1103 l 302 1311 l 474 1311 l 577 1103 l 450 1103 z "},"Й":{"ha":1024,"x_min":92,"x_max":932,"o":"m 932 0 l 751 0 l 751 505 q 752 584 751 534 q 756 700 753 634 q 763 840 759 765 l 790 825 q 718 692 750 751 q 658 587 685 633 q 608 505 631 541 l 291 0 l 92 0 l 92 1010 l 273 1010 l 273 469 q 272 384 273 437 q 268 274 271 332 q 262 167 266 216 l 242 191 q 292 292 267 243 q 341 381 317 340 q 382 450 364 422 l 734 1010 l 932 1010 l 932 0 m 509 1105 q 397 1133 447 1105 q 318 1206 347 1160 q 289 1310 289 1253 l 398 1310 q 429 1236 398 1265 q 509 1207 460 1207 q 589 1236 557 1207 q 620 1310 620 1265 l 730 1310 q 701 1206 730 1253 q 622 1133 671 1160 q 509 1105 572 1105 z "},"Ӣ":{"ha":1024,"x_min":92,"x_max":932,"o":"m 932 0 l 751 0 l 751 505 q 752 584 751 534 q 756 700 753 634 q 763 840 759 765 l 790 825 q 718 692 750 751 q 658 587 685 633 q 608 505 631 541 l 291 0 l 92 0 l 92 1010 l 273 1010 l 273 469 q 272 384 273 437 q 268 274 271 332 q 262 167 266 216 l 242 191 q 292 292 267 243 q 341 381 317 340 q 382 450 364 422 l 734 1010 l 932 1010 l 932 0 m 703 1265 l 703 1147 l 316 1147 l 316 1265 l 703 1265 z "},"Ӥ":{"ha":1024,"x_min":92,"x_max":932,"o":"m 932 0 l 751 0 l 751 505 q 752 584 751 534 q 756 700 753 634 q 763 840 759 765 l 790 825 q 718 692 750 751 q 658 587 685 633 q 608 505 631 541 l 291 0 l 92 0 l 92 1010 l 273 1010 l 273 469 q 272 384 273 437 q 268 274 271 332 q 262 167 266 216 l 242 191 q 292 292 267 243 q 341 381 317 340 q 382 450 364 422 l 734 1010 l 932 1010 l 932 0 m 657 1120 q 588 1147 616 1120 q 560 1215 560 1175 q 588 1281 560 1254 q 657 1309 616 1309 q 726 1282 699 1309 q 754 1215 754 1255 q 726 1147 754 1175 q 657 1120 699 1120 m 361 1120 q 293 1147 321 1120 q 264 1215 264 1175 q 293 1281 264 1254 q 361 1309 321 1309 q 431 1282 403 1309 q 459 1215 459 1255 q 431 1147 459 1175 q 361 1120 403 1120 z "},"Ҋ":{"ha":1024,"x_min":92,"x_max":1057,"o":"m 932 0 l 751 0 l 751 505 q 752 584 751 534 q 756 700 753 634 q 763 840 759 765 l 790 825 q 718 692 750 751 q 658 587 685 633 q 608 505 631 541 l 291 0 l 92 0 l 92 1010 l 273 1010 l 273 469 q 272 384 273 437 q 268 274 271 332 q 262 167 266 216 l 242 191 q 292 292 267 243 q 341 381 317 340 q 382 450 364 422 l 734 1010 l 932 1010 l 932 0 m 509 1105 q 397 1133 447 1105 q 318 1206 347 1160 q 289 1310 289 1253 l 398 1310 q 429 1236 398 1265 q 509 1207 460 1207 q 589 1236 557 1207 q 620 1310 620 1265 l 730 1310 q 701 1206 730 1253 q 622 1133 671 1160 q 509 1105 572 1105 m 781 -217 l 848 0 l 797 0 l 797 144 l 1057 144 l 945 -217 l 781 -217 z "},"Ͷ":{"ha":1024,"x_min":92,"x_max":932,"o":"m 932 0 l 751 0 l 751 505 q 752 584 751 534 q 756 700 753 634 q 763 840 759 765 l 790 825 q 718 692 750 751 q 658 587 685 633 q 608 505 631 541 l 291 0 l 92 0 l 92 1010 l 273 1010 l 273 469 q 272 384 273 437 q 268 274 271 332 q 262 167 266 216 l 242 191 q 292 292 267 243 q 341 381 317 340 q 382 450 364 422 l 734 1010 l 932 1010 l 932 0 z "},"Ν":{"ha":1024,"x_min":92,"x_max":932,"o":"m 92 0 l 92 1010 l 290 1010 l 643 450 q 684 381 661 422 q 732 292 707 340 q 782 191 758 243 l 762 167 q 756 274 759 216 q 752 384 753 332 q 751 469 751 437 l 751 1010 l 932 1010 l 932 0 l 733 0 l 416 505 q 366 587 393 541 q 307 692 339 633 q 234 825 275 751 l 262 840 q 268 700 266 765 q 272 584 271 634 q 273 505 273 534 l 273 0 l 92 0 z "},"ǋ":{"ha":1365,"x_min":92,"x_max":1297,"o":"m 92 0 l 92 1010 l 290 1010 l 643 450 q 684 381 661 422 q 732 292 707 340 q 782 191 758 243 l 762 167 q 756 274 759 216 q 752 384 753 332 q 751 469 751 437 l 751 1010 l 932 1010 l 932 0 l 733 0 l 416 505 q 366 587 393 541 q 307 692 339 633 q 234 825 275 751 l 262 840 q 268 700 266 765 q 272 584 271 634 q 273 505 273 534 l 273 0 l 92 0 m 1107 735 l 1282 735 l 1282 -60 q 1254 -182 1282 -132 q 1172 -258 1225 -232 q 1041 -283 1118 -283 l 986 -283 l 986 -142 l 1021 -142 q 1087 -119 1067 -142 q 1107 -48 1107 -96 l 1107 735 m 1195 842 q 1122 870 1152 842 q 1093 939 1093 898 q 1122 1008 1093 980 q 1195 1036 1152 1036 q 1268 1008 1238 1036 q 1297 939 1297 980 q 1267 870 1297 898 q 1195 842 1238 842 z "},"O":{"ha":1052,"x_min":58,"x_max":994,"o":"m 526 -15 q 286 48 392 -15 q 119 229 180 112 q 58 505 58 345 q 119 782 58 665 q 286 962 180 899 q 526 1025 392 1025 q 766 962 660 1025 q 932 782 871 899 q 994 505 994 665 q 932 228 994 345 q 766 48 871 111 q 526 -15 660 -15 m 526 146 q 673 188 608 146 q 775 309 738 229 q 812 505 812 389 q 775 701 812 621 q 673 823 738 781 q 526 864 608 864 q 379 822 444 864 q 277 701 314 781 q 239 505 239 621 q 277 310 239 389 q 379 188 314 230 q 526 146 444 146 z "},"Ö":{"ha":1052,"x_min":58,"x_max":994,"o":"m 526 -15 q 286 48 392 -15 q 119 229 180 112 q 58 505 58 345 q 119 782 58 665 q 286 962 180 899 q 526 1025 392 1025 q 766 962 660 1025 q 932 782 871 899 q 994 505 994 665 q 932 228 994 345 q 766 48 871 111 q 526 -15 660 -15 m 526 146 q 673 188 608 146 q 775 309 738 229 q 812 505 812 389 q 775 701 812 621 q 673 823 738 781 q 526 864 608 864 q 379 822 444 864 q 277 701 314 781 q 239 505 239 621 q 277 310 239 389 q 379 188 314 230 q 526 146 444 146 m 673 1120 q 605 1147 633 1120 q 576 1215 576 1175 q 605 1281 576 1254 q 673 1309 633 1309 q 743 1282 715 1309 q 770 1215 770 1255 q 743 1147 770 1175 q 673 1120 715 1120 m 378 1120 q 309 1147 337 1120 q 281 1215 281 1175 q 309 1281 281 1254 q 378 1309 337 1309 q 447 1282 419 1309 q 475 1215 475 1255 q 447 1147 475 1175 q 378 1120 419 1120 z "},"Õ":{"ha":1052,"x_min":58,"x_max":994,"o":"m 526 -15 q 286 48 392 -15 q 119 229 180 112 q 58 505 58 345 q 119 782 58 665 q 286 962 180 899 q 526 1025 392 1025 q 766 962 660 1025 q 932 782 871 899 q 994 505 994 665 q 932 228 994 345 q 766 48 871 111 q 526 -15 660 -15 m 526 146 q 673 188 608 146 q 775 309 738 229 q 812 505 812 389 q 775 701 812 621 q 673 823 738 781 q 526 864 608 864 q 379 822 444 864 q 277 701 314 781 q 239 505 239 621 q 277 310 239 389 q 379 188 314 230 q 526 146 444 146 m 619 1129 q 565 1139 589 1129 q 519 1161 540 1148 q 481 1184 498 1175 q 448 1194 463 1194 q 418 1176 429 1194 q 407 1133 408 1158 l 304 1133 q 341 1254 307 1210 q 435 1298 375 1298 q 489 1288 465 1298 q 533 1265 513 1278 q 570 1243 553 1253 q 605 1233 588 1233 q 636 1248 626 1233 q 648 1295 646 1263 l 748 1295 q 711 1173 747 1217 q 619 1129 676 1129 z "},"Ø":{"ha":1052,"x_min":58,"x_max":994,"o":"m 526 -15 q 286 48 392 -15 q 119 229 180 112 q 58 505 58 345 q 119 782 58 665 q 286 962 180 899 q 526 1025 392 1025 q 766 962 660 1025 q 932 782 871 899 q 994 505 994 665 q 932 228 994 345 q 766 48 871 111 q 526 -15 660 -15 m 526 146 q 673 188 608 146 q 775 309 738 229 q 812 505 812 389 q 775 701 812 621 q 673 823 738 781 q 526 864 608 864 q 379 822 444 864 q 277 701 314 781 q 239 505 239 621 q 277 310 239 389 q 379 188 314 230 q 526 146 444 146 m 178 -43 l 76 37 l 874 1053 l 975 972 l 178 -43 z "},"Ơ":{"ha":1055,"x_min":58,"x_max":994,"o":"m 528 909 l 528 1025 q 590 1023 564 1025 q 644 1018 616 1021 q 712 1013 671 1015 q 820 1010 753 1010 q 836 1026 836 1010 l 836 1164 l 994 1164 l 994 1020 q 958 924 994 954 q 857 893 921 893 q 796 896 825 893 q 732 901 767 898 q 648 906 697 904 q 528 909 599 909 m 526 -15 q 286 48 392 -15 q 119 229 180 112 q 58 505 58 345 q 119 782 58 665 q 286 962 180 899 q 526 1025 392 1025 q 766 962 660 1025 q 932 782 871 899 q 994 505 994 665 q 932 228 994 345 q 766 48 871 111 q 526 -15 660 -15 m 526 146 q 673 188 608 146 q 775 309 738 229 q 812 505 812 389 q 775 701 812 621 q 673 823 738 781 q 526 864 608 864 q 379 822 444 864 q 277 701 314 781 q 239 505 239 621 q 277 310 239 389 q 379 188 314 230 q 526 146 444 146 z "},"Ò":{"ha":1052,"x_min":58,"x_max":994,"o":"m 526 -15 q 286 48 392 -15 q 119 229 180 112 q 58 505 58 345 q 119 782 58 665 q 286 962 180 899 q 526 1025 392 1025 q 766 962 660 1025 q 932 782 871 899 q 994 505 994 665 q 932 228 994 345 q 766 48 871 111 q 526 -15 660 -15 m 526 146 q 673 188 608 146 q 775 309 738 229 q 812 505 812 389 q 775 701 812 621 q 673 823 738 781 q 526 864 608 864 q 379 822 444 864 q 277 701 314 781 q 239 505 239 621 q 277 310 239 389 q 379 188 314 230 q 526 146 444 146 m 467 1103 l 319 1311 l 491 1311 l 594 1103 l 467 1103 z "},"Ó":{"ha":1052,"x_min":58,"x_max":994,"o":"m 526 -15 q 286 48 392 -15 q 119 229 180 112 q 58 505 58 345 q 119 782 58 665 q 286 962 180 899 q 526 1025 392 1025 q 766 962 660 1025 q 932 782 871 899 q 994 505 994 665 q 932 228 994 345 q 766 48 871 111 q 526 -15 660 -15 m 526 146 q 673 188 608 146 q 775 309 738 229 q 812 505 812 389 q 775 701 812 621 q 673 823 738 781 q 526 864 608 864 q 379 822 444 864 q 277 701 314 781 q 239 505 239 621 q 277 310 239 389 q 379 188 314 230 q 526 146 444 146 m 457 1103 l 561 1311 l 733 1311 l 585 1103 l 457 1103 z "},"Ô":{"ha":1052,"x_min":58,"x_max":994,"o":"m 526 -15 q 286 48 392 -15 q 119 229 180 112 q 58 505 58 345 q 119 782 58 665 q 286 962 180 899 q 526 1025 392 1025 q 766 962 660 1025 q 932 782 871 899 q 994 505 994 665 q 932 228 994 345 q 766 48 871 111 q 526 -15 660 -15 m 526 146 q 673 188 608 146 q 775 309 738 229 q 812 505 812 389 q 775 701 812 621 q 673 823 738 781 q 526 864 608 864 q 379 822 444 864 q 277 701 314 781 q 239 505 239 621 q 277 310 239 389 q 379 188 314 230 q 526 146 444 146 m 432 1112 l 282 1112 l 282 1115 l 454 1311 l 597 1311 l 770 1115 l 770 1112 l 620 1112 l 526 1228 l 432 1112 z "},"Ō":{"ha":1052,"x_min":58,"x_max":994,"o":"m 526 -15 q 286 48 392 -15 q 119 229 180 112 q 58 505 58 345 q 119 782 58 665 q 286 962 180 899 q 526 1025 392 1025 q 766 962 660 1025 q 932 782 871 899 q 994 505 994 665 q 932 228 994 345 q 766 48 871 111 q 526 -15 660 -15 m 526 146 q 673 188 608 146 q 775 309 738 229 q 812 505 812 389 q 775 701 812 621 q 673 823 738 781 q 526 864 608 864 q 379 822 444 864 q 277 701 314 781 q 239 505 239 621 q 277 310 239 389 q 379 188 314 230 q 526 146 444 146 m 719 1265 l 719 1147 l 332 1147 l 332 1265 l 719 1265 z "},"Ŏ":{"ha":1052,"x_min":58,"x_max":994,"o":"m 526 -15 q 286 48 392 -15 q 119 229 180 112 q 58 505 58 345 q 119 782 58 665 q 286 962 180 899 q 526 1025 392 1025 q 766 962 660 1025 q 932 782 871 899 q 994 505 994 665 q 932 228 994 345 q 766 48 871 111 q 526 -15 660 -15 m 526 146 q 673 188 608 146 q 775 309 738 229 q 812 505 812 389 q 775 701 812 621 q 673 823 738 781 q 526 864 608 864 q 379 822 444 864 q 277 701 314 781 q 239 505 239 621 q 277 310 239 389 q 379 188 314 230 q 526 146 444 146 m 526 1105 q 414 1133 464 1105 q 335 1206 364 1160 q 306 1310 306 1253 l 415 1310 q 446 1236 415 1265 q 526 1207 477 1207 q 606 1236 574 1207 q 637 1310 637 1265 l 747 1310 q 718 1206 747 1253 q 638 1133 688 1160 q 526 1105 589 1105 z "},"Ő":{"ha":1052,"x_min":58,"x_max":994,"o":"m 526 -15 q 286 48 392 -15 q 119 229 180 112 q 58 505 58 345 q 119 782 58 665 q 286 962 180 899 q 526 1025 392 1025 q 766 962 660 1025 q 932 782 871 899 q 994 505 994 665 q 932 228 994 345 q 766 48 871 111 q 526 -15 660 -15 m 526 146 q 673 188 608 146 q 775 309 738 229 q 812 505 812 389 q 775 701 812 621 q 673 823 738 781 q 526 864 608 864 q 379 822 444 864 q 277 701 314 781 q 239 505 239 621 q 277 310 239 389 q 379 188 314 230 q 526 146 444 146 m 431 1103 l 303 1103 l 385 1311 l 550 1311 l 431 1103 m 657 1103 l 527 1103 l 648 1311 l 821 1311 l 657 1103 z "},"Ǒ":{"ha":1052,"x_min":58,"x_max":994,"o":"m 526 -15 q 286 48 392 -15 q 119 229 180 112 q 58 505 58 345 q 119 782 58 665 q 286 962 180 899 q 526 1025 392 1025 q 766 962 660 1025 q 932 782 871 899 q 994 505 994 665 q 932 228 994 345 q 766 48 871 111 q 526 -15 660 -15 m 526 146 q 673 188 608 146 q 775 309 738 229 q 812 505 812 389 q 775 701 812 621 q 673 823 738 781 q 526 864 608 864 q 379 822 444 864 q 277 701 314 781 q 239 505 239 621 q 277 310 239 389 q 379 188 314 230 q 526 146 444 146 m 432 1311 l 526 1196 l 620 1311 l 770 1311 l 770 1308 l 597 1112 l 454 1112 l 282 1308 l 282 1311 l 432 1311 z "},"Ǫ":{"ha":1052,"x_min":58,"x_max":994,"o":"m 526 -15 q 286 48 392 -15 q 119 229 180 112 q 58 505 58 345 q 119 782 58 665 q 286 962 180 899 q 526 1025 392 1025 q 766 962 660 1025 q 932 782 871 899 q 994 505 994 665 q 932 228 994 345 q 766 48 871 111 q 526 -15 660 -15 m 526 146 q 673 188 608 146 q 775 309 738 229 q 812 505 812 389 q 775 701 812 621 q 673 823 738 781 q 526 864 608 864 q 379 822 444 864 q 277 701 314 781 q 239 505 239 621 q 277 310 239 389 q 379 188 314 230 q 526 146 444 146 m 567 -288 q 442 -252 490 -288 q 394 -151 394 -217 q 424 -63 394 -98 q 502 0 453 -27 q 608 55 550 28 q 724 117 666 83 q 830 202 782 152 q 908 326 879 252 q 938 505 938 399 l 994 505 q 970 317 994 395 q 908 182 946 238 q 823 88 869 126 q 730 23 777 50 q 646 -26 684 -4 q 583 -70 607 -47 q 559 -122 559 -92 q 573 -157 559 -145 q 614 -170 587 -170 q 639 -168 627 -170 q 662 -162 651 -165 l 680 -273 q 628 -283 658 -279 q 567 -288 597 -288 z "},"Ǭ":{"ha":1052,"x_min":58,"x_max":994,"o":"m 526 -15 q 286 48 392 -15 q 119 229 180 112 q 58 505 58 345 q 119 782 58 665 q 286 962 180 899 q 526 1025 392 1025 q 766 962 660 1025 q 932 782 871 899 q 994 505 994 665 q 932 228 994 345 q 766 48 871 111 q 526 -15 660 -15 m 526 146 q 673 188 608 146 q 775 309 738 229 q 812 505 812 389 q 775 701 812 621 q 673 823 738 781 q 526 864 608 864 q 379 822 444 864 q 277 701 314 781 q 239 505 239 621 q 277 310 239 389 q 379 188 314 230 q 526 146 444 146 m 567 -288 q 442 -252 490 -288 q 394 -151 394 -217 q 424 -63 394 -98 q 502 0 453 -27 q 608 55 550 28 q 724 117 666 83 q 830 202 782 152 q 908 326 879 252 q 938 505 938 399 l 994 505 q 970 317 994 395 q 908 182 946 238 q 823 88 869 126 q 730 23 777 50 q 646 -26 684 -4 q 583 -70 607 -47 q 559 -122 559 -92 q 573 -157 559 -145 q 614 -170 587 -170 q 639 -168 627 -170 q 662 -162 651 -165 l 680 -273 q 628 -283 658 -279 q 567 -288 597 -288 m 719 1265 l 719 1147 l 332 1147 l 332 1265 l 719 1265 z "},"Ȍ":{"ha":1052,"x_min":58,"x_max":994,"o":"m 526 -15 q 286 48 392 -15 q 119 229 180 112 q 58 505 58 345 q 119 782 58 665 q 286 962 180 899 q 526 1025 392 1025 q 766 962 660 1025 q 932 782 871 899 q 994 505 994 665 q 932 228 994 345 q 766 48 871 111 q 526 -15 660 -15 m 526 146 q 673 188 608 146 q 775 309 738 229 q 812 505 812 389 q 775 701 812 621 q 673 823 738 781 q 526 864 608 864 q 379 822 444 864 q 277 701 314 781 q 239 505 239 621 q 277 310 239 389 q 379 188 314 230 q 526 146 444 146 m 581 1103 l 461 1311 l 627 1311 l 708 1103 l 581 1103 m 355 1103 l 191 1311 l 363 1311 l 485 1103 l 355 1103 z "},"Ȏ":{"ha":1052,"x_min":58,"x_max":994,"o":"m 526 -15 q 286 48 392 -15 q 119 229 180 112 q 58 505 58 345 q 119 782 58 665 q 286 962 180 899 q 526 1025 392 1025 q 766 962 660 1025 q 932 782 871 899 q 994 505 994 665 q 932 228 994 345 q 766 48 871 111 q 526 -15 660 -15 m 526 146 q 673 188 608 146 q 775 309 738 229 q 812 505 812 389 q 775 701 812 621 q 673 823 738 781 q 526 864 608 864 q 379 822 444 864 q 277 701 314 781 q 239 505 239 621 q 277 310 239 389 q 379 188 314 230 q 526 146 444 146 m 526 1318 q 642 1290 591 1318 q 721 1216 692 1263 q 749 1112 749 1170 l 640 1112 q 607 1186 640 1157 q 526 1215 574 1215 q 445 1186 477 1215 q 412 1112 412 1157 l 303 1112 q 332 1216 303 1170 q 411 1290 361 1263 q 526 1318 462 1318 z "},"Ȫ":{"ha":1052,"x_min":58,"x_max":994,"o":"m 526 -15 q 286 48 392 -15 q 119 229 180 112 q 58 505 58 345 q 119 782 58 665 q 286 962 180 899 q 526 1025 392 1025 q 766 962 660 1025 q 932 782 871 899 q 994 505 994 665 q 932 228 994 345 q 766 48 871 111 q 526 -15 660 -15 m 526 146 q 673 188 608 146 q 775 309 738 229 q 812 505 812 389 q 775 701 812 621 q 673 823 738 781 q 526 864 608 864 q 379 822 444 864 q 277 701 314 781 q 239 505 239 621 q 277 310 239 389 q 379 188 314 230 q 526 146 444 146 m 671 1099 q 602 1127 630 1099 q 574 1194 574 1155 q 602 1262 574 1234 q 671 1289 630 1289 q 740 1262 712 1289 q 768 1194 768 1234 q 740 1127 768 1154 q 671 1099 712 1099 m 375 1099 q 306 1127 334 1099 q 278 1194 278 1155 q 306 1262 278 1234 q 375 1289 334 1289 q 445 1262 416 1289 q 473 1194 473 1234 q 445 1127 473 1154 q 375 1099 416 1099 m 720 1472 l 720 1369 l 333 1369 l 333 1472 l 720 1472 z "},"Ȭ":{"ha":1052,"x_min":58,"x_max":994,"o":"m 526 -15 q 286 48 392 -15 q 119 229 180 112 q 58 505 58 345 q 119 782 58 665 q 286 962 180 899 q 526 1025 392 1025 q 766 962 660 1025 q 932 782 871 899 q 994 505 994 665 q 932 228 994 345 q 766 48 871 111 q 526 -15 660 -15 m 526 146 q 673 188 608 146 q 775 309 738 229 q 812 505 812 389 q 775 701 812 621 q 673 823 738 781 q 526 864 608 864 q 379 822 444 864 q 277 701 314 781 q 239 505 239 621 q 277 310 239 389 q 379 188 314 230 q 526 146 444 146 m 620 1109 q 565 1119 590 1109 q 520 1142 541 1129 q 481 1165 499 1155 q 449 1175 464 1175 q 419 1157 429 1175 q 408 1113 409 1139 l 305 1113 q 341 1234 307 1190 q 435 1278 376 1278 q 490 1269 466 1278 q 534 1246 514 1259 q 571 1223 553 1233 q 606 1213 589 1213 q 636 1229 627 1213 q 649 1275 646 1244 l 749 1275 q 712 1154 747 1198 q 620 1109 677 1109 m 720 1472 l 720 1369 l 334 1369 l 334 1472 l 720 1472 z "},"Ȯ":{"ha":1052,"x_min":58,"x_max":994,"o":"m 526 -15 q 286 48 392 -15 q 119 229 180 112 q 58 505 58 345 q 119 782 58 665 q 286 962 180 899 q 526 1025 392 1025 q 766 962 660 1025 q 932 782 871 899 q 994 505 994 665 q 932 228 994 345 q 766 48 871 111 q 526 -15 660 -15 m 526 146 q 673 188 608 146 q 775 309 738 229 q 812 505 812 389 q 775 701 812 621 q 673 823 738 781 q 526 864 608 864 q 379 822 444 864 q 277 701 314 781 q 239 505 239 621 q 277 310 239 389 q 379 188 314 230 q 526 146 444 146 m 526 1117 q 453 1145 482 1117 q 423 1214 423 1173 q 453 1283 423 1255 q 526 1311 482 1311 q 598 1283 569 1311 q 628 1214 628 1255 q 598 1145 628 1173 q 526 1117 568 1117 z "},"Ȱ":{"ha":1052,"x_min":58,"x_max":994,"o":"m 526 -15 q 286 48 392 -15 q 119 229 180 112 q 58 505 58 345 q 119 782 58 665 q 286 962 180 899 q 526 1025 392 1025 q 766 962 660 1025 q 932 782 871 899 q 994 505 994 665 q 932 228 994 345 q 766 48 871 111 q 526 -15 660 -15 m 526 146 q 673 188 608 146 q 775 309 738 229 q 812 505 812 389 q 775 701 812 621 q 673 823 738 781 q 526 864 608 864 q 379 822 444 864 q 277 701 314 781 q 239 505 239 621 q 277 310 239 389 q 379 188 314 230 q 526 146 444 146 m 526 1097 q 453 1125 483 1097 q 424 1194 424 1154 q 453 1263 424 1235 q 526 1291 483 1291 q 599 1263 570 1291 q 629 1194 629 1235 q 599 1125 629 1153 q 526 1097 569 1097 m 719 1472 l 719 1369 l 333 1369 l 333 1472 l 719 1472 z "},"Ṍ":{"ha":1052,"x_min":58,"x_max":994,"o":"m 526 -15 q 286 48 392 -15 q 119 229 180 112 q 58 505 58 345 q 119 782 58 665 q 286 962 180 899 q 526 1025 392 1025 q 766 962 660 1025 q 932 782 871 899 q 994 505 994 665 q 932 228 994 345 q 766 48 871 111 q 526 -15 660 -15 m 526 146 q 673 188 608 146 q 775 309 738 229 q 812 505 812 389 q 775 701 812 621 q 673 823 738 781 q 526 864 608 864 q 379 822 444 864 q 277 701 314 781 q 239 505 239 621 q 277 310 239 389 q 379 188 314 230 q 526 146 444 146 m 620 1109 q 565 1119 590 1109 q 520 1142 541 1129 q 481 1165 499 1155 q 449 1175 464 1175 q 419 1157 429 1175 q 408 1113 409 1139 l 305 1113 q 341 1234 307 1190 q 435 1278 376 1278 q 490 1269 466 1278 q 534 1246 514 1259 q 571 1223 553 1233 q 606 1213 589 1213 q 636 1229 627 1213 q 649 1275 646 1244 l 749 1275 q 712 1154 747 1198 q 620 1109 677 1109 m 459 1341 l 557 1529 l 718 1529 l 577 1341 l 459 1341 z "},"Ṏ":{"ha":1052,"x_min":58,"x_max":994,"o":"m 526 -15 q 286 48 392 -15 q 119 229 180 112 q 58 505 58 345 q 119 782 58 665 q 286 962 180 899 q 526 1025 392 1025 q 766 962 660 1025 q 932 782 871 899 q 994 505 994 665 q 932 228 994 345 q 766 48 871 111 q 526 -15 660 -15 m 526 146 q 673 188 608 146 q 775 309 738 229 q 812 505 812 389 q 775 701 812 621 q 673 823 738 781 q 526 864 608 864 q 379 822 444 864 q 277 701 314 781 q 239 505 239 621 q 277 310 239 389 q 379 188 314 230 q 526 146 444 146 m 618 1109 q 564 1119 589 1109 q 518 1141 539 1128 q 480 1164 498 1154 q 448 1174 463 1174 q 418 1156 428 1174 q 406 1113 408 1138 l 304 1113 q 340 1233 307 1190 q 434 1276 374 1276 q 489 1267 465 1276 q 532 1244 513 1257 q 570 1222 552 1232 q 604 1212 587 1212 q 635 1227 625 1212 q 648 1274 645 1242 l 748 1274 q 711 1153 746 1196 q 618 1109 675 1109 m 667 1337 q 600 1363 627 1337 q 573 1426 573 1389 q 601 1489 573 1463 q 667 1514 628 1514 q 734 1489 707 1514 q 761 1426 761 1463 q 734 1363 761 1389 q 667 1337 707 1337 m 379 1337 q 312 1363 340 1337 q 285 1426 285 1389 q 312 1489 285 1463 q 379 1514 340 1514 q 446 1489 418 1514 q 473 1426 473 1463 q 446 1363 473 1389 q 379 1337 418 1337 z "},"Ṑ":{"ha":1052,"x_min":58,"x_max":994,"o":"m 526 -15 q 286 48 392 -15 q 119 229 180 112 q 58 505 58 345 q 119 782 58 665 q 286 962 180 899 q 526 1025 392 1025 q 766 962 660 1025 q 932 782 871 899 q 994 505 994 665 q 932 228 994 345 q 766 48 871 111 q 526 -15 660 -15 m 526 146 q 673 188 608 146 q 775 309 738 229 q 812 505 812 389 q 775 701 812 621 q 673 823 738 781 q 526 864 608 864 q 379 822 444 864 q 277 701 314 781 q 239 505 239 621 q 277 310 239 389 q 379 188 314 230 q 526 146 444 146 m 719 1253 l 719 1135 l 332 1135 l 332 1253 l 719 1253 m 471 1339 l 331 1529 l 492 1529 l 589 1339 l 471 1339 z "},"Ṓ":{"ha":1052,"x_min":58,"x_max":994,"o":"m 526 -15 q 286 48 392 -15 q 119 229 180 112 q 58 505 58 345 q 119 782 58 665 q 286 962 180 899 q 526 1025 392 1025 q 766 962 660 1025 q 932 782 871 899 q 994 505 994 665 q 932 228 994 345 q 766 48 871 111 q 526 -15 660 -15 m 526 146 q 673 188 608 146 q 775 309 738 229 q 812 505 812 389 q 775 701 812 621 q 673 823 738 781 q 526 864 608 864 q 379 822 444 864 q 277 701 314 781 q 239 505 239 621 q 277 310 239 389 q 379 188 314 230 q 526 146 444 146 m 719 1252 l 719 1134 l 332 1134 l 332 1252 l 719 1252 m 467 1339 l 564 1529 l 724 1529 l 585 1339 l 467 1339 z "},"Ọ":{"ha":1052,"x_min":58,"x_max":994,"o":"m 526 -15 q 286 48 392 -15 q 119 229 180 112 q 58 505 58 345 q 119 782 58 665 q 286 962 180 899 q 526 1025 392 1025 q 766 962 660 1025 q 932 782 871 899 q 994 505 994 665 q 932 228 994 345 q 766 48 871 111 q 526 -15 660 -15 m 526 146 q 673 188 608 146 q 775 309 738 229 q 812 505 812 389 q 775 701 812 621 q 673 823 738 781 q 526 864 608 864 q 379 822 444 864 q 277 701 314 781 q 239 505 239 621 q 277 310 239 389 q 379 188 314 230 q 526 146 444 146 m 526 -307 q 453 -278 483 -307 q 424 -210 424 -250 q 453 -140 424 -168 q 526 -113 483 -113 q 599 -140 570 -113 q 629 -210 629 -168 q 599 -278 629 -250 q 526 -307 569 -307 z "},"Ỏ":{"ha":1052,"x_min":58,"x_max":994,"o":"m 526 -15 q 286 48 392 -15 q 119 229 180 112 q 58 505 58 345 q 119 782 58 665 q 286 962 180 899 q 526 1025 392 1025 q 766 962 660 1025 q 932 782 871 899 q 994 505 994 665 q 932 228 994 345 q 766 48 871 111 q 526 -15 660 -15 m 526 146 q 673 188 608 146 q 775 309 738 229 q 812 505 812 389 q 775 701 812 621 q 673 823 738 781 q 526 864 608 864 q 379 822 444 864 q 277 701 314 781 q 239 505 239 621 q 277 310 239 389 q 379 188 314 230 q 526 146 444 146 m 578 1103 l 465 1103 l 515 1195 q 518 1209 521 1204 q 505 1214 515 1214 l 403 1214 l 403 1311 l 507 1311 q 589 1298 558 1311 q 631 1262 619 1284 q 639 1212 644 1240 q 614 1156 634 1184 l 578 1103 z "},"Ố":{"ha":1052,"x_min":58,"x_max":994,"o":"m 526 -15 q 286 48 392 -15 q 119 229 180 112 q 58 505 58 345 q 119 782 58 665 q 286 962 180 899 q 526 1025 392 1025 q 766 962 660 1025 q 932 782 871 899 q 994 505 994 665 q 932 228 994 345 q 766 48 871 111 q 526 -15 660 -15 m 526 146 q 673 188 608 146 q 775 309 738 229 q 812 505 812 389 q 775 701 812 621 q 673 823 738 781 q 526 864 608 864 q 379 822 444 864 q 277 701 314 781 q 239 505 239 621 q 277 310 239 389 q 379 188 314 230 q 526 146 444 146 m 433 1098 l 283 1098 l 283 1101 l 455 1297 l 598 1297 l 772 1101 l 772 1098 l 621 1098 l 527 1214 l 433 1098 m 620 1331 l 714 1519 l 869 1519 l 734 1331 l 620 1331 z "},"Ồ":{"ha":1052,"x_min":58,"x_max":994,"o":"m 526 -15 q 286 48 392 -15 q 119 229 180 112 q 58 505 58 345 q 119 782 58 665 q 286 962 180 899 q 526 1025 392 1025 q 766 962 660 1025 q 932 782 871 899 q 994 505 994 665 q 932 228 994 345 q 766 48 871 111 q 526 -15 660 -15 m 526 146 q 673 188 608 146 q 775 309 738 229 q 812 505 812 389 q 775 701 812 621 q 673 823 738 781 q 526 864 608 864 q 379 822 444 864 q 277 701 314 781 q 239 505 239 621 q 277 310 239 389 q 379 188 314 230 q 526 146 444 146 m 433 1098 l 283 1098 l 283 1101 l 455 1297 l 598 1297 l 772 1101 l 772 1098 l 621 1098 l 527 1214 l 433 1098 m 669 1331 l 534 1519 l 689 1519 l 784 1331 l 669 1331 z "},"Ổ":{"ha":1052,"x_min":58,"x_max":994,"o":"m 526 -15 q 286 48 392 -15 q 119 229 180 112 q 58 505 58 345 q 119 782 58 665 q 286 962 180 899 q 526 1025 392 1025 q 766 962 660 1025 q 932 782 871 899 q 994 505 994 665 q 932 228 994 345 q 766 48 871 111 q 526 -15 660 -15 m 526 146 q 673 188 608 146 q 775 309 738 229 q 812 505 812 389 q 775 701 812 621 q 673 823 738 781 q 526 864 608 864 q 379 822 444 864 q 277 701 314 781 q 239 505 239 621 q 277 310 239 389 q 379 188 314 230 q 526 146 444 146 m 433 1098 l 283 1098 l 283 1101 l 455 1297 l 598 1297 l 772 1101 l 772 1098 l 621 1098 l 527 1214 l 433 1098 m 722 1331 l 620 1331 l 663 1409 q 665 1423 667 1419 q 652 1428 662 1428 l 558 1428 l 558 1519 l 653 1519 q 745 1497 715 1519 q 775 1442 774 1476 q 751 1373 777 1409 l 722 1331 z "},"Ỗ":{"ha":1052,"x_min":58,"x_max":994,"o":"m 526 -15 q 286 48 392 -15 q 119 229 180 112 q 58 505 58 345 q 119 782 58 665 q 286 962 180 899 q 526 1025 392 1025 q 766 962 660 1025 q 932 782 871 899 q 994 505 994 665 q 932 228 994 345 q 766 48 871 111 q 526 -15 660 -15 m 526 146 q 673 188 608 146 q 775 309 738 229 q 812 505 812 389 q 775 701 812 621 q 673 823 738 781 q 526 864 608 864 q 379 822 444 864 q 277 701 314 781 q 239 505 239 621 q 277 310 239 389 q 379 188 314 230 q 526 146 444 146 m 433 1098 l 283 1098 l 283 1101 l 455 1297 l 598 1297 l 772 1101 l 772 1098 l 621 1098 l 527 1214 l 433 1098 m 620 1349 q 565 1358 590 1349 q 519 1379 541 1367 q 481 1401 498 1392 q 449 1410 464 1410 q 419 1393 429 1410 q 408 1352 409 1376 l 305 1352 q 341 1466 307 1424 q 435 1508 376 1508 q 490 1498 466 1508 q 534 1477 514 1489 q 571 1456 553 1465 q 606 1447 589 1447 q 636 1461 627 1447 q 648 1505 646 1475 l 749 1505 q 712 1390 747 1432 q 620 1349 677 1349 z "},"Ộ":{"ha":1052,"x_min":58,"x_max":994,"o":"m 526 -15 q 286 48 392 -15 q 119 229 180 112 q 58 505 58 345 q 119 782 58 665 q 286 962 180 899 q 526 1025 392 1025 q 766 962 660 1025 q 932 782 871 899 q 994 505 994 665 q 932 228 994 345 q 766 48 871 111 q 526 -15 660 -15 m 526 146 q 673 188 608 146 q 775 309 738 229 q 812 505 812 389 q 775 701 812 621 q 673 823 738 781 q 526 864 608 864 q 379 822 444 864 q 277 701 314 781 q 239 505 239 621 q 277 310 239 389 q 379 188 314 230 q 526 146 444 146 m 432 1112 l 282 1112 l 282 1115 l 454 1311 l 597 1311 l 770 1115 l 770 1112 l 620 1112 l 526 1228 l 432 1112 m 526 -307 q 453 -278 483 -307 q 424 -210 424 -250 q 453 -140 424 -168 q 526 -113 483 -113 q 599 -140 570 -113 q 629 -210 629 -168 q 599 -278 629 -250 q 526 -307 569 -307 z "},"Ớ":{"ha":1055,"x_min":58,"x_max":994,"o":"m 528 909 l 528 1025 q 590 1023 564 1025 q 644 1018 616 1021 q 712 1013 671 1015 q 820 1010 753 1010 q 836 1026 836 1010 l 836 1164 l 994 1164 l 994 1020 q 958 924 994 954 q 857 893 921 893 q 796 896 825 893 q 732 901 767 898 q 648 906 697 904 q 528 909 599 909 m 526 -15 q 286 48 392 -15 q 119 229 180 112 q 58 505 58 345 q 119 782 58 665 q 286 962 180 899 q 526 1025 392 1025 q 766 962 660 1025 q 932 782 871 899 q 994 505 994 665 q 932 228 994 345 q 766 48 871 111 q 526 -15 660 -15 m 526 146 q 673 188 608 146 q 775 309 738 229 q 812 505 812 389 q 775 701 812 621 q 673 823 738 781 q 526 864 608 864 q 379 822 444 864 q 277 701 314 781 q 239 505 239 621 q 277 310 239 389 q 379 188 314 230 q 526 146 444 146 m 457 1103 l 561 1311 l 733 1311 l 585 1103 l 457 1103 z "},"Ờ":{"ha":1055,"x_min":58,"x_max":994,"o":"m 528 909 l 528 1025 q 590 1023 564 1025 q 644 1018 616 1021 q 712 1013 671 1015 q 820 1010 753 1010 q 836 1026 836 1010 l 836 1164 l 994 1164 l 994 1020 q 958 924 994 954 q 857 893 921 893 q 796 896 825 893 q 732 901 767 898 q 648 906 697 904 q 528 909 599 909 m 526 -15 q 286 48 392 -15 q 119 229 180 112 q 58 505 58 345 q 119 782 58 665 q 286 962 180 899 q 526 1025 392 1025 q 766 962 660 1025 q 932 782 871 899 q 994 505 994 665 q 932 228 994 345 q 766 48 871 111 q 526 -15 660 -15 m 526 146 q 673 188 608 146 q 775 309 738 229 q 812 505 812 389 q 775 701 812 621 q 673 823 738 781 q 526 864 608 864 q 379 822 444 864 q 277 701 314 781 q 239 505 239 621 q 277 310 239 389 q 379 188 314 230 q 526 146 444 146 m 467 1103 l 319 1311 l 491 1311 l 594 1103 l 467 1103 z "},"Ở":{"ha":1055,"x_min":58,"x_max":994,"o":"m 528 909 l 528 1025 q 590 1023 564 1025 q 644 1018 616 1021 q 712 1013 671 1015 q 820 1010 753 1010 q 836 1026 836 1010 l 836 1164 l 994 1164 l 994 1020 q 958 924 994 954 q 857 893 921 893 q 796 896 825 893 q 732 901 767 898 q 648 906 697 904 q 528 909 599 909 m 526 -15 q 286 48 392 -15 q 119 229 180 112 q 58 505 58 345 q 119 782 58 665 q 286 962 180 899 q 526 1025 392 1025 q 766 962 660 1025 q 932 782 871 899 q 994 505 994 665 q 932 228 994 345 q 766 48 871 111 q 526 -15 660 -15 m 526 146 q 673 188 608 146 q 775 309 738 229 q 812 505 812 389 q 775 701 812 621 q 673 823 738 781 q 526 864 608 864 q 379 822 444 864 q 277 701 314 781 q 239 505 239 621 q 277 310 239 389 q 379 188 314 230 q 526 146 444 146 m 578 1103 l 465 1103 l 515 1195 q 518 1209 521 1204 q 505 1214 515 1214 l 403 1214 l 403 1311 l 507 1311 q 589 1298 558 1311 q 631 1262 619 1284 q 639 1212 644 1240 q 614 1156 634 1184 l 578 1103 z "},"Ỡ":{"ha":1055,"x_min":58,"x_max":994,"o":"m 528 909 l 528 1025 q 590 1023 564 1025 q 644 1018 616 1021 q 712 1013 671 1015 q 820 1010 753 1010 q 836 1026 836 1010 l 836 1164 l 994 1164 l 994 1020 q 958 924 994 954 q 857 893 921 893 q 796 896 825 893 q 732 901 767 898 q 648 906 697 904 q 528 909 599 909 m 526 -15 q 286 48 392 -15 q 119 229 180 112 q 58 505 58 345 q 119 782 58 665 q 286 962 180 899 q 526 1025 392 1025 q 766 962 660 1025 q 932 782 871 899 q 994 505 994 665 q 932 228 994 345 q 766 48 871 111 q 526 -15 660 -15 m 526 146 q 673 188 608 146 q 775 309 738 229 q 812 505 812 389 q 775 701 812 621 q 673 823 738 781 q 526 864 608 864 q 379 822 444 864 q 277 701 314 781 q 239 505 239 621 q 277 310 239 389 q 379 188 314 230 q 526 146 444 146 m 619 1129 q 565 1139 589 1129 q 519 1161 540 1148 q 481 1184 498 1175 q 448 1194 463 1194 q 418 1176 429 1194 q 407 1133 408 1158 l 304 1133 q 341 1254 307 1210 q 435 1298 375 1298 q 489 1288 465 1298 q 533 1265 513 1278 q 570 1243 553 1253 q 605 1233 588 1233 q 636 1248 626 1233 q 648 1295 646 1263 l 748 1295 q 711 1173 747 1217 q 619 1129 676 1129 z "},"Ợ":{"ha":1055,"x_min":58,"x_max":994,"o":"m 528 909 l 528 1025 q 590 1023 564 1025 q 644 1018 616 1021 q 712 1013 671 1015 q 820 1010 753 1010 q 836 1026 836 1010 l 836 1164 l 994 1164 l 994 1020 q 958 924 994 954 q 857 893 921 893 q 796 896 825 893 q 732 901 767 898 q 648 906 697 904 q 528 909 599 909 m 526 -15 q 286 48 392 -15 q 119 229 180 112 q 58 505 58 345 q 119 782 58 665 q 286 962 180 899 q 526 1025 392 1025 q 766 962 660 1025 q 932 782 871 899 q 994 505 994 665 q 932 228 994 345 q 766 48 871 111 q 526 -15 660 -15 m 526 146 q 673 188 608 146 q 775 309 738 229 q 812 505 812 389 q 775 701 812 621 q 673 823 738 781 q 526 864 608 864 q 379 822 444 864 q 277 701 314 781 q 239 505 239 621 q 277 310 239 389 q 379 188 314 230 q 526 146 444 146 m 526 -307 q 453 -278 483 -307 q 424 -210 424 -250 q 453 -140 424 -168 q 526 -113 483 -113 q 599 -140 570 -113 q 629 -210 629 -168 q 599 -278 629 -250 q 526 -307 569 -307 z "},"Ǿ":{"ha":1052,"x_min":58,"x_max":994,"o":"m 526 -15 q 286 48 392 -15 q 119 229 180 112 q 58 505 58 345 q 119 782 58 665 q 286 962 180 899 q 526 1025 392 1025 q 766 962 660 1025 q 932 782 871 899 q 994 505 994 665 q 932 228 994 345 q 766 48 871 111 q 526 -15 660 -15 m 526 146 q 673 188 608 146 q 775 309 738 229 q 812 505 812 389 q 775 701 812 621 q 673 823 738 781 q 526 864 608 864 q 379 822 444 864 q 277 701 314 781 q 239 505 239 621 q 277 310 239 389 q 379 188 314 230 q 526 146 444 146 m 178 -43 l 76 37 l 874 1053 l 975 972 l 178 -43 m 457 1103 l 561 1311 l 733 1311 l 585 1103 l 457 1103 z "},"Ο":{"ha":1052,"x_min":58,"x_max":994,"o":"m 526 -15 q 286 48 392 -15 q 119 229 180 112 q 58 505 58 345 q 119 782 58 665 q 286 962 180 899 q 526 1025 392 1025 q 766 962 660 1025 q 932 782 871 899 q 994 505 994 665 q 932 228 994 345 q 766 48 871 111 q 526 -15 660 -15 m 526 146 q 673 188 608 146 q 775 309 738 229 q 812 505 812 389 q 775 701 812 621 q 673 823 738 781 q 526 864 608 864 q 379 822 444 864 q 277 701 314 781 q 239 505 239 621 q 277 310 239 389 q 379 188 314 230 q 526 146 444 146 z "},"Ό":{"ha":1198,"x_min":43,"x_max":1136,"o":"m 669 -15 q 429 48 534 -15 q 262 229 323 112 q 201 505 201 345 q 262 782 201 665 q 429 962 323 899 q 669 1025 534 1025 q 908 962 802 1025 q 1075 782 1014 899 q 1136 505 1136 665 q 1075 228 1136 345 q 908 48 1014 111 q 669 -15 802 -15 m 669 146 q 815 188 751 146 q 917 309 880 229 q 954 505 954 389 q 917 701 954 621 q 815 823 880 781 q 669 864 751 864 q 521 822 586 864 q 419 701 456 781 q 382 505 382 621 q 419 310 382 389 q 521 188 456 230 q 669 146 586 146 m 42 803 l 66 1010 l 227 1010 l 150 803 l 42 803 z "},"Ὀ":{"ha":1217,"x_min":43,"x_max":1155,"o":"m 688 -15 q 448 48 553 -15 q 281 229 342 112 q 220 505 220 345 q 281 782 220 665 q 448 962 342 899 q 688 1025 553 1025 q 927 962 821 1025 q 1094 782 1033 899 q 1155 505 1155 665 q 1094 228 1155 345 q 927 48 1033 111 q 688 -15 821 -15 m 688 146 q 834 188 770 146 q 936 309 899 229 q 973 505 973 389 q 936 701 973 621 q 834 823 899 781 q 688 864 770 864 q 540 822 605 864 q 438 701 475 781 q 401 505 401 621 q 438 310 401 389 q 540 188 475 230 q 688 146 605 146 m 67 800 l 59 800 l 59 857 l 69 857 q 121 867 103 857 q 138 899 138 878 q 122 926 138 917 q 73 936 105 936 l 43 936 l 43 1025 l 67 1025 q 195 995 150 1025 q 240 913 240 965 q 195 830 240 860 q 67 800 149 800 z "},"Ὁ":{"ha":1230,"x_min":43,"x_max":1168,"o":"m 701 -15 q 460 48 566 -15 q 294 229 355 112 q 233 505 233 345 q 294 782 233 665 q 460 962 355 899 q 701 1025 566 1025 q 940 962 834 1025 q 1107 782 1046 899 q 1168 505 1168 665 q 1107 228 1168 345 q 940 48 1046 111 q 701 -15 834 -15 m 701 146 q 847 188 783 146 q 949 309 912 229 q 986 505 986 389 q 949 701 986 621 q 847 823 912 781 q 701 864 783 864 q 553 822 618 864 q 451 701 488 781 q 414 505 414 621 q 451 310 414 389 q 553 188 488 230 q 701 146 618 146 m 216 789 q 88 819 134 789 q 43 902 43 849 q 88 984 43 954 q 216 1014 134 1014 l 240 1014 l 240 925 l 210 925 q 161 916 178 925 q 144 888 144 906 q 162 856 144 867 q 214 846 180 846 l 224 846 l 224 789 l 216 789 z "},"Ὂ":{"ha":1434,"x_min":43,"x_max":1372,"o":"m 905 -15 q 665 48 770 -15 q 498 229 559 112 q 437 505 437 345 q 498 782 437 665 q 665 962 559 899 q 905 1025 770 1025 q 1144 962 1038 1025 q 1311 782 1250 899 q 1372 505 1372 665 q 1311 228 1372 345 q 1144 48 1250 111 q 905 -15 1038 -15 m 905 146 q 1052 188 987 146 q 1153 309 1116 229 q 1190 505 1190 389 q 1153 701 1190 621 q 1052 823 1116 781 q 905 864 987 864 q 757 822 822 864 q 655 701 692 781 q 618 505 618 621 q 655 310 618 389 q 757 188 692 230 q 905 146 822 146 m 67 789 l 59 789 l 59 846 l 69 846 q 121 856 103 846 q 138 888 138 867 q 122 916 138 906 q 73 925 105 925 l 43 925 l 43 1014 l 67 1014 q 195 984 150 1014 q 240 902 240 954 q 195 819 240 849 q 67 789 149 789 m 429 793 l 329 793 l 258 1010 l 406 1010 l 429 793 z "},"Ὃ":{"ha":1455,"x_min":43,"x_max":1392,"o":"m 926 -15 q 686 48 791 -15 q 519 229 580 112 q 458 505 458 345 q 519 782 458 665 q 686 962 580 899 q 926 1025 791 1025 q 1165 962 1059 1025 q 1332 782 1271 899 q 1393 505 1393 665 q 1332 228 1393 345 q 1165 48 1271 111 q 926 -15 1059 -15 m 926 146 q 1073 188 1008 146 q 1174 309 1137 229 q 1211 505 1211 389 q 1174 701 1211 621 q 1073 823 1137 781 q 926 864 1008 864 q 778 822 843 864 q 676 701 713 781 q 639 505 639 621 q 676 310 639 389 q 778 188 713 230 q 926 146 843 146 m 216 789 q 88 819 134 789 q 43 902 43 849 q 88 984 43 954 q 216 1014 134 1014 l 240 1014 l 240 925 l 210 925 q 161 916 178 925 q 144 888 144 906 q 162 856 144 867 q 214 846 180 846 l 224 846 l 224 789 l 216 789 m 452 793 l 353 793 l 282 1010 l 429 1010 l 452 793 z "},"Ὄ":{"ha":1442,"x_min":43,"x_max":1380,"o":"m 913 -15 q 673 48 779 -15 q 506 229 567 112 q 445 505 445 345 q 506 782 445 665 q 673 962 567 899 q 913 1025 779 1025 q 1152 962 1046 1025 q 1319 782 1258 899 q 1380 505 1380 665 q 1319 228 1380 345 q 1152 48 1258 111 q 913 -15 1046 -15 m 913 146 q 1060 188 995 146 q 1161 309 1124 229 q 1198 505 1198 389 q 1161 701 1198 621 q 1060 823 1124 781 q 913 864 995 864 q 765 822 830 864 q 663 701 701 781 q 626 505 626 621 q 663 310 626 389 q 765 188 701 230 q 913 146 830 146 m 67 789 l 59 789 l 59 846 l 69 846 q 121 856 103 846 q 138 888 138 867 q 122 916 138 906 q 73 925 105 925 l 43 925 l 43 1014 l 67 1014 q 195 984 150 1014 q 240 902 240 954 q 195 819 240 849 q 67 789 149 789 m 307 793 l 330 1010 l 477 1010 l 406 793 l 307 793 z "},"Ὅ":{"ha":1457,"x_min":43,"x_max":1394,"o":"m 927 -15 q 687 48 793 -15 q 520 229 581 112 q 459 505 459 345 q 520 782 459 665 q 687 962 581 899 q 927 1025 793 1025 q 1166 962 1061 1025 q 1333 782 1272 899 q 1394 505 1394 665 q 1333 228 1394 345 q 1166 48 1272 111 q 927 -15 1061 -15 m 927 146 q 1074 188 1009 146 q 1176 309 1139 229 q 1213 505 1213 389 q 1176 701 1213 621 q 1074 823 1139 781 q 927 864 1009 864 q 780 822 844 864 q 677 701 715 781 q 640 505 640 621 q 677 310 640 389 q 780 188 715 230 q 927 146 844 146 m 216 789 q 88 819 134 789 q 43 902 43 849 q 88 984 43 954 q 216 1014 134 1014 l 240 1014 l 240 925 l 210 925 q 161 916 178 925 q 144 888 144 906 q 162 856 144 867 q 214 846 180 846 l 224 846 l 224 789 l 216 789 m 316 793 l 338 1010 l 486 1010 l 415 793 l 316 793 z "},"Ὸ":{"ha":1052,"x_min":-193,"x_max":994,"o":"m 526 -15 q 286 48 392 -15 q 119 229 180 112 q 58 505 58 345 q 119 782 58 665 q 286 962 180 899 q 526 1025 392 1025 q 766 962 660 1025 q 932 782 871 899 q 994 505 994 665 q 932 228 994 345 q 766 48 871 111 q 526 -15 660 -15 m 526 146 q 673 188 608 146 q 775 309 738 229 q 812 505 812 389 q 775 701 812 621 q 673 823 738 781 q 526 864 608 864 q 379 822 444 864 q 277 701 314 781 q 239 505 239 621 q 277 310 239 389 q 379 188 314 230 q 526 146 444 146 m -9 828 l -117 828 l -193 1036 l -33 1036 l -9 828 z "},"ϴ":{"ha":1052,"x_min":58,"x_max":994,"o":"m 861 568 l 861 441 l 194 441 l 194 568 l 861 568 m 526 -15 q 286 48 392 -15 q 119 229 180 112 q 58 505 58 345 q 119 782 58 665 q 286 962 180 899 q 526 1025 392 1025 q 766 962 660 1025 q 932 782 871 899 q 994 505 994 665 q 932 228 994 345 q 766 48 871 111 q 526 -15 660 -15 m 526 146 q 673 188 608 146 q 775 309 738 229 q 812 505 812 389 q 775 701 812 621 q 673 823 738 781 q 526 864 608 864 q 379 822 444 864 q 277 701 314 781 q 239 505 239 621 q 277 310 239 389 q 379 188 314 230 q 526 146 444 146 z "},"Ό":{"ha":1198,"x_min":43,"x_max":1136,"o":"m 669 -15 q 429 48 534 -15 q 262 229 323 112 q 201 505 201 345 q 262 782 201 665 q 429 962 323 899 q 669 1025 534 1025 q 908 962 802 1025 q 1075 782 1014 899 q 1136 505 1136 665 q 1075 228 1136 345 q 908 48 1014 111 q 669 -15 802 -15 m 669 146 q 815 188 751 146 q 917 309 880 229 q 954 505 954 389 q 917 701 954 621 q 815 823 880 781 q 669 864 751 864 q 521 822 586 864 q 419 701 456 781 q 382 505 382 621 q 419 310 382 389 q 521 188 456 230 q 669 146 586 146 m 42 803 l 66 1010 l 227 1010 l 150 803 l 42 803 z "},"О":{"ha":1052,"x_min":58,"x_max":994,"o":"m 526 -15 q 286 48 392 -15 q 119 229 180 112 q 58 505 58 345 q 119 782 58 665 q 286 962 180 899 q 526 1025 392 1025 q 766 962 660 1025 q 932 782 871 899 q 994 505 994 665 q 932 228 994 345 q 766 48 871 111 q 526 -15 660 -15 m 526 146 q 673 188 608 146 q 775 309 738 229 q 812 505 812 389 q 775 701 812 621 q 673 823 738 781 q 526 864 608 864 q 379 822 444 864 q 277 701 314 781 q 239 505 239 621 q 277 310 239 389 q 379 188 314 230 q 526 146 444 146 z "},"Ӧ":{"ha":1052,"x_min":58,"x_max":994,"o":"m 526 -15 q 286 48 392 -15 q 119 229 180 112 q 58 505 58 345 q 119 782 58 665 q 286 962 180 899 q 526 1025 392 1025 q 766 962 660 1025 q 932 782 871 899 q 994 505 994 665 q 932 228 994 345 q 766 48 871 111 q 526 -15 660 -15 m 526 146 q 673 188 608 146 q 775 309 738 229 q 812 505 812 389 q 775 701 812 621 q 673 823 738 781 q 526 864 608 864 q 379 822 444 864 q 277 701 314 781 q 239 505 239 621 q 277 310 239 389 q 379 188 314 230 q 526 146 444 146 m 673 1120 q 605 1147 633 1120 q 576 1215 576 1175 q 605 1281 576 1254 q 673 1309 633 1309 q 743 1282 715 1309 q 770 1215 770 1255 q 743 1147 770 1175 q 673 1120 715 1120 m 378 1120 q 309 1147 337 1120 q 281 1215 281 1175 q 309 1281 281 1254 q 378 1309 337 1309 q 447 1282 419 1309 q 475 1215 475 1255 q 447 1147 475 1175 q 378 1120 419 1120 z "},"Ɵ":{"ha":1052,"x_min":58,"x_max":994,"o":"m 861 568 l 861 441 l 194 441 l 194 568 l 861 568 m 526 -15 q 286 48 392 -15 q 119 229 180 112 q 58 505 58 345 q 119 782 58 665 q 286 962 180 899 q 526 1025 392 1025 q 766 962 660 1025 q 932 782 871 899 q 994 505 994 665 q 932 228 994 345 q 766 48 871 111 q 526 -15 660 -15 m 526 146 q 673 188 608 146 q 775 309 738 229 q 812 505 812 389 q 775 701 812 621 q 673 823 738 781 q 526 864 608 864 q 379 822 444 864 q 277 701 314 781 q 239 505 239 621 q 277 310 239 389 q 379 188 314 230 q 526 146 444 146 z "},"Ө":{"ha":1052,"x_min":58,"x_max":994,"o":"m 861 568 l 861 441 l 194 441 l 194 568 l 861 568 m 526 -15 q 286 48 392 -15 q 119 229 180 112 q 58 505 58 345 q 119 782 58 665 q 286 962 180 899 q 526 1025 392 1025 q 766 962 660 1025 q 932 782 871 899 q 994 505 994 665 q 932 228 994 345 q 766 48 871 111 q 526 -15 660 -15 m 526 146 q 673 188 608 146 q 775 309 738 229 q 812 505 812 389 q 775 701 812 621 q 673 823 738 781 q 526 864 608 864 q 379 822 444 864 q 277 701 314 781 q 239 505 239 621 q 277 310 239 389 q 379 188 314 230 q 526 146 444 146 z "},"Ӫ":{"ha":1052,"x_min":58,"x_max":994,"o":"m 861 568 l 861 441 l 194 441 l 194 568 l 861 568 m 526 -15 q 286 48 392 -15 q 119 229 180 112 q 58 505 58 345 q 119 782 58 665 q 286 962 180 899 q 526 1025 392 1025 q 766 962 660 1025 q 932 782 871 899 q 994 505 994 665 q 932 228 994 345 q 766 48 871 111 q 526 -15 660 -15 m 526 146 q 673 188 608 146 q 775 309 738 229 q 812 505 812 389 q 775 701 812 621 q 673 823 738 781 q 526 864 608 864 q 379 822 444 864 q 277 701 314 781 q 239 505 239 621 q 277 310 239 389 q 379 188 314 230 q 526 146 444 146 m 673 1120 q 605 1147 633 1120 q 576 1215 576 1175 q 605 1281 576 1254 q 673 1309 633 1309 q 743 1282 715 1309 q 770 1215 770 1255 q 743 1147 770 1175 q 673 1120 715 1120 m 378 1120 q 309 1147 337 1120 q 281 1215 281 1175 q 309 1281 281 1254 q 378 1309 337 1309 q 447 1282 419 1309 q 475 1215 475 1255 q 447 1147 475 1175 q 378 1120 419 1120 z "},"Œ":{"ha":1409,"x_min":58,"x_max":1348,"o":"m 541 0 q 284 62 393 0 q 117 237 176 123 q 58 505 58 351 q 117 774 58 661 q 284 949 176 887 q 538 1010 391 1010 l 760 1010 l 760 855 l 547 855 q 378 815 447 855 q 273 696 309 774 q 237 505 237 618 q 273 314 237 393 q 378 196 309 236 q 549 155 448 155 l 756 155 l 756 0 l 541 0 m 665 0 l 665 1010 l 1346 1010 l 1346 857 l 845 857 l 845 587 l 1310 587 l 1310 436 l 845 436 l 845 154 l 1348 154 l 1348 0 l 665 0 z "},"P":{"ha":880,"x_min":92,"x_max":833,"o":"m 92 0 l 92 1010 l 474 1010 q 668 969 588 1010 q 790 854 748 928 q 833 682 833 781 q 790 510 833 584 q 666 395 747 437 q 471 354 585 354 l 201 354 l 201 505 l 456 505 q 565 527 521 505 q 631 589 608 549 q 653 682 653 629 q 631 775 653 736 q 565 836 608 814 q 456 858 521 858 l 272 858 l 272 0 l 92 0 z "},"Ṕ":{"ha":880,"x_min":92,"x_max":833,"o":"m 92 0 l 92 1010 l 474 1010 q 668 969 588 1010 q 790 854 748 928 q 833 682 833 781 q 790 510 833 584 q 666 395 747 437 q 471 354 585 354 l 201 354 l 201 505 l 456 505 q 565 527 521 505 q 631 589 608 549 q 653 682 653 629 q 631 775 653 736 q 565 836 608 814 q 456 858 521 858 l 272 858 l 272 0 l 92 0 m 366 1103 l 469 1311 l 642 1311 l 493 1103 l 366 1103 z "},"Ṗ":{"ha":880,"x_min":92,"x_max":833,"o":"m 92 0 l 92 1010 l 474 1010 q 668 969 588 1010 q 790 854 748 928 q 833 682 833 781 q 790 510 833 584 q 666 395 747 437 q 471 354 585 354 l 201 354 l 201 505 l 456 505 q 565 527 521 505 q 631 589 608 549 q 653 682 653 629 q 631 775 653 736 q 565 836 608 814 q 456 858 521 858 l 272 858 l 272 0 l 92 0 m 434 1117 q 361 1145 391 1117 q 332 1214 332 1173 q 361 1283 332 1255 q 434 1311 391 1311 q 507 1283 477 1311 q 536 1214 536 1255 q 507 1145 536 1173 q 434 1117 477 1117 z "},"Ҏ":{"ha":884,"x_min":95,"x_max":836,"o":"m 524 658 l 755 300 l 665 243 l 433 600 l 524 658 m 95 0 l 95 1010 l 477 1010 q 671 969 591 1010 q 793 854 751 928 q 836 682 836 781 q 793 510 836 584 q 669 395 750 437 q 474 354 588 354 l 204 354 l 204 505 l 460 505 q 567 527 524 505 q 633 589 611 549 q 656 682 656 629 q 633 775 656 736 q 567 836 611 814 q 459 858 524 858 l 275 858 l 275 0 l 95 0 z "},"Ƥ":{"ha":1119,"x_min":30,"x_max":1072,"o":"m 30 718 l 30 800 q 86 957 30 903 q 256 1010 142 1010 l 331 1010 l 331 858 l 275 858 q 216 841 235 858 q 197 787 197 823 l 197 718 l 30 718 m 330 0 l 330 1010 l 713 1010 q 907 969 827 1010 q 1029 854 987 928 q 1072 682 1072 781 q 1028 510 1072 584 q 904 395 985 437 q 710 354 823 354 l 440 354 l 440 505 l 695 505 q 803 527 760 505 q 869 589 847 549 q 892 682 892 629 q 869 775 892 736 q 803 836 847 814 q 695 858 760 858 l 511 858 l 511 0 l 330 0 z "},"Ρ":{"ha":880,"x_min":92,"x_max":833,"o":"m 92 0 l 92 1010 l 474 1010 q 668 969 588 1010 q 790 854 748 928 q 833 682 833 781 q 790 510 833 584 q 666 395 747 437 q 471 354 585 354 l 201 354 l 201 505 l 456 505 q 565 527 521 505 q 631 589 608 549 q 653 682 653 629 q 631 775 653 736 q 565 836 608 814 q 456 858 521 858 l 272 858 l 272 0 l 92 0 z "},"Ῥ":{"ha":1142,"x_min":43,"x_max":1095,"o":"m 353 0 l 353 1010 l 736 1010 q 930 969 850 1010 q 1052 854 1010 928 q 1095 682 1095 781 q 1052 510 1095 584 q 927 395 1008 437 q 733 354 846 354 l 463 354 l 463 505 l 718 505 q 826 527 783 505 q 892 589 870 549 q 915 682 915 629 q 892 775 915 736 q 826 836 870 814 q 718 858 783 858 l 534 858 l 534 0 l 353 0 m 216 789 q 88 819 134 789 q 43 902 43 849 q 88 984 43 954 q 216 1014 134 1014 l 240 1014 l 240 925 l 210 925 q 161 916 178 925 q 144 888 144 906 q 162 856 144 867 q 214 846 180 846 l 224 846 l 224 789 l 216 789 z "},"Q":{"ha":1054,"x_min":58,"x_max":994,"o":"m 461 337 l 624 337 l 724 208 l 789 130 l 958 -87 l 786 -87 l 673 57 l 623 123 l 461 337 m 526 -15 q 286 48 392 -15 q 119 229 180 112 q 58 505 58 345 q 119 782 58 665 q 286 962 180 899 q 526 1025 392 1025 q 766 962 660 1025 q 932 782 871 899 q 994 505 994 665 q 932 228 994 345 q 766 48 871 111 q 526 -15 660 -15 m 526 146 q 673 188 608 146 q 775 309 738 229 q 812 505 812 389 q 775 701 812 621 q 673 823 738 781 q 526 864 608 864 q 379 822 444 864 q 277 701 314 781 q 239 505 239 621 q 277 310 239 389 q 379 188 314 230 q 526 146 444 146 z "},"Ɋ":{"ha":1055,"x_min":58,"x_max":1110,"o":"m 964 1010 l 964 0 l 790 0 l 790 153 l 786 153 q 670 30 747 75 q 490 -16 592 -16 q 317 23 396 -16 q 180 133 238 62 q 90 298 122 203 q 58 506 58 393 q 90 713 58 618 q 180 878 122 808 q 317 986 238 947 q 490 1025 396 1025 q 669 980 591 1025 q 786 861 747 935 l 790 861 l 790 1010 l 964 1010 m 515 146 q 666 191 605 146 q 759 317 728 236 q 791 505 791 398 q 759 695 791 614 q 666 821 727 776 q 516 865 604 865 q 370 821 432 865 q 274 695 308 776 q 239 505 239 614 q 274 314 239 395 q 370 190 308 233 q 515 146 432 146 m 1015 -288 q 846 -237 903 -288 q 790 -87 790 -186 l 790 0 l 964 0 l 964 -84 q 982 -133 964 -118 q 1044 -149 1000 -149 q 1078 -148 1059 -149 q 1110 -146 1097 -147 l 1110 -283 q 1069 -287 1093 -286 q 1015 -288 1045 -288 z "},"R":{"ha":900,"x_min":92,"x_max":865,"o":"m 92 0 l 92 1010 l 479 1010 q 672 970 592 1010 q 795 858 753 930 q 838 687 838 785 q 793 518 838 590 q 668 408 749 447 q 471 369 586 369 l 197 369 l 197 518 l 462 518 q 569 538 526 518 q 635 597 612 559 q 657 687 657 635 q 635 779 657 741 q 569 838 612 817 q 461 859 526 859 l 272 859 l 272 0 l 92 0 m 665 0 l 425 457 l 621 457 l 865 0 l 665 0 z "},"Ŕ":{"ha":900,"x_min":92,"x_max":865,"o":"m 92 0 l 92 1010 l 479 1010 q 672 970 592 1010 q 795 858 753 930 q 838 687 838 785 q 793 518 838 590 q 668 408 749 447 q 471 369 586 369 l 197 369 l 197 518 l 462 518 q 569 538 526 518 q 635 597 612 559 q 657 687 657 635 q 635 779 657 741 q 569 838 612 817 q 461 859 526 859 l 272 859 l 272 0 l 92 0 m 665 0 l 425 457 l 621 457 l 865 0 l 665 0 m 376 1103 l 480 1311 l 652 1311 l 504 1103 l 376 1103 z "},"Ŗ":{"ha":900,"x_min":92,"x_max":865,"o":"m 92 0 l 92 1010 l 479 1010 q 672 970 592 1010 q 795 858 753 930 q 838 687 838 785 q 793 518 838 590 q 668 408 749 447 q 471 369 586 369 l 197 369 l 197 518 l 462 518 q 569 538 526 518 q 635 597 612 559 q 657 687 657 635 q 635 779 657 741 q 569 838 612 817 q 461 859 526 859 l 272 859 l 272 0 l 92 0 m 665 0 l 425 457 l 621 457 l 865 0 l 665 0 m 315 -328 l 374 -80 l 539 -80 l 440 -328 l 315 -328 z "},"Ř":{"ha":900,"x_min":92,"x_max":865,"o":"m 92 0 l 92 1010 l 479 1010 q 672 970 592 1010 q 795 858 753 930 q 838 687 838 785 q 793 518 838 590 q 668 408 749 447 q 471 369 586 369 l 197 369 l 197 518 l 462 518 q 569 538 526 518 q 635 597 612 559 q 657 687 657 635 q 635 779 657 741 q 569 838 612 817 q 461 859 526 859 l 272 859 l 272 0 l 92 0 m 665 0 l 425 457 l 621 457 l 865 0 l 665 0 m 351 1311 l 445 1196 l 539 1311 l 690 1311 l 690 1308 l 516 1112 l 373 1112 l 201 1308 l 201 1311 l 351 1311 z "},"Ȑ":{"ha":900,"x_min":92,"x_max":865,"o":"m 92 0 l 92 1010 l 479 1010 q 672 970 592 1010 q 795 858 753 930 q 838 687 838 785 q 793 518 838 590 q 668 408 749 447 q 471 369 586 369 l 197 369 l 197 518 l 462 518 q 569 538 526 518 q 635 597 612 559 q 657 687 657 635 q 635 779 657 741 q 569 838 612 817 q 461 859 526 859 l 272 859 l 272 0 l 92 0 m 665 0 l 425 457 l 621 457 l 865 0 l 665 0 m 500 1103 l 380 1311 l 546 1311 l 627 1103 l 500 1103 m 274 1103 l 110 1311 l 283 1311 l 404 1103 l 274 1103 z "},"Ȓ":{"ha":900,"x_min":92,"x_max":865,"o":"m 92 0 l 92 1010 l 479 1010 q 672 970 592 1010 q 795 858 753 930 q 838 687 838 785 q 793 518 838 590 q 668 408 749 447 q 471 369 586 369 l 197 369 l 197 518 l 462 518 q 569 538 526 518 q 635 597 612 559 q 657 687 657 635 q 635 779 657 741 q 569 838 612 817 q 461 859 526 859 l 272 859 l 272 0 l 92 0 m 665 0 l 425 457 l 621 457 l 865 0 l 665 0 m 446 1318 q 561 1290 511 1318 q 640 1216 611 1263 q 669 1112 669 1170 l 559 1112 q 527 1186 559 1157 q 446 1215 494 1215 q 364 1186 397 1215 q 332 1112 332 1157 l 222 1112 q 251 1216 222 1170 q 331 1290 280 1263 q 446 1318 381 1318 z "},"Ṙ":{"ha":900,"x_min":92,"x_max":865,"o":"m 92 0 l 92 1010 l 479 1010 q 672 970 592 1010 q 795 858 753 930 q 838 687 838 785 q 793 518 838 590 q 668 408 749 447 q 471 369 586 369 l 197 369 l 197 518 l 462 518 q 569 538 526 518 q 635 597 612 559 q 657 687 657 635 q 635 779 657 741 q 569 838 612 817 q 461 859 526 859 l 272 859 l 272 0 l 92 0 m 665 0 l 425 457 l 621 457 l 865 0 l 665 0 m 446 1117 q 373 1145 402 1117 q 343 1214 343 1173 q 373 1283 343 1255 q 446 1311 402 1311 q 518 1283 489 1311 q 548 1214 548 1255 q 518 1145 548 1173 q 446 1117 488 1117 z "},"Ṛ":{"ha":900,"x_min":92,"x_max":865,"o":"m 92 0 l 92 1010 l 479 1010 q 672 970 592 1010 q 795 858 753 930 q 838 687 838 785 q 793 518 838 590 q 668 408 749 447 q 471 369 586 369 l 197 369 l 197 518 l 462 518 q 569 538 526 518 q 635 597 612 559 q 657 687 657 635 q 635 779 657 741 q 569 838 612 817 q 461 859 526 859 l 272 859 l 272 0 l 92 0 m 665 0 l 425 457 l 621 457 l 865 0 l 665 0 m 457 -307 q 384 -278 414 -307 q 355 -210 355 -250 q 384 -140 355 -168 q 457 -113 414 -113 q 530 -140 500 -113 q 559 -210 559 -168 q 530 -278 559 -250 q 457 -307 500 -307 z "},"Ṝ":{"ha":900,"x_min":92,"x_max":865,"o":"m 92 0 l 92 1010 l 479 1010 q 672 970 592 1010 q 795 858 753 930 q 838 687 838 785 q 793 518 838 590 q 668 408 749 447 q 471 369 586 369 l 197 369 l 197 518 l 462 518 q 569 538 526 518 q 635 597 612 559 q 657 687 657 635 q 635 779 657 741 q 569 838 612 817 q 461 859 526 859 l 272 859 l 272 0 l 92 0 m 665 0 l 425 457 l 621 457 l 865 0 l 665 0 m 457 -307 q 384 -278 414 -307 q 355 -210 355 -250 q 384 -140 355 -168 q 457 -113 414 -113 q 530 -140 500 -113 q 559 -210 559 -168 q 530 -278 559 -250 q 457 -307 500 -307 m 639 1265 l 639 1147 l 252 1147 l 252 1265 l 639 1265 z "},"Ṟ":{"ha":900,"x_min":92,"x_max":865,"o":"m 92 0 l 92 1010 l 479 1010 q 672 970 592 1010 q 795 858 753 930 q 838 687 838 785 q 793 518 838 590 q 668 408 749 447 q 471 369 586 369 l 197 369 l 197 518 l 462 518 q 569 538 526 518 q 635 597 612 559 q 657 687 657 635 q 635 779 657 741 q 569 838 612 817 q 461 859 526 859 l 272 859 l 272 0 l 92 0 m 665 0 l 425 457 l 621 457 l 865 0 l 665 0 m 650 -136 l 650 -254 l 263 -254 l 263 -136 l 650 -136 z "},"℟":{"ha":888,"x_min":94,"x_max":867,"o":"m 648 1148 l 310 -245 l 231 -231 l 557 1097 l 340 1154 l 365 1227 l 648 1148 m 94 0 l 94 1010 l 481 1010 q 674 970 594 1010 q 797 858 755 930 q 840 687 840 785 q 795 518 840 590 q 670 408 751 447 q 473 369 588 369 l 199 369 l 199 518 l 464 518 q 571 538 528 518 q 637 597 614 559 q 659 687 659 635 q 637 779 659 741 q 571 838 614 817 q 463 859 527 859 l 274 859 l 274 0 l 94 0 m 667 0 l 427 457 l 623 457 l 867 0 l 667 0 z "},"℞":{"ha":1002,"x_min":92,"x_max":952,"o":"m 92 1010 l 462 1010 q 663 970 584 1010 q 781 859 742 930 q 819 697 819 789 q 791 558 819 618 q 712 458 763 498 q 592 397 661 418 l 549 381 l 213 381 l 212 533 l 455 533 q 562 553 521 533 q 623 609 604 572 q 642 694 642 645 q 625 778 642 740 q 568 838 608 815 q 462 860 529 860 l 271 860 l 271 0 l 92 0 l 92 1010 m 783 0 l 456 452 l 621 452 l 952 0 l 783 0 m 610 0 l 463 0 l 793 452 l 937 452 l 610 0 z "},"Ɍ":{"ha":903,"x_min":3,"x_max":883,"o":"m 214 381 l 3 381 l 3 521 l 214 521 l 214 381 m 111 0 l 111 1010 l 498 1010 q 691 970 611 1010 q 813 858 771 930 q 856 687 856 785 q 812 518 856 590 q 686 408 768 447 q 490 369 604 369 l 216 369 l 216 518 l 480 518 q 588 538 545 518 q 654 597 631 559 q 676 687 676 635 q 653 779 676 741 q 587 838 631 817 q 479 859 544 859 l 290 859 l 290 0 l 111 0 m 684 0 l 444 457 l 639 457 l 883 0 l 684 0 z "},"S":{"ha":895,"x_min":56,"x_max":839,"o":"m 453 -16 q 243 23 331 -16 q 106 137 155 62 q 56 315 58 211 l 233 315 q 263 218 235 258 q 340 158 291 178 q 453 137 389 137 q 561 155 515 137 q 633 206 607 173 q 659 283 659 239 q 638 346 659 320 q 577 391 618 372 q 474 425 536 410 l 363 452 q 151 552 222 485 q 79 726 79 619 q 126 883 79 816 q 257 988 174 951 q 450 1025 341 1025 q 643 987 561 1025 q 770 880 724 949 q 819 718 816 810 l 646 718 q 587 832 640 791 q 448 873 534 873 q 350 855 392 873 q 284 807 307 838 q 260 736 260 776 q 282 672 260 698 q 345 629 304 646 q 439 598 385 611 l 538 574 q 662 534 607 559 q 757 475 718 510 q 818 395 797 441 q 839 288 839 349 q 792 128 839 197 q 660 22 746 60 q 453 -16 573 -16 z "},"Ś":{"ha":895,"x_min":56,"x_max":839,"o":"m 453 -16 q 243 23 331 -16 q 106 137 155 62 q 56 315 58 211 l 233 315 q 263 218 235 258 q 340 158 291 178 q 453 137 389 137 q 561 155 515 137 q 633 206 607 173 q 659 283 659 239 q 638 346 659 320 q 577 391 618 372 q 474 425 536 410 l 363 452 q 151 552 222 485 q 79 726 79 619 q 126 883 79 816 q 257 988 174 951 q 450 1025 341 1025 q 643 987 561 1025 q 770 880 724 949 q 819 718 816 810 l 646 718 q 587 832 640 791 q 448 873 534 873 q 350 855 392 873 q 284 807 307 838 q 260 736 260 776 q 282 672 260 698 q 345 629 304 646 q 439 598 385 611 l 538 574 q 662 534 607 559 q 757 475 718 510 q 818 395 797 441 q 839 288 839 349 q 792 128 839 197 q 660 22 746 60 q 453 -16 573 -16 m 377 1103 l 481 1311 l 653 1311 l 505 1103 l 377 1103 z "}}}
